<svg xmlns="http://www.w3.org/2000/svg" width="75.078" height="157.823" viewBox="0 0 75.078 157.823">
  <g id="Group_8265" data-name="Group 8265" transform="translate(24.567 101.522)">
    <g id="Group_429" data-name="Group 429" transform="translate(20.214 14.431)">
      <g id="Group_428" data-name="Group 428">
        <path id="Path_646" data-name="Path 646" d="M209.738,407.334a.316.316,0,0,1-.173.433l-.26.087a.316.316,0,0,1-.433-.173l-4.677-13.166a.316.316,0,0,1,.173-.433l.26-.087a.316.316,0,0,1,.433.173Z" transform="translate(-197.751 -380.275)" fill="#b5bcdf"/>
        <path id="Path_647" data-name="Path 647" d="M204.937,389.542a.316.316,0,0,1-.173.433l-3.551,1.3a.316.316,0,0,1-.433-.173l-3.984-11.174a.316.316,0,0,1,.173-.433l3.551-1.3a.316.316,0,0,1,.433.173Z" transform="translate(-196.761 -378.161)" fill="#fdbc56"/>
        <path id="Path_648" data-name="Path 648" d="M205.513,392.881a.316.316,0,0,1-.173.433l-2.079.78a.316.316,0,0,1-.433-.173l-.433-1.213a.316.316,0,0,1,.173-.433l2.079-.78a.316.316,0,0,1,.433.173Z" transform="translate(-197.51 -379.941)" fill="#fdbc56"/>
        <path id="Path_649" data-name="Path 649" d="M206.239,392.86c-.087-.173-.173-.26-.346-.26l-3.811,1.386c-.087,0-.173.173-.087.347l.346.953c.087.173.173.26.346.26l3.811-1.386c.087,0,.173-.173.087-.346Z" transform="translate(-197.456 -380.093)" fill="#fdbc56"/>
        <path id="Path_650" data-name="Path 650" d="M203.512,389.929a.316.316,0,0,1-.173.433l-.26.087a.316.316,0,0,1-.433-.173l-3.551-9.961a.316.316,0,0,1,.173-.433l.26-.087a.316.316,0,0,1,.433.173Z" transform="translate(-197.069 -378.375)" fill="#faa228"/>
        <path id="Path_651" data-name="Path 651" d="M205.312,389.229a.316.316,0,0,1-.173.433l-.26.087a.316.316,0,0,1-.433-.173l-3.551-9.961a.316.316,0,0,1,.173-.433l.26-.087a.316.316,0,0,1,.433.173Z" transform="translate(-197.309 -378.281)" fill="#faa228"/>
        <path id="Path_652" data-name="Path 652" d="M201.512,390.629a.316.316,0,0,1-.173.433l-.26.087a.316.316,0,0,1-.433-.173l-3.551-9.961a.316.316,0,0,1,.173-.433l.26-.087a.316.316,0,0,1,.433.173Z" transform="translate(-196.801 -378.469)" fill="#faa228"/>
        <path id="Path_653" data-name="Path 653" d="M210.466,409.4l.346.693.087.866-.52.173-.606-.78-.173-.606Z" transform="translate(-198.479 -382.341)" fill="#b5bcdf"/>
      </g>
      <path id="Path_654" data-name="Path 654" d="M206.129,393.51l.087-.087c-.346-.26-.606-.52-.953-.78-1.126-1.039-2.252-1.992-3.378-3.032-.866-.866-1.819-1.646-2.685-2.512l1.906,5.284a.316.316,0,0,0,.433.173l.52-.173.26.78-.52.173c-.087,0-.173.173-.087.346l.346.953c.087.173.173.26.346.26l1.472-.52,4.417,12.473.173.606.606.78.52-.173-.087-.866-.26-.606-4.417-12.473Z" transform="translate(-197.087 -379.357)" fill="#2e3192" opacity="0.2"/>
    </g>
    <g id="Group_431" data-name="Group 431" transform="translate(0 4.785)">
      <g id="Group_430" data-name="Group 430">
        <path id="Path_655" data-name="Path 655" d="M196.295,416.236l.78-.433-.866-1.646c0-.087-.087-.087-.173-.173a3.2,3.2,0,0,1-.433-.953v-.087h0a.3.3,0,0,0-.087-.173,3.244,3.244,0,0,1,0-1.819,4.046,4.046,0,0,1,.433-.866,4.351,4.351,0,0,1,1.126-1.039,4.082,4.082,0,0,1,1.473-.346,3.686,3.686,0,0,1,.953.173,2.788,2.788,0,0,1,1.559,1.039l.173.173h0l.087.087a9.445,9.445,0,0,1,.52.953.3.3,0,0,0,.087.173l.866,1.646.78-.433c-.866-5.977-3.291-7.622-7.449-5.543C191.964,409.133,191.964,412.078,196.295,416.236Z" transform="translate(-176.047 -372.255)" fill="#b5bcdf"/>
        <path id="Path_656" data-name="Path 656" d="M178.089,376.374c-.173-.26,0-.52.173-.693l2.685-1.386a.674.674,0,0,1,.693.173l14.465,27.8a.674.674,0,0,1-.173.693l-2.685,1.386a.674.674,0,0,1-.693-.173Z" transform="translate(-174.039 -367.992)" fill="#b5bcdf"/>
        <path id="Path_657" data-name="Path 657" d="M179.553,374.885a4.165,4.165,0,1,0-5.63-1.732A4.136,4.136,0,0,0,179.553,374.885Zm-3.2-6.063a2.789,2.789,0,0,1,3.725,1.126,2.745,2.745,0,0,1-1.213,3.725,2.789,2.789,0,0,1-3.725-1.126A2.745,2.745,0,0,1,176.348,368.822Z" transform="translate(-173.424 -367.024)" fill="#b5bcdf"/>
      </g>
      <path id="Path_658" data-name="Path 658" d="M196.565,403.283l-8.229-15.764c-.26-.087-.606-.26-.866-.346-1.646-.78-3.2-1.559-4.764-2.425-.173-.087-.433-.26-.606-.346l9.095,17.5c.693.433,1.386.78,2.079,1.213,2.858,1.559,5.63,3.118,8.4,4.764C200.9,404.149,199.164,402.676,196.565,403.283Z" transform="translate(-174.585 -369.349)" fill="#2e3192" opacity="0.2"/>
      <path id="Path_659" data-name="Path 659" d="M175.758,373.266a4.8,4.8,0,0,1-.52-.693,2.745,2.745,0,0,1,1.213-3.725,2.789,2.789,0,0,1,3.725,1.126,2.745,2.745,0,0,1-1.213,3.724,2.926,2.926,0,0,1-2.252.173c.173.087.26.173.433.26,1.906,1.213,3.9,2.339,5.89,3.465a.656.656,0,0,0,.346.173l-2.165-4.158h0a3.98,3.98,0,0,0,.173-4.158,4.157,4.157,0,0,0-7.8,2.512A20.406,20.406,0,0,1,175.758,373.266Z" transform="translate(-173.44 -367.051)" fill="#2e3192" opacity="0.2"/>
    </g>
    <g id="Group_434" data-name="Group 434" transform="translate(-7.716 -104.82) rotate(30)">
      <g id="Group_432" data-name="Group 432">
        <path id="Path_660" data-name="Path 660" d="M220.23,362.82l-.629-.126-.314,1.32v.189l-.189.754v.063h0a.219.219,0,0,1-.063.126,2.692,2.692,0,0,1-.88,1.006,2.627,2.627,0,0,1-.629.251,3.051,3.051,0,0,1-1.069,0,2.267,2.267,0,0,1-.943-.5,1.7,1.7,0,0,1-.44-.5,2.474,2.474,0,0,1-.377-1.32v-.189h0v-.063a1.674,1.674,0,0,1,.189-.755.219.219,0,0,1,.063-.126l.314-1.32-.629-.126c-2.389,3.647-1.823,5.785,1.446,6.539C219.224,368.793,220.67,367.159,220.23,362.82Z" transform="translate(-206.572 -361.5)" fill="#b5bcdf"/>
        <path id="Path_661" data-name="Path 661" d="M202.754,409.814l.629.126.314-1.32v-.189l.189-.755v-.063h0a.219.219,0,0,1,.063-.126,2.692,2.692,0,0,1,.88-1.006,2.628,2.628,0,0,1,.629-.251,3.052,3.052,0,0,1,1.069,0,2.268,2.268,0,0,1,.943.5,1.7,1.7,0,0,1,.44.5,2.474,2.474,0,0,1,.377,1.32v.189h0v.063a1.674,1.674,0,0,1-.189.754.219.219,0,0,1-.063.126l-.314,1.32.629.126c2.389-3.647,1.823-5.785-1.446-6.539C203.76,403.841,202.314,405.475,202.754,409.814Z" transform="translate(-202.677 -377.433)" fill="#b5bcdf"/>
        <path id="Path_662" data-name="Path 662" d="M209.82,393.3a.358.358,0,0,1-.44.251l-2.138-.5a.358.358,0,0,1-.252-.44l5.344-22.069a.358.358,0,0,1,.44-.252l2.138.5a.358.358,0,0,1,.251.44Z" transform="translate(-204.272 -364.757)" fill="#b5bcdf"/>
      </g>
      <path id="Path_663" data-name="Path 663" d="M214.323,368.687l-1.823,7.482c.817.88,1.572,1.76,2.389,2.641l2.264-9.431a3.186,3.186,0,0,0,.817-.126,21.677,21.677,0,0,0-1.76-1.635h-.189a2.268,2.268,0,0,1-.943-.5,1.7,1.7,0,0,1-.44-.5,3.157,3.157,0,0,1-.314-.817c-.377-.377-.755-.817-1.132-1.195C212.374,366.486,212.751,367.87,214.323,368.687Z" transform="translate(-206.324 -362.651)" fill="#b5bcdf"/>
      <path id="Path_664" data-name="Path 664" d="M208.929,396.742c.629.692,1.258,1.383,1.823,2.138l1.572-6.6c-.817-.88-1.635-1.7-2.452-2.578l-1.572,6.413Z" transform="translate(-204.765 -371.969)" fill="#b5bcdf"/>
      <path id="Path_665" data-name="Path 665" d="M223.906,365.726a8.815,8.815,0,0,0-.063-2.2l-.629-.126-.314,1.32v.126C223.214,365.1,223.529,365.412,223.906,365.726Z" transform="translate(-210.185 -362.205)" fill="#b5bcdf"/>
      <g id="Group_433" data-name="Group 433">
        <path id="Path_666" data-name="Path 666" d="M220.23,362.82l-.629-.126-.314,1.32v.189l-.189.754v.063h0a.219.219,0,0,1-.063.126,2.692,2.692,0,0,1-.88,1.006,2.627,2.627,0,0,1-.629.251,3.051,3.051,0,0,1-1.069,0,2.267,2.267,0,0,1-.943-.5,1.7,1.7,0,0,1-.44-.5,2.474,2.474,0,0,1-.377-1.32v-.189h0v-.063a1.674,1.674,0,0,1,.189-.755.219.219,0,0,1,.063-.126l.314-1.32-.629-.126c-2.389,3.647-1.823,5.785,1.446,6.539C219.224,368.793,220.67,367.159,220.23,362.82Z" transform="translate(-206.572 -361.5)" fill="#b5bcdf"/>
        <path id="Path_667" data-name="Path 667" d="M202.754,409.814l.629.126.314-1.32v-.189l.189-.755v-.063h0a.219.219,0,0,1,.063-.126,2.692,2.692,0,0,1,.88-1.006,2.628,2.628,0,0,1,.629-.251,3.052,3.052,0,0,1,1.069,0,2.268,2.268,0,0,1,.943.5,1.7,1.7,0,0,1,.44.5,2.474,2.474,0,0,1,.377,1.32v.189h0v.063a1.674,1.674,0,0,1-.189.754.219.219,0,0,1-.063.126l-.314,1.32.629.126c2.389-3.647,1.823-5.785-1.446-6.539C203.76,403.841,202.314,405.475,202.754,409.814Z" transform="translate(-202.677 -377.433)" fill="#b5bcdf"/>
        <path id="Path_668" data-name="Path 668" d="M209.82,393.3a.358.358,0,0,1-.44.251l-2.138-.5a.358.358,0,0,1-.252-.44l5.344-22.069a.358.358,0,0,1,.44-.252l2.138.5a.358.358,0,0,1,.251.44Z" transform="translate(-204.272 -364.757)" fill="#b5bcdf"/>
      </g>
      <path id="Path_669" data-name="Path 669" d="M214.323,368.687l-1.823,7.482c.817.88,1.572,1.76,2.389,2.641l2.264-9.431a3.186,3.186,0,0,0,.817-.126,21.677,21.677,0,0,0-1.76-1.635h-.189a2.268,2.268,0,0,1-.943-.5,1.7,1.7,0,0,1-.44-.5,3.157,3.157,0,0,1-.314-.817c-.377-.377-.755-.817-1.132-1.195C212.374,366.486,212.751,367.87,214.323,368.687Z" transform="translate(-206.324 -362.651)" fill="#2e3192" opacity="0.2"/>
      <path id="Path_670" data-name="Path 670" d="M208.929,396.742c.629.692,1.258,1.383,1.823,2.138l1.572-6.6c-.817-.88-1.635-1.7-2.452-2.578l-1.572,6.413Z" transform="translate(-204.765 -371.969)" fill="#2e3192" opacity="0.2"/>
      <path id="Path_671" data-name="Path 671" d="M223.906,365.726a8.815,8.815,0,0,0-.063-2.2l-.629-.126-.314,1.32v.126C223.214,365.1,223.529,365.412,223.906,365.726Z" transform="translate(-210.185 -362.205)" fill="#2e3192" opacity="0.2"/>
    </g>
    <g id="Group_436" data-name="Group 436" transform="translate(15.296 10.307)">
      <g id="Group_435" data-name="Group 435">
        <path id="Path_672" data-name="Path 672" d="M197.448,373.487h-.606v2.339h0V376a2.363,2.363,0,0,1-.606,1.126,1.812,1.812,0,0,1-.52.347,2.058,2.058,0,0,1-1.039.26,2.307,2.307,0,0,1-1.039-.26c-.173-.087-.346-.26-.52-.347a2.363,2.363,0,0,1-.606-1.126v-.173h0v-.173a2.354,2.354,0,0,1,0-.78V373.4H191.9c-1.386,3.984-.433,5.8,2.858,5.89C197.881,379.29,198.834,377.471,197.448,373.487Z" transform="translate(-191.111 -373.4)" fill="#b5bcdf"/>
        <path id="Path_673" data-name="Path 673" d="M191.7,409.89h.606v-2.339h0v-.173a2.364,2.364,0,0,1,.606-1.126,1.812,1.812,0,0,1,.52-.346,2.057,2.057,0,0,1,1.039-.26,2.306,2.306,0,0,1,1.039.26c.173.087.346.26.52.346a2.364,2.364,0,0,1,.606,1.126v.173h0v.087a2.355,2.355,0,0,1,0,.78v1.473h.606c1.386-3.984.433-5.8-2.858-5.89C191.271,404,190.318,405.906,191.7,409.89Z" transform="translate(-191.084 -377.495)" fill="#b5bcdf"/>
        <path id="Path_674" data-name="Path 674" d="M196.258,401.747a.373.373,0,0,1-.346.346h-2.165a.373.373,0,0,1-.346-.346v-22a.373.373,0,0,1,.346-.346h2.165a.373.373,0,0,1,.346.346Z" transform="translate(-191.394 -374.203)" fill="#b5bcdf"/>
      </g>
      <path id="Path_675" data-name="Path 675" d="M196.744,374.7h0v1.039h0v.173a2.363,2.363,0,0,1-.606,1.126,1.811,1.811,0,0,1-.52.346,2.057,2.057,0,0,1-1.039.26,2.307,2.307,0,0,1-1.039-.26c-.173-.087-.346-.26-.52-.346a2.364,2.364,0,0,1-.606-1.126v-.173h0v-.087a2.354,2.354,0,0,1,0-.78V373.4h-.606c-1.126,3.378-.693,5.2,1.386,5.717v.346c.346.26.78.433,1.126.693.606.346,1.126.693,1.732,1.039v-2.079c1.646-.433,2.339-1.646,1.906-3.811C197.523,375.132,197.177,374.872,196.744,374.7Z" transform="translate(-191.099 -373.4)" fill="#2e3192" opacity="0.2"/>
      <path id="Path_676" data-name="Path 676" d="M191.4,409.6a4.885,4.885,0,0,0,.346,1.039h.606v-.52C192.006,409.946,191.746,409.773,191.4,409.6Z" transform="translate(-191.126 -378.245)" fill="#2e3192" opacity="0.2"/>
      <path id="Path_677" data-name="Path 677" d="M194.08,402.258c1.386.866,2.772,1.646,4.158,2.425a2.522,2.522,0,0,0-2.079-2.772V388.919c-.693-.433-1.386-.866-2.165-1.386a4.839,4.839,0,0,1-.693-.433v14.725A3.117,3.117,0,0,1,194.08,402.258Z" transform="translate(-191.38 -375.233)" fill="#2e3192" opacity="0.2"/>
    </g>
    <g id="Group_439" data-name="Group 439" transform="translate(32.692 13.772)">
      <g id="Group_437" data-name="Group 437">
        <path id="Path_678" data-name="Path 678" d="M227.188,379.392l-.433-.26-.433.953v.087l-.26.52v.087h0l-.087.087a1.588,1.588,0,0,1-.866.606,1.1,1.1,0,0,1-.52.087,1.561,1.561,0,0,1-.866-.173,3.617,3.617,0,0,1-.693-.52,1.893,1.893,0,0,0-.26-.433,2.133,2.133,0,0,1-.087-1.039v-.087h0v-.087l.26-.52.087-.087.433-.953-.433-.26c-2.425,2.425-2.252,4.158.087,5.284S226.842,382.77,227.188,379.392Z" transform="translate(-212.521 -377.4)" fill="#b5bcdf"/>
        <path id="Path_679" data-name="Path 679" d="M215.779,399.737a.346.346,0,0,1-.346.173l-1.559-.693a.346.346,0,0,1-.173-.346l7.536-16.2a.346.346,0,0,1,.346-.173l1.559.693a.346.346,0,0,1,.173.346Z" transform="translate(-211.506 -378.082)" fill="#b5bcdf"/>
        <path id="Path_680" data-name="Path 680" d="M214.487,401.569a2.344,2.344,0,1,0,1.126,3.118A2.247,2.247,0,0,0,214.487,401.569Zm-1.646,3.551a1.57,1.57,0,1,1,2.079-.78A1.588,1.588,0,0,1,212.841,405.12Z" transform="translate(-211.166 -380.607)" fill="#b5bcdf"/>
      </g>
      <g id="Group_438" data-name="Group 438" transform="translate(0 1.732)">
        <path id="Path_681" data-name="Path 681" d="M226.9,380.7c.173.26.346.433.52.693,0,.087.087.087.087.173a9.437,9.437,0,0,0,.346-1.906l-.433-.26-.433.953v.087C226.987,380.526,226.9,380.613,226.9,380.7Z" transform="translate(-213.272 -379.4)" fill="#2e3192" opacity="0.2"/>
        <path id="Path_682" data-name="Path 682" d="M221.291,383.6,218,390.7c.52.78.953,1.559,1.472,2.339l3.378-7.362C222.417,384.986,221.811,384.293,221.291,383.6Z" transform="translate(-212.081 -379.962)" fill="#2e3192" opacity="0.2"/>
        <path id="Path_683" data-name="Path 683" d="M215.44,401.911h0l.693-1.472c-.52-.78-.953-1.559-1.472-2.339l-1.3,2.858h0a2.5,2.5,0,0,0-1.992,1.386,2.346,2.346,0,1,0,4.071-.433Zm-2.6,2.772a1.57,1.57,0,1,1,2.079-.78A1.588,1.588,0,0,1,212.841,404.683Z" transform="translate(-211.167 -381.903)" fill="#2e3192" opacity="0.2"/>
      </g>
    </g>
    <g id="Group_441" data-name="Group 441" transform="translate(34.02 17.549)">
      <g id="Group_440" data-name="Group 440">
        <path id="Path_684" data-name="Path 684" d="M214.161,411.194a.316.316,0,0,1-.433.173l-.26-.173a.316.316,0,0,1-.173-.433l6.756-12.993a.316.316,0,0,1,.433-.173l.26.173a.316.316,0,0,1,.173.433Z" transform="translate(-212.775 -383.875)" fill="#b5bcdf"/>
        <path id="Path_685" data-name="Path 685" d="M224.466,395.047a.316.316,0,0,1-.433.173l-3.465-1.819a.316.316,0,0,1-.173-.433l5.717-11a.316.316,0,0,1,.433-.173l3.465,1.819a.316.316,0,0,1,.173.433Z" transform="translate(-213.725 -381.761)" fill="#2e3192"/>
        <path id="Path_686" data-name="Path 686" d="M223.18,397.78a.316.316,0,0,1-.433.173l-2.079-1.039a.316.316,0,0,1-.173-.433l.606-1.213a.316.316,0,0,1,.433-.173l2.079,1.126a.316.316,0,0,1,.173.433Z" transform="translate(-213.739 -383.541)" fill="#2e3192"/>
        <path id="Path_687" data-name="Path 687" d="M223.669,398.333c.087-.173.087-.346-.087-.433l-3.725-1.906c-.087-.087-.26,0-.346.173l-.52.953c-.087.173-.087.346.087.433l3.725,1.992c.087.087.26,0,.346-.173Z" transform="translate(-213.534 -383.661)" fill="#2e3192"/>
        <path id="Path_688" data-name="Path 688" d="M223.461,393.975a.316.316,0,0,1-.433.173l-.26-.173a.316.316,0,0,1-.173-.433l5.11-9.874a.316.316,0,0,1,.433-.173l.26.173a.316.316,0,0,1,.173.433Z" transform="translate(-214.02 -381.988)" fill="#282660"/>
        <path id="Path_689" data-name="Path 689" d="M225.261,394.975a.316.316,0,0,1-.433.173l-.26-.173a.316.316,0,0,1-.173-.433l5.11-9.874a.316.316,0,0,1,.433-.173l.26.173a.316.316,0,0,1,.173.433Z" transform="translate(-214.261 -382.122)" fill="#282660"/>
        <path id="Path_690" data-name="Path 690" d="M221.461,392.989a.316.316,0,0,1-.433.173l-.26-.173a.316.316,0,0,1-.173-.433l5.11-9.788a.316.316,0,0,1,.433-.173l.26.173a.316.316,0,0,1,.173.433Z" transform="translate(-213.752 -381.868)" fill="#282660"/>
        <path id="Path_691" data-name="Path 691" d="M214.086,413.233l-.26.693-.606.693-.52-.26.173-.953.433-.606Z" transform="translate(-212.7 -385.915)" fill="#b5bcdf"/>
      </g>
      <path id="Path_692" data-name="Path 692" d="M220.509,398.062l1.386.693c-.173-1.039-.26-2.165-.346-3.291-.173-1.559-.26-3.118-.433-4.764l-1.732,3.378a.316.316,0,0,0,.173.433l.52.26-.433.78-.606-.26c-.087-.087-.26,0-.346.173l-.52.953c-.087.173-.087.346.087.433l1.473.78-6.41,12.3-.346.606-.173,1.039.52.26.606-.693.26-.693Z" transform="translate(-212.713 -382.957)" fill="#2e3192" opacity="0.2"/>
    </g>
    <path id="Path_693" data-name="Path 693" d="M223.487,406.733a.776.776,0,0,1-.78.78H178.88a.776.776,0,0,1-.78-.78V394.78a.776.776,0,0,1,.78-.78h43.742a.776.776,0,0,1,.78.78v11.953Z" transform="translate(-174.05 -365.849)" fill="#232325"/>
    <g id="Group_443" data-name="Group 443" transform="translate(6.302 28.93)">
      <g id="Group_442" data-name="Group 442">
        <path id="Path_694" data-name="Path 694" d="M221.583,395.68a.776.776,0,0,0-.78-.78H181.48a.776.776,0,0,0-.78.78v25.812a.776.776,0,0,0,.78.78H220.8a.776.776,0,0,0,.78-.78Z" transform="translate(-180.7 -394.9)" fill="#70bdf1"/>
        <path id="Path_695" data-name="Path 695" d="M218.065,405.17a.776.776,0,0,1-.78.78H215.38a.776.776,0,0,1-.78-.78V400.58a.776.776,0,0,1,.78-.78h1.906a.776.776,0,0,1,.78.78Z" transform="translate(-185.237 -395.556)" fill="#232325"/>
        <path id="Path_696" data-name="Path 696" d="M192.965,405.17a.776.776,0,0,1-.78.78H190.28a.776.776,0,0,1-.78-.78V400.58a.776.776,0,0,1,.78-.78h1.906a.776.776,0,0,1,.78.78Z" transform="translate(-181.878 -395.556)" fill="#232325"/>
      </g>
      <path id="Path_697" data-name="Path 697" d="M189,421.723a.923.923,0,0,1-1.213-.52h0a.923.923,0,0,1,.52-1.213l26.245-11a.923.923,0,0,1,1.213.52h0a.923.923,0,0,1-.52,1.213Z" transform="translate(-181.64 -396.777)" fill="#3492d2"/>
      <path id="Path_698" data-name="Path 698" d="M214.555,421.723a.923.923,0,0,0,1.213-.52h0a.923.923,0,0,0-.52-1.213L189,408.99a.923.923,0,0,0-1.213.52h0a.923.923,0,0,0,.52,1.213Z" transform="translate(-181.64 -396.777)" fill="#3492d2"/>
    </g>
  </g>
</svg>
