<svg xmlns="http://www.w3.org/2000/svg" width="373" height="377.759" viewBox="0 0 373 377.759">
  <g id="Group_9210" data-name="Group 9210" transform="translate(-20.5 -277.241)">
    <ellipse id="Ellipse_266" data-name="Ellipse 266" cx="34" cy="5.5" rx="34" ry="5.5" transform="translate(173 644)" fill="#e6e6e5"/>
    <ellipse id="Ellipse_267" data-name="Ellipse 267" cx="34" cy="5.5" rx="34" ry="5.5" transform="translate(249 623)" fill="#e6e6e5"/>
    <ellipse id="Ellipse_268" data-name="Ellipse 268" cx="34" cy="5.5" rx="34" ry="5.5" transform="translate(304 568)" fill="#e6e6e5"/>
    <ellipse id="Ellipse_269" data-name="Ellipse 269" cx="34" cy="5.5" rx="34" ry="5.5" transform="translate(325 492)" fill="#e6e6e5"/>
    <ellipse id="Ellipse_270" data-name="Ellipse 270" cx="34" cy="5.5" rx="34" ry="5.5" transform="translate(305 417)" fill="#e6e6e5"/>
    <ellipse id="Ellipse_271" data-name="Ellipse 271" cx="34" cy="5.5" rx="34" ry="5.5" transform="translate(250 361)" fill="#e6e6e5"/>
    <ellipse id="Ellipse_272" data-name="Ellipse 272" cx="34" cy="5.5" rx="34" ry="5.5" transform="translate(173 340)" fill="#e6e6e5"/>
    <ellipse id="Ellipse_273" data-name="Ellipse 273" cx="34" cy="5.5" rx="34" ry="5.5" transform="translate(96 361)" fill="#e6e6e5"/>
    <ellipse id="Ellipse_274" data-name="Ellipse 274" cx="34" cy="5.5" rx="34" ry="5.5" transform="translate(42 416)" fill="#e6e6e5"/>
    <ellipse id="Ellipse_275" data-name="Ellipse 275" cx="34" cy="5.5" rx="34" ry="5.5" transform="translate(21 492)" fill="#e6e6e5"/>
    <ellipse id="Ellipse_276" data-name="Ellipse 276" cx="34" cy="5.5" rx="34" ry="5.5" transform="translate(41 568)" fill="#e6e6e5"/>
    <ellipse id="Ellipse_277" data-name="Ellipse 277" cx="34" cy="5.5" rx="34" ry="5.5" transform="translate(97 623)" fill="#e6e6e5"/>
    <g id="Group_9140" data-name="Group 9140" transform="translate(96 297.99)">
      <circle id="Ellipse_253" data-name="Ellipse 253" cx="34.062" cy="34.062" r="34.062" fill="#fff" stroke="#70bdf1" stroke-miterlimit="10" stroke-width="1"/>
      <g id="Group_9139" data-name="Group 9139" transform="translate(15.154 16.226)">
        <path id="Path_10759" data-name="Path 10759" d="M105.79,61.83H85.541A1.344,1.344,0,0,1,84.2,60.489V52.041A1.344,1.344,0,0,1,85.541,50.7H105.79a1.344,1.344,0,0,1,1.341,1.341v8.448A1.344,1.344,0,0,1,105.79,61.83Z" transform="translate(-76.69 -34.474)" fill="#70bdf1"/>
        <g id="Group_9134" data-name="Group 9134" transform="translate(16.897 18.372)">
          <path id="Path_10760" data-name="Path 10760" d="M95.089,52.3H93.346c-.134,0-.134,0-.268.134L91.2,55.921c0,.134,0,.268.134.268h1.743l-1.341,2.816c-.134.134.134.268.268.134l3.353-4.023c.134-.134,0-.268-.134-.268H93.614l1.743-2.28A.263.263,0,0,0,95.089,52.3Z" transform="translate(-91.2 -52.3)" fill="#fff"/>
        </g>
        <g id="Group_9135" data-name="Group 9135" transform="translate(8.851 21.054)">
          <path id="Path_10761" data-name="Path 10761" d="M90.162,54.3H85.468a.288.288,0,0,0-.268.268v.939a.288.288,0,0,0,.268.268h4.694a.288.288,0,0,0,.268-.268v-.939C90.564,54.434,90.43,54.3,90.162,54.3Z" transform="translate(-85.2 -54.3)" fill="#fff"/>
        </g>
        <g id="Group_9136" data-name="Group 9136" transform="translate(23.87 19.177)">
          <path id="Path_10762" data-name="Path 10762" d="M101.362,54.777H99.887V53.3a.356.356,0,0,0-.4-.4h-.8a.356.356,0,0,0-.4.4v1.475H96.8a.356.356,0,0,0-.4.4v.8a.356.356,0,0,0,.4.4h1.475v1.475a.356.356,0,0,0,.4.4h.8a.356.356,0,0,0,.4-.4V56.387h1.475a.356.356,0,0,0,.4-.4v-.8A.356.356,0,0,0,101.362,54.777Z" transform="translate(-96.4 -52.9)" fill="#fff"/>
        </g>
        <path id="Path_10763" data-name="Path 10763" d="M115.478,50.669a1.154,1.154,0,0,0,1.073-1.073V46.512a1.154,1.154,0,0,0-1.073-1.073H112.8V44.5a.633.633,0,0,0-.671-.671h-.4V42.087a.577.577,0,0,0-.536-.536h-2.28a.577.577,0,0,0-.536.536V43.83h-.4a.633.633,0,0,0-.671.671v1.073h-1.609v-5.23a1.775,1.775,0,0,0-1.743-1.743H91.206a1.775,1.775,0,0,0-1.743,1.743v5.23H87.853V44.5a.633.633,0,0,0-.671-.671h-.4V42.087a.577.577,0,0,0-.536-.536h-2.28a.577.577,0,0,0-.536.536V43.83h-.4a.633.633,0,0,0-.671.671v1.073H79.673A1.154,1.154,0,0,0,78.6,46.646V49.73A1.058,1.058,0,0,0,79.673,50.8h.536V69.175h-.536A1.058,1.058,0,0,0,78.6,70.248v3.084a1.058,1.058,0,0,0,1.073,1.073h35.939a1.058,1.058,0,0,0,1.073-1.073V70.248a1.154,1.154,0,0,0-1.073-1.073h-.536V50.669Zm-22.8-8.18a.577.577,0,0,1,.536-.536h8.717a.577.577,0,0,1,.536.536v2.95H92.681Zm-6.705,4.425h4.157a.536.536,0,1,1,0,1.073H85.976a.536.536,0,0,1,0-1.073Zm-2.548,1.073h-.939a.536.536,0,1,1,0-1.073h.939a.536.536,0,1,1,0,1.073Zm26.552,17.3a1.549,1.549,0,0,1-1.609,1.609H86.78a1.549,1.549,0,0,1-1.609-1.609V55.631a1.549,1.549,0,0,1,1.609-1.609h21.59a1.549,1.549,0,0,1,1.609,1.609v9.655Z" transform="translate(-78.6 -38.6)" fill="#162e3f"/>
      </g>
    </g>
    <g id="Group_9145" data-name="Group 9145" transform="translate(250 297.99)">
      <circle id="Ellipse_254" data-name="Ellipse 254" cx="34.062" cy="34.062" r="34.062" fill="#fff" stroke="#70bdf1" stroke-miterlimit="10" stroke-width="1"/>
      <g id="Group_9144" data-name="Group 9144" transform="translate(22.127 12.874)">
        <g id="Group_9142" data-name="Group 9142" transform="translate(13.544)">
          <g id="Group_9141" data-name="Group 9141">
            <path id="Path_10764" data-name="Path 10764" d="M216.139,62.2h-6.3v1.743a3.232,3.232,0,0,0-.536,2.012,3.755,3.755,0,1,0,7.51,0,4.365,4.365,0,0,0-.536-1.877V62.2Zm-3.084,5.1a1.475,1.475,0,1,1,1.475-1.475A1.407,1.407,0,0,1,213.055,67.3Z" transform="translate(-207.959 -27.199)" fill="#70bdf1"/>
            <path id="Path_10765" data-name="Path 10765" d="M209.871,42.939h6.3V41.732a3.079,3.079,0,0,0,.536-1.877,3.755,3.755,0,0,0-7.51,0,5.619,5.619,0,0,0,.536,2.012v1.073Zm3.218-4.559a1.475,1.475,0,1,1-1.475,1.475A1.407,1.407,0,0,1,213.089,38.38Z" transform="translate(-207.993 -36.1)" fill="#70bdf1"/>
            <path id="Path_10766" data-name="Path 10766" d="M218.358,45.587V42.5a.356.356,0,0,0-.4-.4H208.7a.356.356,0,0,0-.4.4v3.084a.356.356,0,0,0,.4.4h1.341c-.671.134-.8,1.207-.134,1.341h0l1.877.8v1.341l-1.341-.536a.722.722,0,0,0-.536,1.341l1.877.8v1.341l-1.341-.536a.693.693,0,0,0-.939.4v.268a.737.737,0,0,0,.4.671l1.877.8v1.341l-1.341-.536a.722.722,0,1,0-.536,1.341l2.012.536v1.341l-1.341-.536a.722.722,0,0,0-.536,1.341l1.877.8v1.341l-1.341-.536a.722.722,0,0,0-.536,1.341l1.877.8v.268h-2.146a.671.671,0,0,0,0,1.341H208.7a.356.356,0,0,0-.4.4v2.816a.356.356,0,0,0,.4.4h9.253a.356.356,0,0,0,.4-.4V64.629a.356.356,0,0,0-.4-.4H216.48a.7.7,0,0,0,.268-1.341h0l-1.877-.8V60.74l1.341.536a.722.722,0,1,0,.536-1.341l-1.877-.671V57.924l1.341.536a.722.722,0,1,0,.536-1.341l-1.877-.8V54.974l1.341.536a.722.722,0,1,0,.536-1.341l-1.877-.8V52.024l1.341.536a.722.722,0,1,0,.536-1.341l-1.877-.671V49.207l1.341.536a.722.722,0,1,0,.536-1.341l-1.877-.8V47.33h2.146a.671.671,0,1,0,0-1.341h1.073C218.224,45.989,218.358,45.855,218.358,45.587Zm-8.583-1.743a.536.536,0,0,1,0-1.073h2.414a.536.536,0,0,1,0,1.073Zm2.414,22.127h-2.414a.536.536,0,0,1,0-1.073h2.414a.536.536,0,0,1,0,1.073Z" transform="translate(-208.3 -34.054)" fill="#162e3f"/>
          </g>
        </g>
        <g id="Group_9143" data-name="Group 9143">
          <path id="Path_10767" data-name="Path 10767" d="M206.139,62.2h-6.3v1.743a3.232,3.232,0,0,0-.536,2.012,3.755,3.755,0,0,0,7.51,0,4.366,4.366,0,0,0-.536-1.877V62.2Zm-3.084,5.1a1.475,1.475,0,1,1,1.475-1.475A1.407,1.407,0,0,1,203.055,67.3Z" transform="translate(-197.825 -27.199)" fill="#70bdf1"/>
          <path id="Path_10768" data-name="Path 10768" d="M199.871,42.939h6.3V41.732a3.079,3.079,0,0,0,.536-1.877,3.755,3.755,0,0,0-7.51,0,5.62,5.62,0,0,0,.536,2.012v1.073Zm3.218-4.559a1.475,1.475,0,1,1-1.475,1.475C201.48,38.916,202.15,38.38,203.089,38.38Z" transform="translate(-197.859 -36.1)" fill="#70bdf1"/>
          <path id="Path_10769" data-name="Path 10769" d="M208.392,45.587V42.5a.356.356,0,0,0-.4-.4h-9.253a.356.356,0,0,0-.4.4v3.084a.356.356,0,0,0,.4.4h1.341c-.671.134-.8,1.207-.134,1.341h0l1.877.8v1.341l-1.341-.536a.722.722,0,0,0-.536,1.341l1.877.8v1.341l-1.341-.536a.693.693,0,0,0-.939.4v.268a.737.737,0,0,0,.4.671l1.877.8v1.341l-1.341-.536a.722.722,0,0,0-.536,1.341l1.877.8v1.341l-1.341-.536a.722.722,0,0,0-.536,1.341l1.877.8v1.341l-1.341-.536a.722.722,0,0,0-.536,1.341l1.877.8v.268h-2.146a.671.671,0,1,0,0,1.341H198.6a.356.356,0,0,0-.4.4v2.816a.356.356,0,0,0,.4.4h9.253a.356.356,0,0,0,.4-.4V64.9a.356.356,0,0,0-.4-.4H206.38a.7.7,0,0,0,.268-1.341h0l-1.877-.8V61.008l1.341.536a.722.722,0,1,0,.536-1.341l-1.877-.671V58.192l1.341.536a.722.722,0,1,0,.536-1.341l-1.877-.8V55.242l1.341.536a.722.722,0,1,0,.536-1.341l-1.877-.8V52.292l1.341.536a.722.722,0,1,0,.536-1.341l-1.877-.671V49.476l1.341.536a.722.722,0,1,0,.536-1.341l-1.877-.8V47.6h2.146a.671.671,0,1,0,0-1.341h1.073C208.258,45.989,208.392,45.855,208.392,45.587Zm-8.583-1.743a.536.536,0,0,1,0-1.073h2.414a.536.536,0,0,1,0,1.073Zm2.414,22.127h-2.414a.536.536,0,0,1,0-1.073h2.414a.577.577,0,0,1,.536.536C202.625,65.7,202.491,65.97,202.223,65.97Z" transform="translate(-198.2 -34.054)" fill="#162e3f"/>
        </g>
      </g>
    </g>
    <g id="Group_9148" data-name="Group 9148" transform="translate(305 353.777)">
      <circle id="Ellipse_255" data-name="Ellipse 255" cx="34.062" cy="34.062" r="34.062" fill="#fff" stroke="#70bdf1" stroke-miterlimit="10" stroke-width="1"/>
      <g id="Group_9147" data-name="Group 9147" transform="translate(12.368 14.382)">
        <g id="Group_9146" data-name="Group 9146" transform="translate(8.015)">
          <path id="Path_10770" data-name="Path 10770" d="M244.993,88.593a10.715,10.715,0,1,1,0,15.154A10.765,10.765,0,0,1,244.993,88.593Zm-.4,6.169a1.475,1.475,0,1,0,1.475,1.475A1.488,1.488,0,0,0,244.591,94.762Zm1.341-5.23a1.422,1.422,0,1,0,2.012,0A1.257,1.257,0,0,0,245.932,89.532Zm6.705-2.816a1.475,1.475,0,1,0,1.475,1.475A1.488,1.488,0,0,0,252.637,86.715Zm6.839,4.828a1.629,1.629,0,0,0,0-2.146,1.422,1.422,0,0,0-2.012,2.012A1.334,1.334,0,0,0,259.476,91.543Zm1.207,6.169a1.475,1.475,0,1,0-1.475-1.475A1.488,1.488,0,0,0,260.683,97.712Zm-1.207,5.23a1.422,1.422,0,1,0-2.012,0A1.251,1.251,0,0,0,259.476,102.942Zm-3.084-3.084a5.215,5.215,0,1,0-7.376,0A5.03,5.03,0,0,0,256.392,99.857Zm-3.755,5.9a1.475,1.475,0,1,0-1.475-1.475A1.488,1.488,0,0,0,252.637,105.758Zm-6.705-2.816a1.422,1.422,0,1,0,0-2.012A1.257,1.257,0,0,0,245.932,102.942Z" transform="translate(-236.813 -76.557)" fill="#162e3f"/>
          <path id="Path_10771" data-name="Path 10771" d="M238.1,110.171l3.084-3.084a3.049,3.049,0,0,0,.536-3.487,11.667,11.667,0,0,1,.268-10.728,3.044,3.044,0,0,0-.536-3.621L238.5,86.3a6.564,6.564,0,0,1,1.609-1.743,19.724,19.724,0,1,1,0,27.893A15.328,15.328,0,0,1,238.1,110.171Zm8.985-26.82c-.671.268-1.207.671-1.877.939a1.008,1.008,0,0,0-.268,1.341,1.04,1.04,0,0,0,1.341.268l1.609-.8a1.1,1.1,0,0,0,.536-1.341A1.042,1.042,0,0,0,247.085,83.351Zm16.495,4.023a.905.905,0,0,0,1.341-.134.9.9,0,0,0-.134-1.341A16.432,16.432,0,0,0,251.51,82.01c-.536.134-.939.536-.8,1.073s.536.939,1.073.8A15.152,15.152,0,0,1,263.579,87.374Zm-1.073,19.579a12.043,12.043,0,1,0-17.031,0A12.06,12.06,0,0,0,262.507,106.953Z" transform="translate(-238.1 -78.825)" fill="#162e3f"/>
          <path id="Path_10772" data-name="Path 10772" d="M248.779,92.379a2.465,2.465,0,1,1,0,3.487A2.51,2.51,0,0,1,248.779,92.379Z" transform="translate(-234.698 -74.443)" fill="#162e3f"/>
        </g>
        <path id="Path_10773" data-name="Path 10773" d="M235.445,108.459a22,22,0,0,1,.4-23.87,1.658,1.658,0,0,1,2.548-.268l4.291,4.291a1.625,1.625,0,0,1,.268,2.012,12.939,12.939,0,0,0-.268,11.935,1.836,1.836,0,0,1-.268,2.012l-4.291,4.291A2.025,2.025,0,0,1,235.445,108.459Zm-.4-15.69a1.209,1.209,0,0,0,.671-.134c.134-.134.134-.134.134-.268.134-.4.134-.8.268-1.207a.636.636,0,0,0-1.207-.4l-.4,1.207C234.506,92.367,234.64,92.769,235.042,92.769Zm.268,9.253a.468.468,0,0,0,.268-.134.59.59,0,0,0,.134-.671,15.846,15.846,0,0,1-.4-6.169.607.607,0,1,0-1.207-.134,21.805,21.805,0,0,0,.536,6.571C234.64,101.888,235.042,102.022,235.311,102.022Z" transform="translate(-232.123 -77.112)" fill="#70bdf1"/>
      </g>
    </g>
    <g id="Group_9152" data-name="Group 9152" transform="translate(324.876 429.813)">
      <circle id="Ellipse_256" data-name="Ellipse 256" cx="34.062" cy="34.062" r="34.062" fill="#fff" stroke="#70bdf1" stroke-miterlimit="10" stroke-width="1"/>
      <g id="Group_9151" data-name="Group 9151" transform="translate(16.863 16.193)">
        <g id="Group_9150" data-name="Group 9150" transform="translate(6.806 6.806)">
          <g id="Group_9149" data-name="Group 9149">
            <path id="Path_10774" data-name="Path 10774" d="M268,146.337a1.017,1.017,0,0,0,.268-.536.7.7,0,0,0-.268-.536.846.846,0,0,0-1.207,0l-8.046,8.046h0a.853.853,0,0,0,1.207,1.207c-.134-.134,6.437-6.571,8.046-8.18Z" transform="translate(-254.527 -140.906)" fill="#70bdf1"/>
            <path id="Path_10775" data-name="Path 10775" d="M266.5,144.871h0a1.006,1.006,0,0,0,0-1.207.846.846,0,0,0-1.207,0l-8.046,8.046a.853.853,0,0,0,1.207,1.207Z" transform="translate(-255.038 -141.452)" fill="#70bdf1"/>
            <path id="Path_10776" data-name="Path 10776" d="M261.358,155.9l8.046-8.046a.853.853,0,1,0-1.207-1.207c-1.073,1.073-2.816,2.816-8.046,8.18a1,1,0,0,0,0,1.207A1.335,1.335,0,0,0,261.358,155.9Z" transform="translate(-254.05 -140.415)" fill="#70bdf1"/>
            <path id="Path_10777" data-name="Path 10777" d="M265,143.358h0a.853.853,0,0,0-1.207-1.207l-8.046,8.046h0a.853.853,0,0,0,1.207,1.207C256.958,151.538,264.468,144.029,265,143.358Z" transform="translate(-255.55 -141.95)" fill="#70bdf1"/>
          </g>
        </g>
        <path id="Path_10778" data-name="Path 10778" d="M263.919,144.016l-5.5-5.5a1.9,1.9,0,0,0-2.682,0l-.268.268-1.609-1.609a.752.752,0,0,0-1.207,0l-1.877,1.877a.752.752,0,0,0,0,1.207l1.609,1.609-.268.268a1.9,1.9,0,0,0,0,2.682l5.364,5.5Zm-11.265-3.353a.408.408,0,0,1-.536,0l-.536-.536a.379.379,0,0,1,.536-.536l.536.536C252.788,140.4,252.788,140.529,252.654,140.663Zm3.084,5.23a.609.609,0,0,1-.671,0l-.268-.268a.609.609,0,0,1,0-.671c.268-.268.536-.268.671,0l.268.268A.609.609,0,0,1,255.738,145.893Zm.536,1.341c-.268-.268-.268-.536,0-.671a.38.38,0,0,1,.671,0l1.207,1.207a.38.38,0,0,1,0,.671c-.268.268-.536.268-.671,0Z" transform="translate(-250.475 -136.875)" fill="#162e3f"/>
        <path id="Path_10779" data-name="Path 10779" d="M281.26,165.281a.648.648,0,0,0-.939,0l-1.609,1.609a2.191,2.191,0,0,1-3.218,0l-.671-.671c.134,0,.134-.134.268-.134l.8-.8a2.181,2.181,0,0,0,3.084-3.084l.8-.8a2.271,2.271,0,0,0,0-3.084l-.939-.939,1.073-1.073a2.51,2.51,0,0,0,0-3.487l-5.23-5.23a2.51,2.51,0,0,0-3.487,0l-9.924,9.924a2.51,2.51,0,0,0,0,3.487l5.23,5.23a2.51,2.51,0,0,0,3.487,0l1.073-1.073.939.939a2.555,2.555,0,0,0,1.341.671l1.207,1.207a3.486,3.486,0,0,0,5.1,0l1.609-1.609A.811.811,0,0,0,281.26,165.281Zm-14.215-2.012a.648.648,0,0,1-.939,0l-2.548-2.548a.664.664,0,0,1,.939-.939l2.548,2.548A.648.648,0,0,1,267.045,163.269Zm3.487-11.533L265.57,156.7a.664.664,0,0,1-.939-.939l4.962-4.962a.648.648,0,0,1,.939,0C270.8,150.932,270.8,151.468,270.532,151.736Z" transform="translate(-247.031 -133.465)" fill="#162e3f"/>
      </g>
    </g>
    <g id="Group_9166" data-name="Group 9166" transform="translate(304.358 505.312)">
      <circle id="Ellipse_257" data-name="Ellipse 257" cx="34.062" cy="34.062" r="34.062" fill="#fff" stroke="#70bdf1" stroke-miterlimit="10" stroke-width="1"/>
      <g id="Group_9165" data-name="Group 9165" transform="translate(16.058 15.154)">
        <path id="Path_10780" data-name="Path 10780" d="M238.9,221.763a2.341,2.341,0,0,0,.536,1.609l2.548,2.414a.816.816,0,0,0,1.073,0l2.548-2.414a3.812,3.812,0,0,0,.536-1.609v-1.341h-.536A1.549,1.549,0,0,1,244,218.813a1.217,1.217,0,0,1,.4-.939,1.523,1.523,0,0,1,1.073-.4h.671v-2.548h-.536A1.725,1.725,0,0,1,244,213.583a1.872,1.872,0,0,1,.4-1.207,1.523,1.523,0,0,1,1.073-.4h.671v-2.548h-.536A1.593,1.593,0,0,1,244,208.084a1.872,1.872,0,0,1,.4-1.207,1.523,1.523,0,0,1,1.073-.4h.671V205H238.9v16.763Z" transform="translate(-233.099 -188.103)" fill="#162e3f"/>
        <path id="Path_10781" data-name="Path 10781" d="M259.669,206.136v2.816a.577.577,0,0,1-.536.536h-5.1a.577.577,0,0,1-.536-.536v-2.816a.577.577,0,0,1,.536-.536h5.1A.577.577,0,0,1,259.669,206.136Z" transform="translate(-228.12 -187.898)" fill="#162e3f"/>
        <path id="Path_10782" data-name="Path 10782" d="M265.586,216h-5.1a.577.577,0,0,0-.536.536v2.816a.577.577,0,0,0,.536.536h5.1a.577.577,0,0,0,.536-.536v-2.816A.577.577,0,0,0,265.586,216Zm0,0h-5.1a.577.577,0,0,0-.536.536v2.816a.577.577,0,0,0,.536.536h5.1a.577.577,0,0,0,.536-.536v-2.816A.577.577,0,0,0,265.586,216ZM244,201.117a1.341,1.341,0,1,0,1.341,1.341A1.344,1.344,0,0,0,244,201.117ZM265.586,216h-5.1a.577.577,0,0,0-.536.536v2.816a.577.577,0,0,0,.536.536h5.1a.577.577,0,0,0,.536-.536v-2.816A.577.577,0,0,0,265.586,216Zm0,0h-5.1a.577.577,0,0,0-.536.536v2.816a.577.577,0,0,0,.536.536h5.1a.577.577,0,0,0,.536-.536v-2.816A.577.577,0,0,0,265.586,216ZM244,201.117a1.341,1.341,0,1,0,1.341,1.341A1.344,1.344,0,0,0,244,201.117Zm-5.9,2.414-.4-2.548a.288.288,0,0,0-.268-.268h0a.288.288,0,0,0-.268.268l.4,2.548a.288.288,0,0,0,.268.268v0A.288.288,0,0,0,238.1,203.53Zm5.9-2.414a1.341,1.341,0,1,0,1.341,1.341A1.344,1.344,0,0,0,244,201.117ZM265.586,216h-5.1a.577.577,0,0,0-.536.536v2.816a.577.577,0,0,0,.536.536h5.1a.577.577,0,0,0,.536-.536v-2.816A.577.577,0,0,0,265.586,216Zm0,0h-5.1a.577.577,0,0,0-.536.536v2.816a.577.577,0,0,0,.536.536h5.1a.577.577,0,0,0,.536-.536v-2.816A.577.577,0,0,0,265.586,216ZM244,201.117a1.341,1.341,0,1,0,1.341,1.341A1.344,1.344,0,0,0,244,201.117Zm-5.9,2.414-.4-2.548a.288.288,0,0,0-.268-.268h0a.288.288,0,0,0-.268.268l.4,2.548a.288.288,0,0,0,.268.268v0A.288.288,0,0,0,238.1,203.53Zm32.453,16.092L266.793,204.6a2.576,2.576,0,0,0-2.414-1.877H262.9a13.817,13.817,0,0,0-4.828-6.437,20.406,20.406,0,0,0-4.023-2.28c-.134,0-.268-.134-.4-.134,0,.134,0,.134.134.268a2.813,2.813,0,0,0-2.548-1.743H237.291a2.716,2.716,0,0,0-2.682,3.084l1.475,10.326a2.744,2.744,0,0,0,2.682,2.414h11a2.533,2.533,0,0,0,2.414-1.475c-2.816-1.877-6.437-5.364-6.839-8.985h-4.694a1.207,1.207,0,1,1,0-2.414h7.242a1.2,1.2,0,0,1,1.207,1.207.9.9,0,0,1-.536.939c.4,1.877,2.146,4.023,4.291,5.632l1.073-7.644v-.536a17.1,17.1,0,0,1,3.621,2.146,12.581,12.581,0,0,1,4.425,5.632h-1.877a2.546,2.546,0,0,0-2.548,2.548v.268a9.228,9.228,0,0,0,1.743.268,2.418,2.418,0,0,0,1.341-.268,1.649,1.649,0,0,1,1.475-.939,1.775,1.775,0,0,1,1.743,1.743,1.682,1.682,0,0,1-.8,1.475,5.29,5.29,0,0,1-3.889,1.341,6.529,6.529,0,0,1-1.609-.134v11.4a2.546,2.546,0,0,0,2.548,2.548h8.18A2.778,2.778,0,0,0,270.548,219.623Zm-33.794-20.518c0-.268.134-.536.4-.536s.536.134.536.4l.134.536c0,.268-.134.536-.4.536h0a.356.356,0,0,1-.4-.4Zm1.073,5.1h0a.614.614,0,0,1-.671-.536l-.4-2.548c0-.4.134-.671.536-.671s.671.134.671.536l.4,2.548C238.5,203.8,238.229,204.067,237.827,204.2ZM244,200.848a1.743,1.743,0,1,1-1.743,1.743A1.775,1.775,0,0,1,244,200.848Zm22.529,18.506a.773.773,0,0,1-.8.8h-5.1a.773.773,0,0,1-.8-.8v-2.816a.773.773,0,0,1,.8-.8h5.1a.773.773,0,0,1,.8.8Zm0-5.9a.773.773,0,0,1-.8.8h-5.1a.773.773,0,0,1-.8-.8v-2.816a.773.773,0,0,1,.8-.8h5.1a.773.773,0,0,1,.8.8ZM265.586,216h-5.1a.577.577,0,0,0-.536.536v2.816a.577.577,0,0,0,.536.536h5.1a.577.577,0,0,0,.536-.536v-2.816A.577.577,0,0,0,265.586,216ZM244,203.933a1.341,1.341,0,1,0-1.341-1.341A1.344,1.344,0,0,0,244,203.933Zm-6.571-3.218h0a.288.288,0,0,0-.268.268l.4,2.548a.288.288,0,0,0,.268.268v0a.288.288,0,0,0,.268-.268l-.4-2.548A.288.288,0,0,0,237.425,200.714Zm.671,2.816-.4-2.548a.288.288,0,0,0-.268-.268h0a.288.288,0,0,0-.268.268l.4,2.548a.288.288,0,0,0,.268.268v0A.288.288,0,0,0,238.1,203.53Zm5.9-2.414a1.341,1.341,0,1,0,1.341,1.341A1.344,1.344,0,0,0,244,201.117ZM265.586,216h-5.1a.577.577,0,0,0-.536.536v2.816a.577.577,0,0,0,.536.536h5.1a.577.577,0,0,0,.536-.536v-2.816A.577.577,0,0,0,265.586,216Zm0,0h-5.1a.577.577,0,0,0-.536.536v2.816a.577.577,0,0,0,.536.536h5.1a.577.577,0,0,0,.536-.536v-2.816A.577.577,0,0,0,265.586,216ZM244,201.117a1.341,1.341,0,1,0,1.341,1.341A1.344,1.344,0,0,0,244,201.117Zm-5.9,2.414-.4-2.548a.288.288,0,0,0-.268-.268h0a.288.288,0,0,0-.268.268l.4,2.548a.288.288,0,0,0,.268.268v0A.288.288,0,0,0,238.1,203.53Zm5.9-2.414a1.341,1.341,0,1,0,1.341,1.341A1.344,1.344,0,0,0,244,201.117ZM265.586,216h-5.1a.577.577,0,0,0-.536.536v2.816a.577.577,0,0,0,.536.536h5.1a.577.577,0,0,0,.536-.536v-2.816A.577.577,0,0,0,265.586,216Zm0,0h-5.1a.577.577,0,0,0-.536.536v2.816a.577.577,0,0,0,.536.536h5.1a.577.577,0,0,0,.536-.536v-2.816A.577.577,0,0,0,265.586,216ZM244,201.117a1.341,1.341,0,1,0,1.341,1.341A1.344,1.344,0,0,0,244,201.117ZM265.586,216h-5.1a.577.577,0,0,0-.536.536v2.816a.577.577,0,0,0,.536.536h5.1a.577.577,0,0,0,.536-.536v-2.816A.577.577,0,0,0,265.586,216Zm0,0h-5.1a.577.577,0,0,0-.536.536v2.816a.577.577,0,0,0,.536.536h5.1a.577.577,0,0,0,.536-.536v-2.816A.577.577,0,0,0,265.586,216Z" transform="translate(-234.574 -192.4)" fill="#162e3f"/>
        <g id="Group_9155" data-name="Group 9155" transform="translate(2.582 8.314)">
          <g id="Group_9154" data-name="Group 9154">
            <g id="Group_9153" data-name="Group 9153">
              <path id="Path_10783" data-name="Path 10783" d="M237.171,201.684v0a.288.288,0,0,1-.268-.268l-.4-2.548a.288.288,0,0,1,.268-.268h0a.288.288,0,0,1,.268.268l.4,2.548A.288.288,0,0,1,237.171,201.684Z" transform="translate(-236.5 -198.6)" fill="#2a7ff6"/>
            </g>
          </g>
        </g>
        <g id="Group_9158" data-name="Group 9158" transform="translate(8.08 8.834)">
          <g id="Group_9157" data-name="Group 9157">
            <g id="Group_9156" data-name="Group 9156">
              <path id="Path_10784" data-name="Path 10784" d="M243.282,200.345A1.341,1.341,0,1,1,241.941,199C242.746,198.87,243.282,199.541,243.282,200.345Z" transform="translate(-240.6 -198.987)" fill="#70bdf1"/>
            </g>
          </g>
        </g>
        <g id="Group_9161" data-name="Group 9161" transform="translate(25.38 23.602)">
          <g id="Group_9160" data-name="Group 9160">
            <g id="Group_9159" data-name="Group 9159">
              <path id="Path_10785" data-name="Path 10785" d="M259.669,210.536v2.816a.577.577,0,0,1-.536.536h-5.1a.577.577,0,0,1-.536-.536v-2.816a.577.577,0,0,1,.536-.536h5.1A.577.577,0,0,1,259.669,210.536Z" transform="translate(-253.5 -210)" fill="#70bdf1"/>
            </g>
          </g>
        </g>
        <g id="Group_9164" data-name="Group 9164" transform="translate(25.38 17.702)">
          <g id="Group_9163" data-name="Group 9163">
            <g id="Group_9162" data-name="Group 9162">
              <path id="Path_10786" data-name="Path 10786" d="M259.669,206.136v2.816a.577.577,0,0,1-.536.536h-5.1a.577.577,0,0,1-.536-.536v-2.816a.577.577,0,0,1,.536-.536h5.1A.577.577,0,0,1,259.669,206.136Z" transform="translate(-253.5 -205.6)" fill="#70bdf1"/>
            </g>
          </g>
        </g>
        <path id="Path_10787" data-name="Path 10787" d="M243.4,195.3c-.268,3.621,3.755,7.778,7.242,9.655,2.682,1.475,6.571,2.682,8.583.671.268-.268.4-.4.4-.536h0c0-.4-.4-.671-.671-.536,0,.134-.134.134-.134.268-1.743,2.012-5.766.536-8.046-.8-2.95-1.743-6.705-5.5-6.437-8.717Z" transform="translate(-231.568 -191.411)" fill="#37404a"/>
      </g>
    </g>
    <g id="Group_9168" data-name="Group 9168" transform="translate(173 277.741)">
      <circle id="Ellipse_258" data-name="Ellipse 258" cx="34.062" cy="34.062" r="34.062" transform="translate(0)" fill="#fff" stroke="#70bdf1" stroke-miterlimit="10" stroke-width="1"/>
      <g id="Group_9167" data-name="Group 9167" transform="translate(14.452 14.282)">
        <path id="Path_10788" data-name="Path 10788" d="M145.064,38.7a5.075,5.075,0,0,0-3.755,1.609,5.342,5.342,0,1,0,3.755-1.609Zm2.146,7.644a3.034,3.034,0,1,1,0-4.291A3,3,0,0,1,147.21,46.344Z" transform="translate(-133.501 -16.372)" fill="#70bdf1"/>
        <path id="Path_10789" data-name="Path 10789" d="M159.77,25.2a3.442,3.442,0,0,0-2.414.939,3.319,3.319,0,1,0,4.694,0A3.141,3.141,0,0,0,159.77,25.2Zm1.475,4.828a2.181,2.181,0,1,1,0-3.084A2.272,2.272,0,0,1,161.245,30.028Z" transform="translate(-127.822 -20.976)" fill="#70bdf1"/>
        <path id="Path_10790" data-name="Path 10790" d="M172.254,24.263a7.391,7.391,0,0,0-9.789-.671L139.8,40.355a11.7,11.7,0,1,0,16.36,16.36l16.763-22.663A7.534,7.534,0,0,0,172.254,24.263Zm-4.291-.536c0-.134.268-.268.4-.268.268.134.671.134.939.268a.257.257,0,0,1,.134.4c0,.134-.134.134-.268.134h-.134c-.268-.134-.536-.134-.8-.268C167.963,24.129,167.829,23.86,167.963,23.726ZM162.6,25.2a6.244,6.244,0,0,1,3.353-1.743c.134,0,.268.134.4.268,0,.134-.134.268-.268.4a6.393,6.393,0,0,0-2.95,1.609,5.934,5.934,0,0,0-1.341,5.9c0,.134,0,.4-.134.4h-.134a.288.288,0,0,1-.268-.268A5.994,5.994,0,0,1,162.6,25.2ZM138.46,51.083c0,.4-.134.671-.536.671h-.134a.891.891,0,0,1-.671-.536A9.488,9.488,0,0,1,139.8,42.9a9.882,9.882,0,0,1,5.1-2.682c.268,0,.671.134.671.536,0,.268-.134.671-.536.671a8.3,8.3,0,0,0-4.425,2.28A9.172,9.172,0,0,0,138.46,51.083Zm12.874,3.487a6.638,6.638,0,1,1,0-9.387A6.481,6.481,0,0,1,151.334,54.57Zm-2.548-13.544a.651.651,0,0,1,.8-.4,8.894,8.894,0,0,1,2.548,1.207.505.505,0,0,1,.134.8.7.7,0,0,1-.536.268.493.493,0,0,1-.4-.134,6.453,6.453,0,0,0-2.146-1.073A.512.512,0,0,1,148.786,41.025Zm9.521,9.253a11.587,11.587,0,0,0-3.353-8.717,11.4,11.4,0,0,0-8.717-3.353l13.41-9.924a7.54,7.54,0,0,0,2.012,6.571A8.051,8.051,0,0,0,168.231,37Zm11.935-17.433a4.552,4.552,0,1,1,0-6.437A4.615,4.615,0,0,1,170.243,32.845Z" transform="translate(-135.077 -22.05)" fill="#162e3f"/>
      </g>
    </g>
    <g id="Group_9171" data-name="Group 9171" transform="translate(97 560.831)">
      <circle id="Ellipse_259" data-name="Ellipse 259" cx="34.062" cy="34.062" r="34.062" fill="#fff" stroke="#70bdf1" stroke-miterlimit="10" stroke-width="1"/>
      <g id="Group_9170" data-name="Group 9170" transform="translate(21.59 13.142)">
        <g id="Group_9169" data-name="Group 9169" transform="translate(7.644 18.238)">
          <path id="Path_10791" data-name="Path 10791" d="M98.987,245.9l-2.28,10.326H89.6L93.087,245.9Z" transform="translate(-89.6 -245.9)" fill="#162e3f"/>
        </g>
        <path id="Path_10792" data-name="Path 10792" d="M104.686,256.612h-1.743a.577.577,0,0,0-.536.536v.939h-1.743v-2.146a1.344,1.344,0,0,0-1.341-1.341H89.8a1.344,1.344,0,0,0-1.341,1.341v2.146H86.716v-.939a.577.577,0,0,0-.536-.536H84.436a.577.577,0,0,0-.536.536v6.705a.577.577,0,0,0,.536.536H86.18a.577.577,0,0,0,.536-.536v-.939h1.743v2.28a1.344,1.344,0,0,0,1.341,1.341h9.521a1.344,1.344,0,0,0,1.341-1.341v-2.28h1.743v.939a.577.577,0,0,0,.536.536h1.743a.577.577,0,0,0,.536-.536v-6.705C105.356,256.88,105.088,256.612,104.686,256.612ZM85.107,260.1a.4.4,0,0,1-.8,0v-1.609a.4.4,0,0,1,.8,0Zm12.069,1.743a2.971,2.971,0,0,1-2.548,1.743,2.622,2.622,0,0,1-2.548-1.743.469.469,0,0,1,.4-.671h4.291C97.042,261.037,97.31,261.439,97.176,261.842Zm-.4-1.609H92.483a.453.453,0,0,1-.4-.671,2.971,2.971,0,0,1,2.548-1.743,2.622,2.622,0,0,1,2.548,1.743A.512.512,0,0,1,96.774,260.232Zm7.107-.134a.4.4,0,0,1-.8,0v-1.609a.4.4,0,0,1,.8,0Z" transform="translate(-83.9 -224.695)" fill="#70bdf1"/>
        <path id="Path_10793" data-name="Path 10793" d="M107.052,238.2a.917.917,0,0,0,.939-.939v-4.023a.917.917,0,0,0-.939-.939H87.339a.917.917,0,0,0-.939.939v4.023a.917.917,0,0,0,.939.939h1.743v1.877H86.8a.356.356,0,0,0-.4.4v1.207a.356.356,0,0,0,.4.4h2.28v1.475H87.339a.917.917,0,0,0-.939.939v8.18a.917.917,0,0,0,.939.939h2.816a1.357,1.357,0,0,0,.939-.536l1.877-3.889h8.583l1.877,3.889a.834.834,0,0,0,.8.536h2.816a.917.917,0,0,0,.939-.939V244.5a.917.917,0,0,0-.939-.939h-1.743v-1.475h2.28a.356.356,0,0,0,.4-.4V240.48a.356.356,0,0,0-.4-.4h-2.28V238.2ZM88.68,234.714h-.4a.536.536,0,1,1,0-1.073h.4a.536.536,0,1,1,0,1.073Zm.268,11.265h-.4a.536.536,0,1,1,0-1.073h.268a.577.577,0,0,1,.536.536C89.35,245.71,89.216,245.978,88.948,245.978Zm4.157,0h-2.28a.536.536,0,1,1,0-1.073h2.28a.577.577,0,0,1,.536.536A.491.491,0,0,1,93.105,245.978Zm1.475-11.265H91.094a.536.536,0,1,1,0-1.073H94.58a.536.536,0,1,1,0,1.073Zm2.548,13.008a1.475,1.475,0,1,1,1.475-1.475A1.338,1.338,0,0,1,97.128,247.722Z" transform="translate(-83.047 -232.3)" fill="#162e3f"/>
      </g>
    </g>
    <g id="Group_9174" data-name="Group 9174" transform="translate(41 505.312)">
      <circle id="Ellipse_260" data-name="Ellipse 260" cx="34.062" cy="34.062" r="34.062" fill="#fff" stroke="#70bdf1" stroke-miterlimit="10" stroke-width="1"/>
      <g id="Group_9173" data-name="Group 9173" transform="translate(20.249 15.019)">
        <g id="Group_9172" data-name="Group 9172">
          <rect id="Rectangle_17447" data-name="Rectangle 17447" width="4.157" height="1.341" transform="translate(0 21.054)" fill="#162e3f"/>
          <rect id="Rectangle_17448" data-name="Rectangle 17448" width="4.157" height="1.341" transform="translate(0 15.556)" fill="#162e3f"/>
          <rect id="Rectangle_17449" data-name="Rectangle 17449" width="4.157" height="1.877" transform="translate(0 18.104)" fill="#162e3f"/>
          <rect id="Rectangle_17450" data-name="Rectangle 17450" width="4.157" height="1.877" transform="translate(0 23.602)" fill="#162e3f"/>
          <path id="Path_10794" data-name="Path 10794" d="M67.984,208.526l-7.644-9.253a4.325,4.325,0,0,0-3.487-1.609H54.306v-.671h.268a.288.288,0,0,0,.268-.268v-.8a.288.288,0,0,0-.268-.268H54.44V193.1a.773.773,0,0,0-.8-.8H48.271a.773.773,0,0,0-.8.8v2.548h-.134a.288.288,0,0,0-.268.268v.671a.288.288,0,0,0,.268.268H47.6v.671H46.125a4.379,4.379,0,0,0-4.425,4.425v4.559h4.157V205.04a3.32,3.32,0,0,1,3.353-3.353h6.3a3.376,3.376,0,0,1,2.682,1.207l5.9,7.242a3.288,3.288,0,0,1,.8,2.146v10.326a3.32,3.32,0,0,1-3.353,3.353h-12.2a3.32,3.32,0,0,1-3.353-3.353V221.4H41.834v4.559a4.465,4.465,0,0,0,4.425,4.425H64.632a4.379,4.379,0,0,0,4.425-4.425V211.343A4.328,4.328,0,0,0,67.984,208.526ZM53.1,193.239a.268.268,0,0,1,.536,0v1.073a.268.268,0,0,1-.536,0Zm-1.341,0a.268.268,0,1,1,.536,0v1.073a.268.268,0,0,1-.536,0Zm-1.207,0a.268.268,0,1,1,.536,0v1.073a.268.268,0,0,1-.536,0Zm-1.207,0a.268.268,0,1,1,.536,0v1.073a.268.268,0,0,1-.536,0Zm-1.207,0a.268.268,0,1,1,.536,0v1.073a.268.268,0,0,1-.536,0Z" transform="translate(-41.566 -192.3)" fill="#162e3f"/>
          <rect id="Rectangle_17451" data-name="Rectangle 17451" width="4.157" height="1.341" transform="translate(0 26.552)" fill="#162e3f"/>
        </g>
        <path id="Path_10795" data-name="Path 10795" d="M60.083,222.259a2.118,2.118,0,0,0,2.146-2.146V209.787a1.722,1.722,0,0,0-.536-1.341l-5.9-7.242a2.162,2.162,0,0,0-1.743-.8h-6.3a2.118,2.118,0,0,0-2.146,2.146v17.7a2.118,2.118,0,0,0,2.146,2.146H60.083Zm-8.448-19.713a.877.877,0,0,1,1.475,0c.8,1.207,2.146,3.218,2.146,4.291a2.816,2.816,0,1,1-5.632,0C49.489,205.764,50.83,203.753,51.635,202.546Zm-3.084,9.521h11a.671.671,0,1,1,0,1.341h-11a.633.633,0,0,1-.671-.671A.718.718,0,0,1,48.55,212.067Zm0,3.218h11a.671.671,0,1,1,0,1.341h-11a.633.633,0,0,1-.671-.671A.718.718,0,0,1,48.55,215.285Zm0,3.353h11a.633.633,0,0,1,.671.671.718.718,0,0,1-.671.671h-11a.671.671,0,1,1,0-1.341Z" transform="translate(-40.236 -189.538)" fill="#70bdf1"/>
      </g>
    </g>
    <g id="Group_9179" data-name="Group 9179" transform="translate(21 429.813)">
      <circle id="Ellipse_261" data-name="Ellipse 261" cx="34.062" cy="34.062" r="34.062" fill="#fff" stroke="#70bdf1" stroke-miterlimit="10" stroke-width="1"/>
      <g id="Group_9175" data-name="Group 9175" transform="translate(15.958 15.69)">
        <path id="Path_10796" data-name="Path 10796" d="M29.909,142.607a.493.493,0,0,1-.4-.134L28.3,141.4v2.548h0l1.475,1.341,1.475-1.341h0V141.4l-1.207,1.073C30.177,142.607,30.043,142.607,29.909,142.607Z" transform="translate(-21.461 -134.829)" fill="#162e3f"/>
        <path id="Path_10797" data-name="Path 10797" d="M29.909,139.707a.493.493,0,0,1-.4-.134L28.3,138.5v2.548h0l1.475,1.341,1.475-1.341h0V138.5l-1.207,1.073C30.177,139.707,30.043,139.707,29.909,139.707Z" transform="translate(-21.461 -135.818)" fill="#162e3f"/>
        <path id="Path_10798" data-name="Path 10798" d="M29.909,160.407a.493.493,0,0,1-.4-.134L28.3,159.2v2.548h0l1.475,1.341,1.475-1.341h0V159.2l-1.207,1.073C30.177,160.273,30.043,160.407,29.909,160.407Z" transform="translate(-21.461 -128.759)" fill="#162e3f"/>
        <path id="Path_10799" data-name="Path 10799" d="M29.909,145.607a.493.493,0,0,1-.4-.134L28.3,144.4v2.548h0l1.475,1.341,1.475-1.341h0V144.4l-1.207,1.073C30.177,145.607,30.043,145.607,29.909,145.607Z" transform="translate(-21.461 -133.806)" fill="#162e3f"/>
        <path id="Path_10800" data-name="Path 10800" d="M24.273,137.975a4.418,4.418,0,0,0-1.073,2.95v27.893a4.686,4.686,0,0,0,1.073,2.95,4.358,4.358,0,0,0,3.353,1.475h1.609V136.5H27.625A4.358,4.358,0,0,0,24.273,137.975Zm3.889,32.319a.288.288,0,0,1-.268.268H25.212a.288.288,0,0,1-.268-.268v-.939a.288.288,0,0,1,.268-.268h2.682a.288.288,0,0,1,.268.268Zm0-2.95a.288.288,0,0,1-.268.268H25.212a.288.288,0,0,1-.268-.268V166.4a.288.288,0,0,1,.268-.268h2.682a.288.288,0,0,1,.268.268Zm0-3.084a.288.288,0,0,1-.268.268H25.212a.288.288,0,0,1-.268-.268v-.939a.288.288,0,0,1,.268-.268h2.682a.288.288,0,0,1,.268.268Zm0-2.95a.288.288,0,0,1-.268.268H25.212a.288.288,0,0,1-.268-.268v-.939a.288.288,0,0,1,.268-.268h2.682a.288.288,0,0,1,.268.268Zm0-2.95a.288.288,0,0,1-.268.268H25.212a.288.288,0,0,1-.268-.268v-.939a.288.288,0,0,1,.268-.268h2.682a.288.288,0,0,1,.268.268Zm0-2.95a.288.288,0,0,1-.268.268H25.212a.288.288,0,0,1-.268-.268v-.939a.288.288,0,0,1,.268-.268h2.682a.288.288,0,0,1,.268.268Zm0-3.084a.288.288,0,0,1-.268.268H25.212a.288.288,0,0,1-.268-.268v-.939a.288.288,0,0,1,.268-.268h2.682a.288.288,0,0,1,.268.268Zm0-2.95a.288.288,0,0,1-.268.268H25.212a.288.288,0,0,1-.268-.268v-.939a.288.288,0,0,1,.268-.268h2.682a.288.288,0,0,1,.268.268Zm0-2.95a.288.288,0,0,1-.268.268H25.212a.288.288,0,0,1-.268-.268v-.939a.288.288,0,0,1,.268-.268h2.682a.288.288,0,0,1,.268.268Zm0-3.084a.288.288,0,0,1-.268.268H25.212a.288.288,0,0,1-.268-.268V142.4a.288.288,0,0,1,.268-.268h2.682a.288.288,0,0,1,.268.268Zm0-3.889v.939a.288.288,0,0,1-.268.268H25.212a.288.288,0,0,1-.268-.268v-.939a.288.288,0,0,1,.268-.268h2.682A.288.288,0,0,1,28.162,139.45Z" transform="translate(-23.2 -136.5)" fill="#162e3f"/>
        <path id="Path_10801" data-name="Path 10801" d="M29.909,157.407a.493.493,0,0,1-.4-.134L28.3,156.2v2.548h0l1.475,1.341,1.475-1.341h0V156.2l-1.207,1.073C30.177,157.407,30.043,157.407,29.909,157.407Z" transform="translate(-21.461 -129.782)" fill="#162e3f"/>
        <path id="Path_10802" data-name="Path 10802" d="M29.909,148.607a.493.493,0,0,1-.4-.134L28.3,147.4v2.548h0l1.475,1.341,1.475-1.341h0V147.4l-1.207,1.073C30.177,148.473,30.043,148.607,29.909,148.607Z" transform="translate(-21.461 -132.783)" fill="#162e3f"/>
        <path id="Path_10803" data-name="Path 10803" d="M28.434,137.707h0l1.475,1.341,1.475-1.341h0V136.5H28.3v1.207Z" transform="translate(-21.461 -136.5)" fill="#162e3f"/>
        <path id="Path_10804" data-name="Path 10804" d="M29.909,154.507a.493.493,0,0,1-.4-.134L28.3,153.3v2.548h0l1.475,1.341,1.475-1.341h0V153.3l-1.207,1.073C30.177,154.373,30.043,154.507,29.909,154.507Z" transform="translate(-21.461 -130.771)" fill="#162e3f"/>
        <path id="Path_10805" data-name="Path 10805" d="M29.909,163.307a.493.493,0,0,1-.4-.134L28.3,162.1v2.28h3.084V162.1l-1.207,1.073C30.177,163.307,30.043,163.307,29.909,163.307Z" transform="translate(-21.461 -127.77)" fill="#162e3f"/>
        <path id="Path_10806" data-name="Path 10806" d="M29.909,151.507a.493.493,0,0,1-.4-.134L28.3,150.3v2.548h0l1.475,1.341,1.475-1.341h0V150.3l-1.207,1.073C30.177,151.507,30.043,151.507,29.909,151.507Z" transform="translate(-21.461 -131.794)" fill="#162e3f"/>
        <path id="Path_10807" data-name="Path 10807" d="M45.615,153.095v.939a.917.917,0,0,0,.939.939h.4v1.207a.633.633,0,0,0,.671.671h.134v10.728a1.207,1.207,0,0,1-2.414,0v-3.755a2.816,2.816,0,1,0-5.632,0v3.353a.577.577,0,0,1-.536.536H37.435V141.025a4.686,4.686,0,0,0-1.073-2.95,4.358,4.358,0,0,0-3.353-1.475H31.4v36.744h1.609a4.358,4.358,0,0,0,3.353-1.475,4.967,4.967,0,0,0,1.073-2.414h1.877a2.35,2.35,0,0,0,2.28-2.28v-3.353a1.073,1.073,0,0,1,2.146,0v3.755a2.95,2.95,0,1,0,5.9,0V156.849h.134a.633.633,0,0,0,.671-.671v-1.207h.268a.917.917,0,0,0,.939-.939v-.939a10.209,10.209,0,0,1-2.816.4A7.842,7.842,0,0,1,45.615,153.095ZM35.423,170.26a.288.288,0,0,1-.268.268H32.473a.288.288,0,0,1-.268-.268v-.939a.288.288,0,0,1,.268-.268h2.682a.288.288,0,0,1,.268.268Zm0-2.95a.288.288,0,0,1-.268.268H32.473a.288.288,0,0,1-.268-.268v-.939a.288.288,0,0,1,.268-.268h2.682a.288.288,0,0,1,.268.268Zm0-3.084a.288.288,0,0,1-.268.268H32.473a.288.288,0,0,1-.268-.268v-.939a.288.288,0,0,1,.268-.268h2.682a.288.288,0,0,1,.268.268Zm0-2.95a.288.288,0,0,1-.268.268H32.473a.288.288,0,0,1-.268-.268v-.939a.288.288,0,0,1,.268-.268h2.682a.288.288,0,0,1,.268.268Zm0-2.95a.288.288,0,0,1-.268.268H32.473a.288.288,0,0,1-.268-.268v-.939a.288.288,0,0,1,.268-.268h2.682a.288.288,0,0,1,.268.268Zm0-2.95a.288.288,0,0,1-.268.268H32.473a.288.288,0,0,1-.268-.268v-.939a.288.288,0,0,1,.268-.268h2.682a.288.288,0,0,1,.268.268Zm0-3.084a.288.288,0,0,1-.268.268H32.473a.288.288,0,0,1-.268-.268v-.939a.288.288,0,0,1,.268-.268h2.682a.288.288,0,0,1,.268.268Zm0-2.95a.288.288,0,0,1-.268.268H32.473a.288.288,0,0,1-.268-.268V148.4a.288.288,0,0,1,.268-.268h2.682a.288.288,0,0,1,.268.268Zm0-2.95a.288.288,0,0,1-.268.268H32.473a.288.288,0,0,1-.268-.268v-.939a.288.288,0,0,1,.268-.268h2.682a.288.288,0,0,1,.268.268Zm0-3.084a.288.288,0,0,1-.268.268H32.473a.288.288,0,0,1-.268-.268v-.939a.288.288,0,0,1,.268-.268h2.682a.288.288,0,0,1,.268.268Zm0-2.95a.288.288,0,0,1-.268.268H32.473a.288.288,0,0,1-.268-.268v-.939a.288.288,0,0,1,.268-.268h2.682a.288.288,0,0,1,.268.268Zm5.364,26.016a.268.268,0,0,1-.536,0v-2.146a.268.268,0,0,1,.536,0Zm3.889.671a.268.268,0,0,1-.536,0v-2.95a.268.268,0,1,1,.536,0Zm4.157-.536a.268.268,0,0,1-.536,0v-3.621a.268.268,0,0,1,.536,0Zm0-5.632v.671a.268.268,0,0,1-.536,0v-.671a.268.268,0,0,1,.536,0Z" transform="translate(-20.404 -136.466)" fill="#162e3f"/>
      </g>
      <g id="Group_9176" data-name="Group 9176" transform="translate(36.073 15.556)">
        <path id="Path_10808" data-name="Path 10808" d="M46.246,136.4a8.046,8.046,0,1,0,8.046,8.046A8.158,8.158,0,0,0,46.246,136.4Zm-.8.8a5.805,5.805,0,0,1,2.146.134.268.268,0,0,1,0,.536h0a10.149,10.149,0,0,0-2.012-.134.288.288,0,0,1-.268-.268C45.173,137.339,45.307,137.2,45.442,137.2Zm-5.5,10.326h0c-.268,0-.268,0-.4-.134a7.848,7.848,0,0,1-.671-2.95,6.938,6.938,0,0,1,4.023-6.437c.134-.134.268,0,.4.134s0,.268-.134.4a6.738,6.738,0,0,0-3.621,6.035,6,6,0,0,0,.536,2.682C40.077,147.4,40.077,147.53,39.943,147.53Zm6.3,2.816a5.9,5.9,0,1,1,5.9-5.9A5.866,5.866,0,0,1,46.246,150.347Z" transform="translate(-38.2 -136.4)" fill="#70bdf1"/>
        <path id="Path_10809" data-name="Path 10809" d="M44.48,144.187a.853.853,0,1,0,1.207-1.207.985.985,0,0,0-.8-.268L42.334,140.7a.131.131,0,0,0-.134.134l2.012,2.548A.985.985,0,0,0,44.48,144.187Zm.268-.939a.379.379,0,1,1,0,.536A.408.408,0,0,1,44.748,143.248Z" transform="translate(-36.836 -134.934)" fill="#2a7ff6"/>
        <path id="Path_10810" data-name="Path 10810" d="M45.816,144.7H43.268a.288.288,0,0,0-.268.268v.939a.288.288,0,0,0,.268.268h2.548a.288.288,0,0,0,.268-.268v-.939A.288.288,0,0,0,45.816,144.7Z" transform="translate(-36.563 -133.569)" fill="#2a7ff6"/>
        <path id="Path_10811" data-name="Path 10811" d="M44.268,139.707a.288.288,0,0,0,.268-.268v-.671a.268.268,0,0,0-.536,0v.671A.288.288,0,0,0,44.268,139.707Z" transform="translate(-36.222 -135.684)" fill="#2a7ff6"/>
        <path id="Path_10812" data-name="Path 10812" d="M42.771,140.073a.493.493,0,0,0,.134-.4l-.268-.536a.3.3,0,1,0-.536.268l.268.536A.493.493,0,0,0,42.771,140.073Z" transform="translate(-36.87 -135.513)" fill="#2a7ff6"/>
        <path id="Path_10813" data-name="Path 10813" d="M41.653,140.682l-.536-.268c-.134-.134-.268,0-.4.134s0,.268.134.4l.536.268c.134.134.268,0,.4-.134S41.787,140.816,41.653,140.682Z" transform="translate(-37.362 -135.05)" fill="#2a7ff6"/>
        <path id="Path_10814" data-name="Path 10814" d="M41.407,142.468a.288.288,0,0,0-.268-.268h-.671a.268.268,0,1,0,0,.536h.671A.288.288,0,0,0,41.407,142.468Z" transform="translate(-37.518 -134.422)" fill="#2a7ff6"/>
        <path id="Path_10815" data-name="Path 10815" d="M41.371,143.914l-.536.268a.3.3,0,0,0,.268.536l.536-.268a.493.493,0,0,0,.134-.4A.257.257,0,0,0,41.371,143.914Z" transform="translate(-37.347 -133.856)" fill="#2a7ff6"/>
        <path id="Path_10816" data-name="Path 10816" d="M47.753,144.182l-.536-.268c-.134-.134-.268,0-.4.134s0,.268.134.4l.536.268c.134.134.268,0,.4-.134A.493.493,0,0,0,47.753,144.182Z" transform="translate(-35.281 -133.856)" fill="#2a7ff6"/>
        <path id="Path_10817" data-name="Path 10817" d="M48.139,142.2h-.671a.268.268,0,1,0,0,.536h.671a.268.268,0,1,0,0-.536Z" transform="translate(-35.131 -134.422)" fill="#2a7ff6"/>
        <path id="Path_10818" data-name="Path 10818" d="M47.2,141.2l.536-.268a.3.3,0,0,0-.268-.536l-.536.268a.3.3,0,0,0,.268.536Z" transform="translate(-35.267 -135.036)" fill="#2a7ff6"/>
        <path id="Path_10819" data-name="Path 10819" d="M46.285,139.014c-.134-.134-.268,0-.4.134l-.268.536c-.134.134,0,.268.134.4s.268,0,.4-.134l.268-.536C46.553,139.282,46.419,139.148,46.285,139.014Z" transform="translate(-35.691 -135.527)" fill="#2a7ff6"/>
      </g>
    </g>
    <g id="Group_9181" data-name="Group 9181" transform="translate(173 581.348)">
      <circle id="Ellipse_262" data-name="Ellipse 262" cx="34.062" cy="34.062" r="34.062" transform="translate(0)" fill="#fff" stroke="#70bdf1" stroke-miterlimit="10" stroke-width="1"/>
      <g id="Group_9180" data-name="Group 9180" transform="translate(13.41 13.544)">
        <path id="Path_10820" data-name="Path 10820" d="M153.481,252.8a14.081,14.081,0,1,0,14.081,14.081A14.079,14.079,0,0,0,153.481,252.8Zm7.51,10.46v3.487a.633.633,0,0,1-.671.671h-6.3V270.5a2.174,2.174,0,0,1,1.609,2.146,2.26,2.26,0,0,1-2.28,2.28,2.35,2.35,0,0,1-2.28-2.28,2.174,2.174,0,0,1,1.609-2.146v-3.084h-5.632V270.5a2.174,2.174,0,0,1,1.609,2.146,2.28,2.28,0,1,1-4.559,0A2.174,2.174,0,0,1,145.7,270.5v-3.755h0V263.26a2.174,2.174,0,0,1-1.609-2.146,2.26,2.26,0,0,1,2.28-2.28,2.261,2.261,0,0,1,.671,4.425v2.816h5.632V263.26a2.174,2.174,0,0,1-1.609-2.146,2.28,2.28,0,1,1,4.559,0,2.174,2.174,0,0,1-1.609,2.146v2.816h5.632V263.26a2.174,2.174,0,0,1-1.609-2.146,2.28,2.28,0,1,1,4.559,0A2.174,2.174,0,0,1,160.99,263.26Z" transform="translate(-132.829 -246.229)" fill="#162e3f"/>
        <path id="Path_10821" data-name="Path 10821" d="M155.152,247.9a20.585,20.585,0,1,0,20.518,20.652A20.661,20.661,0,0,0,155.152,247.9Zm2.95,2.682a21.011,21.011,0,0,1,5.766,2.012.645.645,0,0,1,.268.8c-.134.268-.268.268-.536.268-.134,0-.268,0-.268-.134a15.057,15.057,0,0,0-5.364-1.877c-.4,0-.536-.4-.536-.671S157.834,250.582,158.1,250.582ZM140.4,277.8a.468.468,0,0,0-.268.134.7.7,0,0,1-.536-.268,18.333,18.333,0,0,1-2.548-9.119,18.105,18.105,0,0,1,13.276-17.433.636.636,0,0,1,.4,1.207,16.938,16.938,0,0,0-12.337,16.226,17.866,17.866,0,0,0,2.28,8.583C140.8,277.268,140.669,277.671,140.4,277.8Zm14.751,6.035a15.288,15.288,0,1,1,15.288-15.288A15.281,15.281,0,0,1,155.152,283.839Z" transform="translate(-134.5 -247.9)" fill="#70bdf1"/>
      </g>
    </g>
    <g id="Group_9184" data-name="Group 9184" transform="translate(42 353.643)">
      <circle id="Ellipse_263" data-name="Ellipse 263" cx="34.062" cy="34.062" r="34.062" fill="#fff" stroke="#70bdf1" stroke-miterlimit="10" stroke-width="1"/>
      <g id="Group_9183" data-name="Group 9183" transform="translate(12.472 17.97)">
        <g id="Group_9182" data-name="Group 9182" transform="translate(0 9.387)">
          <path id="Path_10822" data-name="Path 10822" d="M41,89.4H37.107A1.2,1.2,0,0,0,35.9,90.607v2.012a1.2,1.2,0,0,0,1.207,1.207H41Z" transform="translate(-35.9 -88.059)" fill="#162e3f"/>
          <rect id="Rectangle_17452" data-name="Rectangle 17452" width="10.594" height="4.425" transform="translate(16.226 1.341)" fill="#162e3f"/>
          <path id="Path_10823" data-name="Path 10823" d="M68.089,89.4H64.2v4.425h3.889A1.2,1.2,0,0,0,69.3,92.618V90.607A1.2,1.2,0,0,0,68.089,89.4Z" transform="translate(-26.249 -88.059)" fill="#162e3f"/>
          <path id="Path_10824" data-name="Path 10824" d="M41.873,88.4A1.058,1.058,0,0,0,40.8,89.473v4.962a1.058,1.058,0,0,0,1.073,1.073h6.169a1.058,1.058,0,0,0,1.073-1.073V89.473A1.058,1.058,0,0,0,48.042,88.4Zm2.146,2.146H43.08v1.341a.536.536,0,1,1-1.073,0V90.009a.577.577,0,0,1,.536-.536h1.475a.577.577,0,0,1,.536.536C44.421,90.277,44.287,90.546,44.018,90.546Z" transform="translate(-34.229 -88.4)" fill="#162e3f"/>
          <path id="Path_10825" data-name="Path 10825" d="M58.073,88.4A1.058,1.058,0,0,0,57,89.473v4.962a1.058,1.058,0,0,0,1.073,1.073h6.169a1.058,1.058,0,0,0,1.073-1.073V89.473A1.058,1.058,0,0,0,64.242,88.4Zm2.012,2.146h-.939v1.341a.536.536,0,1,1-1.073,0V90.009a.577.577,0,0,1,.536-.536H59.95a.577.577,0,0,1,.536.536C60.621,90.277,60.353,90.546,60.084,90.546Z" transform="translate(-28.704 -88.4)" fill="#162e3f"/>
        </g>
        <path id="Path_10826" data-name="Path 10826" d="M55.332,98.912H53.723V97.3a.356.356,0,0,0-.4-.4H52.114a.356.356,0,0,0-.4.4v1.609H50.1a.356.356,0,0,0-.4.4v1.207a.356.356,0,0,0,.4.4h1.609v1.609a.356.356,0,0,0,.4.4h1.207a.356.356,0,0,0,.4-.4v-1.609h1.609a.356.356,0,0,0,.4-.4V99.314A.356.356,0,0,0,55.332,98.912Z" transform="translate(-31.194 -76.114)" fill="#70bdf1"/>
        <path id="Path_10827" data-name="Path 10827" d="M70.891,95.041H64.723A2.389,2.389,0,0,1,62.577,93.7H51.447A2.389,2.389,0,0,1,49.3,95.041H43.132A2.389,2.389,0,0,1,40.987,93.7H37.5l3.353,13.008a3.584,3.584,0,0,0,3.487,2.682H70.087a3.584,3.584,0,0,0,3.487-2.682L76.926,93.7H73.037A2.389,2.389,0,0,1,70.891,95.041Zm-29.5,2.548-.268-1.073a.636.636,0,1,1,1.207-.4l.268,1.073a.651.651,0,0,1-.4.8h-.134A.469.469,0,0,1,41.389,97.589ZM43.8,105.1h-.134a.684.684,0,0,1-.671-.536l-1.073-4.425a.636.636,0,0,1,1.207-.4l1.073,4.425A.746.746,0,0,1,43.8,105.1Zm13.142,1.207a5.364,5.364,0,1,1,5.364-5.364A5.38,5.38,0,0,1,56.945,106.306Z" transform="translate(-35.354 -77.205)" fill="#162e3f"/>
        <path id="Path_10828" data-name="Path 10828" d="M42.828,89.446H49a2.389,2.389,0,0,1,2.146,1.341h11.13a2.389,2.389,0,0,1,2.146-1.341h6.169a2.389,2.389,0,0,1,2.146,1.341h2.414L72.2,87.032a3.774,3.774,0,0,0-2.816-1.341H63.748V84.082A2.69,2.69,0,0,0,61.066,81.4H52.081A2.69,2.69,0,0,0,49.4,84.082v1.609H43.766a3.774,3.774,0,0,0-2.816,1.341L38,90.787h2.414A3,3,0,0,1,42.828,89.446Zm8.583-5.5a.865.865,0,0,1,.8-.8H61.2a.865.865,0,0,1,.8.8v1.609H51.276V83.948Zm-6.973,3.218h6.705a.671.671,0,1,1,0,1.341H44.437a.633.633,0,0,1-.671-.671A.718.718,0,0,1,44.437,87.166Z" transform="translate(-35.184 -81.4)" fill="#70bdf1"/>
      </g>
    </g>
    <g id="Group_9186" data-name="Group 9186" transform="translate(249 560.831)">
      <circle id="Ellipse_264" data-name="Ellipse 264" cx="34.062" cy="34.062" r="34.062" fill="#fff" stroke="#70bdf1" stroke-miterlimit="10" stroke-width="1"/>
      <g id="Group_9185" data-name="Group 9185" transform="translate(12.337 16.763)">
        <path id="Path_10829" data-name="Path 10829" d="M224.88,256.438a2.686,2.686,0,0,1-.134,3.621,2.884,2.884,0,0,1-3.755.268l-.8-.8,1.073,1.341a2.395,2.395,0,0,1-3.621,2.95l-.268-.4a2.395,2.395,0,0,1-3.621,2.95l-.671-.8c.671.8.4,2.012-.671,2.816a2.608,2.608,0,0,1-3.218-.268,3.191,3.191,0,0,0,.268-4.56,2.648,2.648,0,0,0-1.609-.8,3.524,3.524,0,0,0-.939-2.012,3.124,3.124,0,0,0-2.012-.939,3.575,3.575,0,0,0-.939-1.877,3.232,3.232,0,0,0-2.414-.939,2.8,2.8,0,0,0-.939-1.743,3.661,3.661,0,0,0-3.084-.939c-.536-1.877-.4-3.487-1.073-4.157l-2.95-2.95,8.985-8.985s1.073.939,2.548,2.146a14.631,14.631,0,0,0,1.475.8l-6.169,6.437c-.671.671-2.146,3.353,0,5.5a3.87,3.87,0,0,0,5.5,0l3.218-2.95c1.207.4,6.169,2.146,9.924.536Z" transform="translate(-189.209 -233.909)" fill="#162e3f"/>
        <path id="Path_10830" data-name="Path 10830" d="M208.287,259.862a2.411,2.411,0,0,0-2.146-.536,2.3,2.3,0,0,0-2.95-2.95,2.4,2.4,0,0,0-.536-2.28,2.45,2.45,0,0,0-2.816-.4,2.332,2.332,0,0,0-.536-2.414,2.191,2.191,0,0,0-3.218,0l-.8.671a2.191,2.191,0,0,0,0,3.218,2.157,2.157,0,0,0,2.146.536,2.253,2.253,0,0,0,.268,2.95,2.191,2.191,0,0,0,3.218,0,2.334,2.334,0,0,0,.671,2.012,2.255,2.255,0,0,0,2.548.4,2.023,2.023,0,0,0,3.353,2.012l.671-.536A1.7,1.7,0,0,0,208.287,259.862Z" transform="translate(-188.842 -229.689)" fill="#162e3f"/>
        <path id="Path_10831" data-name="Path 10831" d="M215.984,235l-3.084,3.218,9.924,9.655,3.084-3.218Zm.134,4.291a1.073,1.073,0,0,1,0-2.146,1.073,1.073,0,0,1,0,2.146Z" transform="translate(-182.593 -235)" fill="#162e3f"/>
        <path id="Path_10832" data-name="Path 10832" d="M200.224,235l-9.924,9.655,3.084,3.218,9.924-9.655Zm-.134,4.291a1.073,1.073,0,1,1,0-2.146,1.058,1.058,0,0,1,1.073,1.073A1.154,1.154,0,0,1,200.089,239.291Z" transform="translate(-190.3 -235)" fill="#162e3f"/>
        <path id="Path_10833" data-name="Path 10833" d="M214.558,240.95c-1.341,1.207-4.425-1.341-6.839-.536a5.106,5.106,0,0,0-2.28,1.341l-6.035,6.437a2.845,2.845,0,1,0,4.023,4.023l3.755-3.487c1.743.8,7.242,2.414,10.594.4l4.694,4.828c.4-1.877,0-2.682.671-3.353l3.621-3.621L217.777,238A33.277,33.277,0,0,0,214.558,240.95Z" transform="translate(-187.47 -233.977)" fill="#70bdf1"/>
      </g>
    </g>
    <g id="Group_9187" data-name="Group 9187" transform="translate(134.441 383.276)">
      <path id="Path_10834" data-name="Path 10834" d="M138.612,131.1c.4,5.364-.268,17.97-2.012,22.261,3.889,6.571,10.594,11.4,17.165,11.4s13.276-4.828,17.165-11.4c-1.609-4.425-2.414-16.9-2.012-22.261Z" transform="translate(-82.011 -76.115)" fill="#f1b581"/>
      <path id="Path_10835" data-name="Path 10835" d="M168.675,138.243c-3.487,6.705-8.583,11.265-15.288,11.265s-11.667-4.694-15.288-11.265a8.248,8.248,0,0,1,.134-1.743c3.487,6.571,8.448,11.4,15.154,11.4s11.667-4.694,15.288-11.4C168.675,137.171,168.675,137.707,168.675,138.243Z" transform="translate(-81.499 -74.274)" fill="#c7864f"/>
      <path id="Path_10836" data-name="Path 10836" d="M168.821,116.13c-.134.536-1.743.8-3.084.268-.8-.268,2.012-5.5,2.012-5.5l1.073,3.218Z" transform="translate(-72.124 -83.004)" fill="#1a2e69"/>
      <path id="Path_10837" data-name="Path 10837" d="M131,116.13c.134.536,1.743.8,3.084.268.8-.268-2.012-5.5-2.012-5.5L131,114.118Z" transform="translate(-83.92 -83.004)" fill="#1a2e69"/>
      <path id="Path_10838" data-name="Path 10838" d="M166.148,118.034c2.146-3.621,5.1-2.816,4.023,4.425-.4,3.621-4.023,13.813-6.571,8.717A119.284,119.284,0,0,1,166.148,118.034Z" transform="translate(-72.803 -81.287)" fill="#f1b581"/>
      <path id="Path_10839" data-name="Path 10839" d="M134.6,118.034c-2.146-3.621-5.1-2.816-4.157,4.425.4,3.621,4.023,13.813,6.571,8.717A93.784,93.784,0,0,0,134.6,118.034Z" transform="translate(-84.171 -81.287)" fill="#f1b581"/>
      <path id="Path_10840" data-name="Path 10840" d="M155.239,160.96c14.483,0,20.652-21.725,21.993-37.951.671-9.655-5.364-24.809-21.993-24.809s-22.8,15.019-22.127,24.809C134.319,139.5,140.488,160.96,155.239,160.96Z" transform="translate(-83.217 -87.335)" fill="#f1b581"/>
      <path id="Path_10841" data-name="Path 10841" d="M163.076,102.344c-.939,3.084-1.609,7.778-.536,10.46.939,2.682,2.548,3.621,2.28,4.828-.268,1.073-1.207,3.487-.939,5.9s1.207,2.682,1.207,5.1c.134,2.414-.268,3.621.134,4.694.671-1.207.536-4.962.8-6.437.268-1.609,1.877-3.218,2.548-5.632a27.63,27.63,0,0,0,.939-8.851c-.134-4.425-.536-9.521-2.816-12.069C165.758,99.26,163.747,99.8,163.076,102.344Z" transform="translate(-73.352 -86.786)" fill="#0e0e0e"/>
      <path id="Path_10842" data-name="Path 10842" d="M137.879,102.344c.939,3.084,1.609,7.778.536,10.46-.939,2.682-2.548,3.621-2.414,4.828.134,1.073,1.207,3.487.939,5.9s-1.207,2.682-1.207,5.1c-.134,2.414.268,3.621-.134,4.694-.671-1.207-.536-4.962-.8-6.437-.268-1.609-1.877-3.218-2.548-5.632a27.63,27.63,0,0,1-.939-8.851c.134-4.425.536-9.521,2.816-12.069C135.063,99.26,137.209,99.8,137.879,102.344Z" transform="translate(-83.826 -86.786)" fill="#0e0e0e"/>
      <path id="Path_10843" data-name="Path 10843" d="M174.713,106.688c-1.609,3.218-11.533,9.655-21.188,9.655s-17.031-.268-21.725-5.5c1.609-5.364,2.548-11,7.778-15.288,4.157-3.353,10.46-4.157,15.288-4.157,8.046,0,13.947,2.414,17.433,5.364C175.786,99.848,177.127,101.726,174.713,106.688Z" transform="translate(-83.648 -89.654)" fill="#825933"/>
      <path id="Path_10844" data-name="Path 10844" d="M217.51,156c-6.705-2.012-26.686-9.521-36.744-11.4-2.28,5.364-8.717,9.119-16.226,9.119s-13.947-3.755-16.226-9.119c-9.924,1.877-29.9,9.387-36.744,11.4-2.146-.268-6.169,4.425-6.169,19.043,0,6.3.671,22.663,1.609,32.319a167.965,167.965,0,0,0,18.372,4.828h0l.4.134h.134a214.164,214.164,0,0,0,76.975,0h.134l.4-.134h0a126.15,126.15,0,0,0,18.238-4.828c.939-9.521,1.609-26.016,1.609-32.319C223.678,160.424,219.521,155.73,217.51,156Z" transform="translate(-92.651 -71.511)" fill="#70bdf1"/>
      <path id="Path_10845" data-name="Path 10845" d="M170.876,144.7c-2.28,5.364-8.717,9.119-16.226,9.119s-13.947-3.755-16.226-9.119h0q-1.81.4-4.023.8c2.816,6.973,10.862,11.935,20.249,11.935s17.567-5.1,20.249-11.935A26.619,26.619,0,0,0,170.876,144.7Z" transform="translate(-82.761 -71.477)" fill="#3e9ee0"/>
      <path id="Path_10846" data-name="Path 10846" d="M120.594,175.176A43.629,43.629,0,0,0,115.9,161.9a32.361,32.361,0,0,1,1.073,3.353A111.666,111.666,0,0,1,121.8,193.28c0,1.743.536,8.046.536,13.008l1.609.268v-2.548A159.659,159.659,0,0,0,120.594,175.176Z" transform="translate(-89.07 -65.612)" fill="#2a4293"/>
      <path id="Path_10847" data-name="Path 10847" d="M177,204.008v2.548l1.609-.268c0-4.962.4-11.4.4-13.008a115.77,115.77,0,0,1,4.828-28.027,32.359,32.359,0,0,1,1.073-3.353,44.7,44.7,0,0,0-4.694,13.276A206.159,206.159,0,0,0,177,204.008Z" transform="translate(-68.233 -65.612)" fill="#2a4293"/>
      <path id="Path_10848" data-name="Path 10848" d="M197.979,183.2c-.268,3.889-.4,7.778-.8,11a173.965,173.965,0,0,1-18.238,4.828h0l-.4.134H178.4c0-3.353.268-7.644.268-10.46A101.542,101.542,0,0,0,197.979,183.2Z" transform="translate(-67.756 -58.348)" fill="#f1b581"/>
      <path id="Path_10849" data-name="Path 10849" d="M197.911,184.428h0c.134-1.609.134-3.218.268-4.828-6.3,2.146-13.008,3.755-19.311,5.364,0,.671-.134,1.609-.134,2.28,0,.4-.134,1.341-.134,2.682A92.589,92.589,0,0,0,197.911,184.428Z" transform="translate(-67.688 -59.575)" fill="#3e9ee0"/>
      <path id="Path_10850" data-name="Path 10850" d="M106,183.2c.268,3.889.536,7.778.8,11a167.967,167.967,0,0,0,18.372,4.828h0a.662.662,0,0,1,.4.134h.134c0-3.353-.134-7.644-.268-10.46A100.084,100.084,0,0,1,106,183.2Z" transform="translate(-92.446 -58.348)" fill="#f1b581"/>
      <path id="Path_10851" data-name="Path 10851" d="M106.068,184.428h0c-.134-1.609-.134-3.218-.268-4.828,6.169,2.146,13.008,3.755,19.445,5.364,0,.671.134,1.609.134,2.28a25.709,25.709,0,0,0,.134,2.682A91.476,91.476,0,0,1,106.068,184.428Z" transform="translate(-92.514 -59.575)" fill="#3e9ee0"/>
      <path id="Path_10852" data-name="Path 10852" d="M195.893,202.939a212.942,212.942,0,0,1-36.878,3.218c-6.839,0-13.678-.268-19.981-.8a160.658,160.658,0,0,1-16.9-2.28v-2.548c-.134-3.084-.268-6.3-.536-9.253l11-17.433a2.029,2.029,0,0,1,1.877-.939h49.216a2.817,2.817,0,0,1,1.877.939l11,17.433c-.268,2.95-.4,6.169-.536,9.253C195.759,200.793,195.893,201.732,195.893,202.939Z" transform="translate(-87.126 -61.86)" fill="#635f68"/>
      <path id="Path_10853" data-name="Path 10853" d="M160.9,184.535l9.253,1.341,5.632-37.549a.9.9,0,0,0-.536-.939c-2.682-.8-5.23-1.609-7.51-2.28a.763.763,0,0,0-.939.536v.134Z" transform="translate(-73.724 -71.35)" fill="#635f68"/>
      <path id="Path_10854" data-name="Path 10854" d="M163.7,155.309l.134-1.341c0-.134.134-.268.4-.268l8.985,1.341c.134,0,.268.134.268.4l-.134,1.341c0,.134-.134.268-.4.268l-8.985-1.341C163.7,155.712,163.7,155.577,163.7,155.309Z" transform="translate(-72.769 -68.408)" fill="#39343d"/>
      <path id="Path_10855" data-name="Path 10855" d="M162.907,162.073l.671-4.962a.979.979,0,0,1,1.207-.8l7.778,1.073a.979.979,0,0,1,.8,1.207l-.671,4.962a.979.979,0,0,1-1.207.8l-7.778-1.073A1.044,1.044,0,0,1,162.907,162.073Z" transform="translate(-73.048 -67.528)" fill="#39343d"/>
      <path id="Path_10856" data-name="Path 10856" d="M141.885,184.535l-9.253,1.341L127,148.327a.9.9,0,0,1,.536-.939c2.682-.8,5.23-1.609,7.644-2.28a.763.763,0,0,1,.939.536v.134Z" transform="translate(-85.285 -71.35)" fill="#635f68"/>
      <path id="Path_10857" data-name="Path 10857" d="M128.378,155.041l8.985-1.341c.134,0,.4.134.4.268l.134,1.341c0,.134-.134.4-.268.4l-8.985,1.341c-.134,0-.4-.134-.4-.268l-.134-1.341C127.975,155.309,128.243,155.175,128.378,155.041Z" transform="translate(-84.919 -68.408)" fill="#39343d"/>
      <path id="Path_10858" data-name="Path 10858" d="M129.211,157.379l7.778-1.073a1.044,1.044,0,0,1,1.207.8l.671,4.962a1.044,1.044,0,0,1-.8,1.207l-7.778,1.073a1.044,1.044,0,0,1-1.207-.8l-.671-4.962A1.044,1.044,0,0,1,129.211,157.379Z" transform="translate(-84.814 -67.528)" fill="#39343d"/>
      <path id="Path_10859" data-name="Path 10859" d="M180.566,173.5h-2.28a.536.536,0,0,0,0,1.073h2.28a.577.577,0,0,0,.536-.536c-.134-.268-.268-.536-.536-.536Zm-5.23,0h-2.28a.536.536,0,1,0,0,1.073h2.28a.536.536,0,1,0,0-1.073Zm-10.326,0h-2.28a.536.536,0,0,0,0,1.073h2.28a.536.536,0,0,0,0-1.073Zm21.725,4.559a.467.467,0,0,0-.671-.134h0c-.268.134-.268.536-.134.8L187,180.607c.134.134.268.268.4.268s.134,0,.268-.134a.49.49,0,0,0,.268-.671Zm-32.05-4.559H152.4a.536.536,0,0,0,0,1.073h2.28a.577.577,0,0,0,.536-.536C155.087,173.768,154.953,173.5,154.685,173.5Zm15.556,0h-2.146a.536.536,0,0,0,0,1.073h2.28a.577.577,0,0,0,.536-.536.891.891,0,0,0-.671-.536Zm23.87,22.663a.577.577,0,0,0-.536.536h0a13.01,13.01,0,0,1-.134,2.28.577.577,0,0,0,.536.536h0a.577.577,0,0,0,.536-.536,14.618,14.618,0,0,1,.134-2.28,1.047,1.047,0,0,0-.536-.536ZM133.765,173.5a1.852,1.852,0,0,0-.536.4l-.939,1.609c-.134.268-.134.536.134.671h0c.134,0,.134.134.268.134s.4-.134.4-.268l.939-1.609a.49.49,0,0,0,.268-.671c.134-.134-.134-.268-.536-.268Zm60.748,17.567c-.268,0-.536.134-.536.4h0c0,.671-.134,1.341-.134,2.28a.491.491,0,0,0,.536.536h0a.577.577,0,0,0,.536-.536l.134-2.28C194.915,191.336,194.781,191.067,194.513,191.067Zm-4.962-8.583a.467.467,0,0,0-.671-.134c-.268.134-.268.4-.134.671h0l1.073,1.877c.134.134.268.268.4.268a.577.577,0,0,0,.536-.536c0-.134,0-.134-.134-.268Zm4.023,6.169-1.073-1.877a.484.484,0,1,0-.8.536h0l1.073,1.877c.134.134.268.268.4.268s.134,0,.268-.134A.59.59,0,0,0,193.574,188.654Zm-9.387-14.617c-.134-.268-.268-.4-.536-.4a.511.511,0,1,0-.4.939h.134l.939,1.609c.134.134.268.268.4.268s.134,0,.268-.134a.467.467,0,0,0,.134-.671h0Zm-60.748,27.357a.577.577,0,0,0-.536.536v.939l1.073.134V201.8A.6.6,0,0,0,123.439,201.393Zm15.69-27.893h-2.28a.536.536,0,0,0,0,1.073h2.28a.536.536,0,1,0,0-1.073Zm54.848,27.893h0a.577.577,0,0,0-.536.536v1.207l1.073-.134v-.939a.614.614,0,0,0-.536-.671ZM149.455,173.5h-2.146a.536.536,0,1,0,0,1.073h2.28a.577.577,0,0,0,.536-.536C150.125,173.768,149.723,173.5,149.455,173.5Zm-23.6,13.142c-.268-.134-.536-.134-.671.134h0l-1.207,1.877c-.134.268-.134.536.134.671.134,0,.134.134.268.134s.4-.134.4-.268l1.073-1.877a.38.38,0,0,0,0-.671ZM159.78,173.5H157.5a.536.536,0,1,0,0,1.073h2.28a.577.577,0,0,0,.536-.536A.491.491,0,0,0,159.78,173.5Zm-15.556,0h-2.28a.536.536,0,0,0,0,1.073h2.28a.577.577,0,0,0,.536-.536.491.491,0,0,0-.536-.536Zm-12.874,4.291c-.268-.134-.536-.134-.671.134h0l-1.073,2.012c-.134.268-.134.536.134.671h0c.134,0,.134.134.268.134s.4-.134.4-.268l1.207-2.012C131.619,178.328,131.619,177.925,131.351,177.791Zm-7.912,21.725h0a.577.577,0,0,0,.536-.536h0a13.012,13.012,0,0,0-.134-2.28.577.577,0,0,0-.536-.536h0a.577.577,0,0,0-.536.536h0a13.011,13.011,0,0,0,.134,2.28A.577.577,0,0,0,123.439,199.516Zm-.268-5.23a.577.577,0,0,0,.536-.536c0-.671-.134-1.341-.134-2.28a.577.577,0,0,0-.536-.536h0a.577.577,0,0,0-.536.536c0,.671.134,1.341.134,2.28a.577.577,0,0,0,.536.536Zm5.5-12.069c-.268-.134-.536-.134-.671.134h0l-1.207,1.877c-.134.268-.134.536.134.671h0c.134,0,.134.134.268.134s.4-.134.4-.268l1.073-1.877c.268-.134.134-.4,0-.671Z" transform="translate(-86.819 -61.656)" fill="#423c46"/>
      <path id="Path_10860" data-name="Path 10860" d="M167.712,202.308l2.682-4.023-46.265-29.9a12,12,0,0,0-16.36,3.353l-6.169,9.521,4.023,2.682,6.169-9.521a6.914,6.914,0,0,1,9.521-2.012Z" transform="translate(-93.947 -64.045)" fill="#a2a2a2"/>
      <path id="Path_10861" data-name="Path 10861" d="M103.339,182.265l-.939-.671,6.3-9.789a10.7,10.7,0,0,1,14.617-3.084l45.863,29.637-.671.939-46-29.637a9.469,9.469,0,0,0-13.008,2.816Z" transform="translate(-93.674 -63.85)" fill="#d9d9d9"/>
      <path id="Path_10862" data-name="Path 10862" d="M110.742,173.243l-6.3,9.521-.939-.671,6.3-9.655c2.816-4.425,7.644-5.364,12.2-2.28l45.595,29.5-.671.939-45.595-29.368C117.178,168.55,113.155,169.354,110.742,173.243Z" transform="translate(-93.299 -63.411)" fill="#6e6e6e"/>
      <path id="Path_10863" data-name="Path 10863" d="M102.623,177.6,98.6,180.684l6.973,4.559,1.073-5.1Z" transform="translate(-94.97 -60.258)" fill="#9c9c9c"/>
      <rect id="Rectangle_17453" data-name="Rectangle 17453" width="6.571" height="8.448" transform="matrix(0.544, -0.839, 0.839, 0.544, 0, 125.903)" fill="#a2a2a2"/>
      <rect id="Rectangle_17454" data-name="Rectangle 17454" width="6.169" height="2.28" transform="matrix(0.544, -0.839, 0.839, 0.544, 4.888, 128.593)" fill="#6e6e6e"/>
      <rect id="Rectangle_17455" data-name="Rectangle 17455" width="6.169" height="2.28" transform="matrix(0.544, -0.839, 0.839, 0.544, 0.674, 125.79)" fill="#d9d9d9"/>
      <path id="Path_10864" data-name="Path 10864" d="M105.564,179.236l-.939,5.23-4.425-2.682,4.425-3.084Z" transform="translate(-94.424 -59.882)" fill="#6e6e6e"/>
      <path id="Path_10865" data-name="Path 10865" d="M99.973,181.521l4.559-2.95-1.207-.671L98.9,180.85Z" transform="translate(-94.867 -60.155)" fill="#d9d9d9"/>
      <path id="Path_10866" data-name="Path 10866" d="M154,202.988c5.9,0,11.533-.268,17.165-.671V181.8H136.7v20.518C142.2,202.854,147.965,202.988,154,202.988Z" transform="translate(-81.977 -58.825)" fill="#423c46"/>
      <path id="Path_10867" data-name="Path 10867" d="M139.236,181.3a.577.577,0,0,0-.536.536h0v2.28a.553.553,0,0,0,1.073.268V181.97C139.773,181.7,139.5,181.3,139.236,181.3Zm0,20.786a.577.577,0,0,0-.536.536h0v.134h1.073v-.268C139.773,202.22,139.5,202.086,139.236,202.086Zm0-5.23a.577.577,0,0,0-.536.536h0v2.28a.553.553,0,0,0,1.073.268v-2.414A.614.614,0,0,0,139.236,196.856Zm0-10.326a.577.577,0,0,0-.536.536h0v2.28a.553.553,0,1,0,1.073.268V187.2A.614.614,0,0,0,139.236,186.53Zm0,5.1a.577.577,0,0,0-.536.536h0v2.28a.553.553,0,0,0,1.073.268V192.3A.614.614,0,0,0,139.236,191.626Zm27.893-5.1a.577.577,0,0,0-.536.536h0v2.28a.536.536,0,1,0,1.073,0h0v-2.28c.134-.268-.134-.536-.536-.536Zm0,15.556a.577.577,0,0,0-.536.536h0v.268h1.073v-.134c.134-.4,0-.67-.536-.67Zm0-20.786a.577.577,0,0,0-.536.536h0v2.28a.536.536,0,0,0,1.073,0h0v-2.28c.134-.134-.134-.536-.536-.536Zm0,15.556a.577.577,0,0,0-.536.536h0v2.28a.536.536,0,0,0,1.073,0h0v-2.28c.134-.268-.134-.536-.536-.536Zm0-5.1a.577.577,0,0,0-.536.536h0v2.146a.536.536,0,1,0,1.073,0h0v-2.28c.134-.268-.134-.536-.536-.4Z" transform="translate(-81.295 -58.996)" fill="#635f68"/>
      <path id="Path_10868" data-name="Path 10868" d="M171.074,189.681H137.682A2.607,2.607,0,0,1,135,187h0V175.6h38.89V187a2.72,2.72,0,0,1-2.816,2.682Z" transform="translate(-82.556 -60.94)" fill="#39343d"/>
      <path id="Path_10869" data-name="Path 10869" d="M178.168,110.6a5.92,5.92,0,0,1-3.218,2.414,1.209,1.209,0,0,1,.134.671v.134a5.876,5.876,0,0,0,3.084-2.28c.536.671,1.073,1.341,1.609,2.146l.134-.671A15.82,15.82,0,0,0,178.168,110.6Zm-45.058,0c-.536.671-1.073,1.609-1.609,2.414a1,1,0,0,0,.134.671h0a5.057,5.057,0,0,1,1.609-2.146,5.875,5.875,0,0,0,3.084,2.28v-.134a1,1,0,0,1,.134-.671,5.64,5.64,0,0,1-3.353-2.414Z" transform="translate(-83.75 -83.106)" fill="#704924"/>
      <path id="Path_10870" data-name="Path 10870" d="M173.824,112.912a11.019,11.019,0,0,1-5.9,0l-1.877-.4a42.613,42.613,0,0,0-23.2,0l-2.012.4a14.321,14.321,0,0,1-3.353.4,16.43,16.43,0,0,1-2.548-.268,1.209,1.209,0,0,0-.134.671v.134a8.42,8.42,0,0,0,2.548.4,14.321,14.321,0,0,0,3.353-.4l1.877-.4a42.613,42.613,0,0,1,23.2,0l1.877.4a11.018,11.018,0,0,0,5.9,0v-.134C173.958,113.448,173.958,113.18,173.824,112.912Z" transform="translate(-82.625 -83.004)" fill="#c7864f"/>
      <path id="Path_10871" data-name="Path 10871" d="M155.261,105.1c-9.655,0-17.97,2.95-22.261,7.242,1.207,1.877,3.487,3.218,8.448,2.146,6.973-1.609,8.583-2.146,13.678-2.146s6.571.4,13.678,2.146c4.962,1.073,7.242-.268,8.448-2.146C173.231,108.05,164.782,105.1,155.261,105.1Z" transform="translate(-83.238 -84.982)" fill="#70bdf1"/>
      <path id="Path_10872" data-name="Path 10872" d="M138.807,114.1c-4.559,0-5.9-2.816-6.973-4.962L131.7,109l.939-.4.134.134c1.207,2.548,2.682,5.5,9.119,3.889l1.877-.4a44.567,44.567,0,0,1,23.736,0l1.877.4c6.437,1.341,7.912-1.341,9.119-3.889l.134-.134.939.4-.134.134c-1.207,2.682-3.084,6.169-10.326,4.559l-1.877-.4a42.613,42.613,0,0,0-23.2,0l-2.146.4A24.283,24.283,0,0,1,138.807,114.1Z" transform="translate(-83.682 -83.788)" fill="#a9cdff"/>
      <path id="Path_10873" data-name="Path 10873" d="M175.365,98.013c-3.218-3.487-14.215-8.046-19.445-7.912-5.23-.134-16.226,4.425-19.579,7.912s-6.705,18.64-5.364,25.211c0-7.242,11.13-13.142,24.943-13.142s24.943,5.9,24.943,13.142C182.2,116.653,178.583,101.634,175.365,98.013Z" transform="translate(-84.032 -90.098)" fill="#3e9ee0"/>
      <path id="Path_10874" data-name="Path 10874" d="M174.212,181.656a14.435,14.435,0,0,1-4.828.4h-1.341a9.229,9.229,0,0,1-1.743-.268,11.827,11.827,0,0,1,2.682-1.207c.8-.268,2.816-.8,3.755-1.207a3.131,3.131,0,0,1,2.682,0,5.4,5.4,0,0,1,1.743,1.743C176.224,181.254,174.883,181.656,174.212,181.656Z" transform="translate(-71.882 -59.755)" fill="#e2a36f"/>
      <path id="Path_10875" data-name="Path 10875" d="M171.036,204.62a1.906,1.906,0,0,1,.268.8,6.515,6.515,0,0,1-.4,3.889,1.351,1.351,0,0,1-.134.4,8.632,8.632,0,0,1-2.012,3.353,1.616,1.616,0,0,1-.671.671l.134-4.157A3.244,3.244,0,0,0,165,206.095l-1.877-.134a3.587,3.587,0,0,0-3.353,2.28c-.134.4-.134.671-.268,1.073l-.134,4.023-.4-.939a16.411,16.411,0,0,1-1.207-3.621l-.134-.4a8.118,8.118,0,0,1,0-2.548v-.134a2.163,2.163,0,0,1,.4-1.207c.134-.268.268-.4.4-.671h0a9.365,9.365,0,0,1,6.3-2.012A10.023,10.023,0,0,1,171.036,204.62Z" transform="translate(-74.875 -52.008)" fill="#b1b1b1"/>
      <path id="Path_10876" data-name="Path 10876" d="M164.733,201.813a8.342,8.342,0,0,0-6.3,2.012h0c-.134.268-.268.4-.4.671l-.4,1.207v.134a8.118,8.118,0,0,0,0,2.548l.134.4a16.411,16.411,0,0,0,1.207,3.621l.4.939h0a16.41,16.41,0,0,1-1.207-3.621l-.134-.4a9.906,9.906,0,0,1,0-2.816v-.268a2.163,2.163,0,0,1,.4-1.207,2.932,2.932,0,0,1,.4-.671,7.909,7.909,0,0,1,6.571-2.146,23.359,23.359,0,0,1,2.95.671A7.665,7.665,0,0,0,164.733,201.813Z" transform="translate(-74.875 -52.018)" fill="#d9d9d9"/>
      <path id="Path_10877" data-name="Path 10877" d="M167.948,208.421A3.466,3.466,0,0,0,164.6,204.8h-1.877a3.467,3.467,0,0,0-3.218,1.877h0a5.832,5.832,0,0,1,.8-.939h0c.134-.134.268-.134.4-.268h0c.134,0,.268-.134.4-.134h0l.4-.134h.8l1.877.134a3.435,3.435,0,0,1,3.353,3.487l-.134,4.157c.134-.134.268-.134.4-.268v-4.291Z" transform="translate(-74.201 -50.982)" fill="#929292"/>
      <path id="Path_10878" data-name="Path 10878" d="M170.2,173.285a1.906,1.906,0,0,1-.268-.8,6.515,6.515,0,0,1,.4-3.889l.134-.4a9.218,9.218,0,0,1,2.012-3.218,1.616,1.616,0,0,1,.671-.671l-.134,4.157a3.41,3.41,0,0,0,3.218,3.487h1.877a3.587,3.587,0,0,0,3.353-2.28c.134-.4.134-.671.268-1.073l.268-4.023.4.939a16.411,16.411,0,0,1,1.207,3.621l.134.4a8.118,8.118,0,0,1,0,2.548v.134a2.163,2.163,0,0,1-.4,1.207c-.134.268-.268.4-.4.671h0a9.239,9.239,0,0,1-6.169,2.012A13.3,13.3,0,0,1,170.2,173.285Z" transform="translate(-70.689 -64.793)" fill="#b1b1b1"/>
      <path id="Path_10879" data-name="Path 10879" d="M180.327,173.816a10.885,10.885,0,0,1-6.3-2.816c0,.134.134.268.268.4a6.124,6.124,0,0,1,.671,1.877c.134.268.134.4.268.671a8.036,8.036,0,0,1-.268,4.694l-11,28.43a16.689,16.689,0,0,1-1.341,2.682l-.8,1.073a8.674,8.674,0,0,1-1.073,1.207l-1.877,1.341c-.268.134-.4.4-.671.536a9.365,9.365,0,0,1,6.3-2.012,10.885,10.885,0,0,1,6.3,2.816c0-.134-.134-.268-.268-.4a13.08,13.08,0,0,1-.8-1.877l-.268-.671a8.036,8.036,0,0,1,.268-4.694l11-28.43a16.689,16.689,0,0,1,1.341-2.682l.8-1.073a8.675,8.675,0,0,1,1.073-1.207l1.877-1.609c.268-.134.4-.4.671-.536A7.063,7.063,0,0,1,180.327,173.816Z" transform="translate(-74.645 -62.508)" fill="#a2a2a2"/>
      <path id="Path_10880" data-name="Path 10880" d="M176.169,175.023a7.309,7.309,0,0,0,2.95-.134,5.832,5.832,0,0,1,.939-.8l1.877-1.609c.268-.134.4-.4.671-.536a8.821,8.821,0,0,1-6.3,1.877A10.885,10.885,0,0,1,170,171c0,.134.134.268.268.4a6.124,6.124,0,0,1,.671,1.877h0A11.524,11.524,0,0,0,176.169,175.023Z" transform="translate(-70.62 -62.508)" fill="#929292"/>
      <path id="Path_10881" data-name="Path 10881" d="M164.637,200.922a7.309,7.309,0,0,0-2.95.134,6.194,6.194,0,0,1-.939.939l-1.877,1.341c-.268.134-.4.4-.671.536a9.365,9.365,0,0,1,6.3-2.012,10.885,10.885,0,0,1,6.3,2.816c0-.134-.134-.268-.268-.4a13.079,13.079,0,0,1-.8-1.877h0A13.187,13.187,0,0,0,164.637,200.922Z" transform="translate(-74.645 -52.334)" fill="#929292"/>
      <path id="Path_10882" data-name="Path 10882" d="M177.9,176.9l-11.8,30.709a1.494,1.494,0,0,1-1.877.8h0a1.494,1.494,0,0,1-.8-1.877l11.8-30.709a1.494,1.494,0,0,1,1.877-.8h0A1.615,1.615,0,0,1,177.9,176.9Z" transform="translate(-72.893 -61.166)" fill="#b1b1b1"/>
      <path id="Path_10883" data-name="Path 10883" d="M170.857,187.428l.8-2.146-.939-.4-.8,2.146Zm-1.743,4.157,1.207-3.218-.939-.4-1.207,3.218Zm2.012-7.778.939.4.4-1.207-.939-.4Zm-3.487,11.935,1.073-2.95-.939-.4-1.073,2.95Z" transform="translate(-71.746 -58.552)" fill="#929292"/>
      <rect id="Rectangle_17456" data-name="Rectangle 17456" width="1.341" height="1.609" transform="translate(91.383 145.046) rotate(-68.919)" fill="#929292"/>
      <rect id="Rectangle_17457" data-name="Rectangle 17457" width="1.341" height="1.609" transform="translate(102.339 116.805) rotate(-68.911)" fill="#929292"/>
      <path id="Path_10884" data-name="Path 10884" d="M176.067,174.9a.493.493,0,0,1,.4.134,1.636,1.636,0,0,1,.8,1.877l-11.8,30.844a1.168,1.168,0,0,1-1.073.8,1.475,1.475,0,0,0,1.341-.8l11.8-30.844a1.553,1.553,0,0,0-.8-1.877A5.809,5.809,0,0,0,176.067,174.9Z" transform="translate(-72.53 -61.178)" fill="#d9d9d9"/>
      <path id="Path_10885" data-name="Path 10885" d="M164.728,208.157a1.636,1.636,0,0,1-.8-1.877l11.8-30.709a1.616,1.616,0,0,1,.671-.671,1.168,1.168,0,0,0-1.073.8l-11.8,30.709a1.553,1.553,0,0,0,.8,1.877,1.05,1.05,0,0,0,1.073-.134A.609.609,0,0,1,164.728,208.157Z" transform="translate(-72.859 -61.178)" fill="#6e6e6e"/>
      <path id="Path_10886" data-name="Path 10886" d="M171.9,174.826a11.713,11.713,0,0,0,2.95.671,7.507,7.507,0,0,0,6.571-2.146c.134-.268.4-.4.4-.671l.4-1.207v-.268a8.99,8.99,0,0,0,0-2.682l-.134-.4a16.412,16.412,0,0,0-1.207-3.621h0l.4.939a17.945,17.945,0,0,1,1.207,3.487l.134.4a8.118,8.118,0,0,1,0,2.548v.134a2.163,2.163,0,0,1-.4,1.207c-.134.268-.268.4-.4.671h0a9.239,9.239,0,0,1-6.169,2.012A6.422,6.422,0,0,1,171.9,174.826Z" transform="translate(-69.973 -64.725)" fill="#d9d9d9"/>
      <path id="Path_10887" data-name="Path 10887" d="M171.8,168.559a3.466,3.466,0,0,0,3.353,3.621l1.877.134a3.467,3.467,0,0,0,3.218-1.877h0a5.832,5.832,0,0,1-.8.939h0c-.134.134-.268.134-.4.268h0c-.134,0-.268.134-.4.134h0l-.268-.134h-2.816a3.4,3.4,0,0,1-3.218-3.487l.134-4.157c-.134.134-.268.134-.4.268Z" transform="translate(-70.007 -64.895)" fill="#929292"/>
      <path id="Path_10888" data-name="Path 10888" d="M167.717,208.553l-.134,4.157h-1.207l.134-4.157a2.149,2.149,0,0,0-2.146-2.28h-1.877a2.149,2.149,0,0,0-2.28,2.146h0l-.134,4.157H159l.134-4.023a3.156,3.156,0,0,1,.268-1.073,3.654,3.654,0,0,1,3.353-2.28l1.877.134A3.237,3.237,0,0,1,167.717,208.553Z" transform="translate(-74.372 -50.845)" fill="#d9d9d9"/>
      <path id="Path_10889" data-name="Path 10889" d="M172.1,168.257l.134-4.157h1.207l-.134,4.157a2.149,2.149,0,0,0,2.146,2.28h1.877a2.117,2.117,0,0,0,2.28-2.012l.134-4.157h1.207l-.134,4.023a3.157,3.157,0,0,1-.268,1.073,3.638,3.638,0,0,1-3.353,2.414H175.32a3.447,3.447,0,0,1-3.218-3.621Z" transform="translate(-69.906 -64.861)" fill="#d9d9d9"/>
      <path id="Path_10890" data-name="Path 10890" d="M168,181.875a1.209,1.209,0,0,0,.671-.134,40.58,40.58,0,0,0,4.694-.8,22.742,22.742,0,0,1,2.95-.536l.4.4h0l-.8.134h-.134l-1.609.268-.536.134a14.435,14.435,0,0,1-4.828.4h-.4Z" transform="translate(-71.303 -59.303)" fill="#c7864f"/>
      <path id="Path_10891" data-name="Path 10891" d="M157.1,190.087a35.952,35.952,0,0,0,3.621-.939,10.646,10.646,0,0,0,3.487-1.743c1.073-.939,1.609-2.95,3.084-4.157.671-.671,1.341-1.207,2.146-1.877a6.793,6.793,0,0,0,1.743.268h1.341a14.734,14.734,0,0,0,4.828-.4,13.258,13.258,0,0,1,4.023-.536,3.27,3.27,0,0,1,2.95,2.146,2.564,2.564,0,0,1-.939,2.682,2.455,2.455,0,0,1,1.609,2.414,3.07,3.07,0,0,1-1.073,2.28,2.131,2.131,0,0,1,.536,1.877,3.07,3.07,0,0,1-1.073,2.28,1.523,1.523,0,0,1,.4,1.073,4.965,4.965,0,0,1-2.414,3.621,7.955,7.955,0,0,1-3.889,1.341c-1.341.268-13.813,2.146-15.958,2.548-.8.134-2.414.536-2.95.671Z" transform="translate(-75.02 -59.2)" fill="#f1b581"/>
      <path id="Path_10892" data-name="Path 10892" d="M181.1,195.084a7.955,7.955,0,0,1-3.889,1.341c-1.341.268-13.813,2.146-15.958,2.548-.8.134-2.414.536-2.95.671l-.4-2.414a30.1,30.1,0,0,1,3.218-.4c9.253-1.877,13.544-.671,17.3-1.609A8.631,8.631,0,0,0,183.245,192,5.049,5.049,0,0,1,181.1,195.084Z" transform="translate(-74.747 -55.347)" fill="#c7864f"/>
      <path id="Path_10893" data-name="Path 10893" d="M178.93,182.726h0a5.455,5.455,0,0,0-2.414-1.609,6.529,6.529,0,0,0-2.816-.268,5.624,5.624,0,0,1,2.146-.134A3.011,3.011,0,0,1,178.93,182.726Z" transform="translate(-69.359 -59.214)" fill="#f5d0b0"/>
      <path id="Path_10894" data-name="Path 10894" d="M178.316,184.971a5.007,5.007,0,0,0-2.816-.4,3.681,3.681,0,0,1,1.743-.268A1.6,1.6,0,0,1,178.316,184.971Z" transform="translate(-68.745 -57.973)" fill="#f5d0b0"/>
      <path id="Path_10895" data-name="Path 10895" d="M177.143,184.609a9.23,9.23,0,0,0-1.743.268A9.4,9.4,0,0,0,178.216,183,1.742,1.742,0,0,1,177.143,184.609Z" transform="translate(-68.779 -58.416)" fill="#c7864f"/>
      <path id="Path_10896" data-name="Path 10896" d="M177.307,188.143a1.806,1.806,0,0,1-1.207.671,12.849,12.849,0,0,0,2.28-2.414A2.093,2.093,0,0,1,177.307,188.143Z" transform="translate(-68.54 -57.257)" fill="#c7864f"/>
      <path id="Path_10897" data-name="Path 10897" d="M176.2,188.371a2.741,2.741,0,0,0,1.207-.671l.134.268A1.762,1.762,0,0,1,176.2,188.371Z" transform="translate(-68.506 -56.813)" fill="#f5d0b0"/>
      <path id="Path_10898" data-name="Path 10898" d="M177.043,191.177a2.985,2.985,0,0,1-1.743.671,8.181,8.181,0,0,0,2.682-2.548A2.175,2.175,0,0,1,177.043,191.177Z" transform="translate(-68.813 -56.268)" fill="#c7864f"/>
      <path id="Path_10899" data-name="Path 10899" d="M175.5,191.371a8.205,8.205,0,0,0,1.609-.671l.134.134A2.251,2.251,0,0,1,175.5,191.371Z" transform="translate(-68.745 -55.79)" fill="#f5d0b0"/>
      <path id="Path_10900" data-name="Path 10900" d="M164.832,188.912a63.056,63.056,0,0,0,11.131,2.28l6.839.671c.134,0,.134-.134.268-.268l.134-.134.134-.268-7.376-.8a53.5,53.5,0,0,1-11-2.28l-4.559-1.207-.536.134-.671.268Z" transform="translate(-74.304 -57.086)" fill="#c7864f"/>
      <path id="Path_10901" data-name="Path 10901" d="M125.34,189.751l2.548.4a39.517,39.517,0,0,0,16.361-1.073s20.249.8,31.782-1.877c1.877-.4,12.069,9.387,9.387,10.594a142.621,142.621,0,0,1-17.7,6.973c-12.74,3.353-28.3,4.559-40.1,4.828l-11.667.268a8.169,8.169,0,0,1-8.448-7.644l-.8-9.521Z" transform="translate(-92.207 -56.987)" fill="#f1b581"/>
      <path id="Path_10902" data-name="Path 10902" d="M216.885,195.006l-.8,9.521c-.268,4.425-4.828,9.119-12.2,9.387a76.684,76.684,0,0,1-11.131-.268c-9.387-.939-15.824-4.023-24.675-7.51-2.012-.671-3.889-1.743-5.9-2.548l-2.682-1.207-18.908-8.851a13.158,13.158,0,0,0-6.437-1.207c-.4,0-.939.134-1.341.134h-.268a36.7,36.7,0,0,1-9.387-.268l-2.548-.4.4-.8a14.459,14.459,0,0,1,2.816-4.559,13.514,13.514,0,0,1,6.3-3.889l1.341-.4a27.949,27.949,0,0,1,16.9,0l11,3.218,18.774,5.5a63.056,63.056,0,0,0,11.131,2.28l7.644.8a1.148,1.148,0,0,0,1.207-.939l.134-.939Z" transform="translate(-87.467 -59.158)" fill="#f1b581"/>
      <path id="Path_10903" data-name="Path 10903" d="M177.523,190.815l-18.372-5.364-11-3.218a27.949,27.949,0,0,0-16.9,0l-1.341.4a13.938,13.938,0,0,0-6.3,3.889,12.49,12.49,0,0,0-2.414,3.487,8.81,8.81,0,0,1,1.609-2.28,13.116,13.116,0,0,1,6.169-3.889l1.341-.4a29.023,29.023,0,0,1,16.9-.536l11,2.816,18.774,5.1h.536Z" transform="translate(-87.262 -59.124)" fill="#f5d0b0"/>
      <path id="Path_10904" data-name="Path 10904" d="M158.834,200.871l-2.682-1.207-18.908-8.851a13.158,13.158,0,0,0-6.437-1.207h-.268l-.8.134H129.6a13.353,13.353,0,0,1,7.51,1.877L158.7,201.81c1.207.536,2.548,1.073,3.889,1.743l1.073-.4C162.053,202.346,160.444,201.676,158.834,200.871Z" transform="translate(-84.398 -56.172)" fill="#c7864f"/>
      <path id="Path_10905" data-name="Path 10905" d="M128.344,189.5c-1.877-.134-3.218-.268-5.1-.536l-2.28-.268-.268.671,2.548.4a43.734,43.734,0,0,0,9.387.268h.134a4.562,4.562,0,0,1,1.341-.134C132.1,189.773,130.087,189.639,128.344,189.5Z" transform="translate(-87.433 -56.472)" fill="#c7864f"/>
    </g>
    <g id="Group_9188" data-name="Group 9188" transform="translate(89.124 345.865)">
      <line id="Line_129" data-name="Line 129" y2="35.805" transform="translate(117.742 200.215)" fill="none" stroke="#b5b8b7" stroke-miterlimit="10" stroke-width="1" stroke-dasharray="2"/>
      <line id="Line_130" data-name="Line 130" y1="17.702" x2="9.387" transform="translate(55.518 200.215)" fill="none" stroke="#b5b8b7" stroke-miterlimit="10" stroke-width="1" stroke-dasharray="2"/>
      <line id="Line_131" data-name="Line 131" y1="18.104" x2="22.261" transform="translate(15.958 158.777)" fill="none" stroke="#b5b8b7" stroke-miterlimit="10" stroke-width="1" stroke-dasharray="2"/>
      <line id="Line_132" data-name="Line 132" x2="48.411" transform="translate(0 120.692)" fill="none" stroke="#b5b8b7" stroke-miterlimit="10" stroke-width="1" stroke-dasharray="2"/>
      <line id="Line_133" data-name="Line 133" x2="65.308" y2="45.863" transform="translate(16.36 58.066)" fill="none" stroke="#b5b8b7" stroke-miterlimit="10" stroke-width="1" stroke-dasharray="2"/>
      <line id="Line_134" data-name="Line 134" x2="26.418" y2="29.905" transform="translate(62.626 12.606)" fill="none" stroke="#b5b8b7" stroke-miterlimit="10" stroke-width="1" stroke-dasharray="2"/>
      <line id="Line_135" data-name="Line 135" y2="30.307" transform="translate(117.474)" fill="none" stroke="#b5b8b7" stroke-miterlimit="10" stroke-width="1" stroke-dasharray="2"/>
      <line id="Line_136" data-name="Line 136" x1="24.273" y2="27.893" transform="translate(151.536 14.751)" fill="none" stroke="#b5b8b7" stroke-miterlimit="10" stroke-width="1" stroke-dasharray="2"/>
      <line id="Line_137" data-name="Line 137" x1="66.247" y2="41.169" transform="translate(154.084 61.687)" fill="none" stroke="#b5b8b7" stroke-miterlimit="10" stroke-width="1" stroke-dasharray="2"/>
      <line id="Line_138" data-name="Line 138" x1="52.434" transform="translate(183.586 120.29)" fill="none" stroke="#b5b8b7" stroke-miterlimit="10" stroke-width="1" stroke-dasharray="2"/>
      <line id="Line_139" data-name="Line 139" x1="25.882" y1="15.69" transform="translate(195.521 158.375)" fill="none" stroke="#b5b8b7" stroke-miterlimit="10" stroke-width="1" stroke-dasharray="2"/>
      <line id="Line_140" data-name="Line 140" x1="8.448" y1="16.092" transform="translate(173.26 201.019)" fill="none" stroke="#b5b8b7" stroke-miterlimit="10" stroke-width="1" stroke-dasharray="2"/>
    </g>
  </g>
</svg>
