<svg xmlns="http://www.w3.org/2000/svg" width="369.596" height="334.222" viewBox="0 0 369.596 334.222">
  <g id="Group_8266" data-name="Group 8266" transform="translate(-44.404 -63)">
    <path id="Path_553" data-name="Path 553" d="M505.1,361.824c-32.828-3.291-69.207-5.024-107.579-5.024C252.78,356.8,135.5,382.612,135.5,414.4c0,18.449,39.671,34.907,101.256,45.474H505.1V361.824Z" transform="translate(-91.096 -62.652)" fill="#dfdfdf" opacity="0.5"/>
    <g id="Group_409" data-name="Group 409" transform="translate(58.507 63)">
      <g id="Group_399" data-name="Group 399" transform="translate(162.683 186.8)">
        <rect id="Rectangle_1473" data-name="Rectangle 1473" width="35.6" height="71.459" transform="translate(28.757)" fill="#585858"/>
        <path id="Path_554" data-name="Path 554" d="M403.957,384.2H368.53s-19.835,9.615-28.93,10.654v1.732h93.287v-1.732C423.792,393.814,403.957,384.2,403.957,384.2Z" transform="translate(-339.6 -316.119)" fill="#585858"/>
        <rect id="Rectangle_1474" data-name="Rectangle 1474" width="39.757" height="17.497" transform="translate(26.505 51.624)" fill="#585858"/>
      </g>
      <g id="Group_408" data-name="Group 408" transform="translate(0)">
        <g id="Group_400" data-name="Group 400" transform="translate(73.554)">
          <path id="Path_555" data-name="Path 555" d="M256.587,100.616c.173,0,3.291-.26,3.465-.26s7.362-6.756,12.993-6.583c5.717.173-16.544-.173-16.544-.173Z" transform="translate(-239.35 -90.429)" fill="#0d0d0d"/>
          <path id="Path_556" data-name="Path 556" d="M435.1,105.7s9.961,7.449,14.119,13.426c4.158,6.063,8.055,3.291,8.055,3.118a66.457,66.457,0,0,0-3.118-6.67c-.26-.26-9.008-6.929-9.181-7.016S435.1,105.7,435.1,105.7Z" transform="translate(-263.251 -92.048)" fill="#0d0d0d"/>
          <path id="Path_557" data-name="Path 557" d="M444.581,123.859s-7.1-12.819-19.489-16.8C337.609,78.991,242.677,93.89,242.677,93.89l-5.977,6.583,16.8,1.559s5.544-7.1,8.4-7.449c48.852-6.063,143.265,2.945,158.25,15.331,5.024,4.158,6.756,7.882,6.756,7.882Z" transform="translate(-236.7 -89.939)" fill="#fff"/>
        </g>
        <path id="Path_558" data-name="Path 558" d="M559,300.8a43.97,43.97,0,0,0,0,45.907Z" transform="translate(-205.414 -118.158)" fill="#10133a"/>
        <path id="Path_559" data-name="Path 559" d="M160.943,283.332l19.4,11.347,61.758,16.63,30.143,6.41s11-26.158,11.087-31.962c0-5.8,9.961-45.387-22.694-53.876s-54.829-20.009-67.561-16.2S158.084,252.41,158,253.709C157.738,255.095,160.943,283.332,160.943,283.332Z" transform="translate(-152.612 -106.666)"/>
        <path id="Path_560" data-name="Path 560" d="M505.369,326.54V170.889c-26.5-18.969-60.632-43.222-64.183-44.694-34.82-14.552-79.774-23.04-109.744-25.639-82.546-7.276-122.13,1.559-122.13,1.559l-1.906,13.079c-22.261,16.977-38.545,62.1-47.033,104.027-.433,1.992-5.37,4.331-5.8,6.236-4.071,16.111-3.291,34.127-.173,42.269,1.472,3.811,4.5,7.189,8.748,10.134A55.748,55.748,0,0,1,270.9,301.941Z" transform="translate(-151.782 -90.975)" fill="#fff"/>
        <path id="Path_561" data-name="Path 561" d="M517.342,182.016c-22.867-18.623-61.412-47.12-92.854-56.734C376.5,110.557,253.592,106.4,243.8,119.218s10.914,44.175,21.481,49.718c10.567,5.63,213.252,45.907,229.882,45.474,6.843-.173,14.9-2.425,22.174-5.2v-27.2Z" transform="translate(-163.755 -92.834)" fill="#2e3192" opacity="0.2"/>
        <path id="Path_562" data-name="Path 562" d="M179.342,235.161a99.321,99.321,0,0,1-1.472-16.024,110.1,110.1,0,0,1,2.772-28.237c-3.465.606-6.843,1.472-10.307,2.165a356.168,356.168,0,0,0-9.961,38.631c-.433,1.992-5.37,4.331-5.8,6.236-4.071,16.111-3.291,34.127-.173,42.269,1.472,3.811,4.5,7.189,8.748,10.134a55.674,55.674,0,0,1,25.206-29.19,83.787,83.787,0,0,1-4.764-11.087A108.577,108.577,0,0,1,179.342,235.161Z" transform="translate(-151.782 -103.45)" fill="#2e3192" opacity="0.2"/>
        <path id="Path_563" data-name="Path 563" d="M524.309,358.2l-2.6-1.039c-9.441-.606-18.969-1.386-28.41-2.165Z" transform="translate(-197.487 -125.411)" fill="#2e3192" opacity="0.2"/>
        <path id="Path_564" data-name="Path 564" d="M197.8,182.855c11.693-4.937,21.568-41.836-3.032-43.655h-.606c-8.229,12.819-15.331,29.363-20.961,47.033C180.129,186.32,190.523,185.887,197.8,182.855Z" transform="translate(-154.648 -96.531)" fill="#ed4e46"/>
        <path id="Path_565" data-name="Path 565" d="M217.23,116.072c.087-.087-.173-.693-.606-1.472-10.827,6.15-20.355,19.056-28.324,35.253,4.851.953,19.4-.173,19.4-.173l8.055-2.165C215.758,147.428,217.144,116.506,217.23,116.072Z" transform="translate(-156.669 -93.239)" fill="#585858"/>
        <path id="Path_566" data-name="Path 566" d="M217.1,102.559l-6.5,45.214q6.5-.65,13.772-.78s-.78-33.521,2.425-45.994C220.388,101.866,217.1,102.559,217.1,102.559Z" transform="translate(-159.653 -91.419)" fill="#0d0d0d"/>
        <path id="Path_567" data-name="Path 567" d="M537.621,190.418c-19.749-15.678-59.852-46.6-75.963-53.1-21.741-8.922-65.136-19.142-68.168-17.064s4.591,64.27,4.591,64.27-1.386-.173,111.736,27.891c5.457,1.386,18.276-3.465,27.717-7.536V190.418Z" transform="translate(-184.034 -93.96)"/>
        <path id="Path_568" data-name="Path 568" d="M362.949,180.578s-88.263-17.67-94.759-19.229-19.749-37.159-13.166-42.789S362,117,364.075,119.253C366.154,121.591,362.949,180.578,362.949,180.578Z" transform="translate(-165.36 -93.388)"/>
        <g id="Group_406" data-name="Group 406" transform="translate(20.74 159.885)">
          <g id="Group_405" data-name="Group 405">
            <path id="Path_569" data-name="Path 569" d="M263.62,322.143a44.019,44.019,0,1,1-40.277-47.466A43.988,43.988,0,0,1,263.62,322.143Z" transform="translate(-175.726 -274.526)" fill="#585858"/>
            <path id="Path_570" data-name="Path 570" d="M260.432,325.738c.52.173.953.346,1.472.52a24.99,24.99,0,0,0,.346-2.512,1.252,1.252,0,0,1-.606.173l-.866-.087a.87.87,0,1,1,.173-1.732l.866.087a.877.877,0,0,1,.606.346v-.346a22.7,22.7,0,0,0,.087-2.425c-.087,0-.087.087-.173.087-.52.087-1.039.26-1.646.346-1.039.26-1.386-1.473-.346-1.646.52-.087,1.039-.26,1.646-.346a1.1,1.1,0,0,1,.52.087V316.73a.81.81,0,0,1-1.126-.087.921.921,0,0,1,.087-1.213c.26-.173.606-.346.953-.606a39.7,39.7,0,0,0-.866-5.457,1.044,1.044,0,0,1-.433.433c-.087.087-.173.087-.26.173h0l-.087.087c-.087.087-.173.173-.26.173l-.087.087v.087a.836.836,0,0,1-1.213.173.847.847,0,0,1-.173-1.213,6.459,6.459,0,0,1,1.473-1.213.8.8,0,0,1,.866.087,37.682,37.682,0,0,0-1.732-5.284,2.594,2.594,0,0,0-.693.346c-.26.173-.606.433-.606.606a.871.871,0,0,1-1.732-.173,3.235,3.235,0,0,1,2.252-2.339,36,36,0,0,0-2.079-4.071h-.087a2.015,2.015,0,0,0-.953.78.847.847,0,0,1-1.213.173.836.836,0,0,1-.173-1.213,3.819,3.819,0,0,1,1.559-1.3,32.975,32.975,0,0,0-2.512-3.551c-.087.087-.173.087-.26.173a1.19,1.19,0,0,0-.693.433c-.173.173-.346.346-.346.52a.867.867,0,0,1-1.126.52.9.9,0,0,1-.52-1.126,3.716,3.716,0,0,1,1.819-1.819c-.606-.693-1.213-1.386-1.819-1.992a.791.791,0,0,1-1.039.433.992.992,0,0,1-.52-1.126c.087-.26.173-.433.26-.693-.693-.606-1.386-1.3-2.079-1.819h0a.3.3,0,0,0-.173.087h0c-.087.087-.26.173-.346.26a1.2,1.2,0,0,1-.346.26l-.087.087v.087a.836.836,0,0,1-1.213.173.847.847,0,0,1-.173-1.213,3.692,3.692,0,0,1,1.039-.953c-.693-.52-1.3-1.039-1.992-1.473a9.173,9.173,0,0,1-1.039.866.86.86,0,1,1-1.126-1.3c.26-.173.433-.346.693-.52a17.461,17.461,0,0,0-2.772-1.559,3.237,3.237,0,0,1-1.126,1.3.86.86,0,0,1-1.126-1.3,2.045,2.045,0,0,0,.693-.78,13.82,13.82,0,0,0-1.992-.866,4.475,4.475,0,0,1-1.039,1.559c-.78.78-1.906-.52-1.126-1.3a3.11,3.11,0,0,0,.606-.866c-.866-.346-1.646-.606-2.512-.866a6.588,6.588,0,0,1-.693,1.819c-.606.866-1.992-.087-1.386-.953a5.814,5.814,0,0,0,.52-1.3c-.866-.26-1.732-.433-2.6-.606a.318.318,0,0,1-.087.26,8.124,8.124,0,0,1-.52,1.3,1.489,1.489,0,0,1-1.819.52.9.9,0,0,1-.52-1.126.873.873,0,0,1,.953-.52c.087-.26.173-.433.26-.693-.953-.173-1.906-.26-2.945-.346a1.907,1.907,0,0,1-.693-.087,10.393,10.393,0,0,1-.26,1.732.867.867,0,0,1-1.126.52.944.944,0,0,1-.52-1.126,6.687,6.687,0,0,0,.173-1.3h-2.165c-.087.78.087,1.646-.433,2.252a.836.836,0,0,1-1.213.173.847.847,0,0,1-.173-1.213c.087-.087.087-.087.087-.173V275.5a30.394,30.394,0,0,0-5.63.78v.953a.858.858,0,0,1-.693.953.761.761,0,0,1-.953-.693,3.553,3.553,0,0,0-.087-.953c-.953.26-1.992.52-2.945.866.26.953.52,1.906-.346,2.512s-1.992-.606-1.126-1.3v-.173c0-.173-.087-.346-.087-.52a39.241,39.241,0,0,0-5.2,2.252c.173.606.346,1.126.52,1.732a.761.761,0,0,1-.693.953.812.812,0,0,1-.953-.693c-.087-.433-.26-.78-.346-1.213-1.039.606-1.992,1.213-3.032,1.906a6.706,6.706,0,0,1,.606,1.386c.26,1.039-1.472,1.386-1.646.346l-.26-.78a46.122,46.122,0,0,0-3.9,3.291,7.159,7.159,0,0,1,.606,1.126.853.853,0,0,1-1.559.693,2.594,2.594,0,0,0-.346-.693c-.693.78-1.472,1.559-2.079,2.339a7.815,7.815,0,0,0,.78.866.836.836,0,0,1,.173,1.213.847.847,0,0,1-1.213.173,8.173,8.173,0,0,1-.866-.866c-.346.52-.78,1.039-1.126,1.559.087.087.173.26.26.346a.859.859,0,0,1-.433,1.126,1.2,1.2,0,0,1-.78,0,23.86,23.86,0,0,0-1.472,2.512c.346.173.606.26.953.433a.867.867,0,0,1,.52,1.126.9.9,0,0,1-1.126.52c-.346-.173-.78-.346-1.213-.52a51.043,51.043,0,0,0-2.079,5.024c.606.173,1.126.346,1.732.52,1.039.346.433,1.906-.606,1.559-.52-.173-1.126-.346-1.646-.52-.346,1.213-.693,2.512-.953,3.811a15.051,15.051,0,0,1,1.646.866.847.847,0,0,1,.173,1.213.836.836,0,0,1-1.213.173l-1.039-.52c-.173,1.126-.346,2.252-.433,3.378a21.889,21.889,0,0,0-.087,2.425h.433a.871.871,0,0,1-.173,1.732H176.5a48.973,48.973,0,0,0,.346,5.11,9.594,9.594,0,0,1,1.646-.173c1.126-.087,1.386,1.559.346,1.646-.52.087-1.126.087-1.646.173a19.153,19.153,0,0,0,.433,2.165c.866,0,1.732-.087,2.6-.087,1.126.087.953,1.732-.173,1.732h-1.992a41.382,41.382,0,0,0,2.339,6.5,3.662,3.662,0,0,1,2.339-.606c1.126.087.953,1.732-.173,1.732a2.92,2.92,0,0,0-1.472.433,36.462,36.462,0,0,0,3.378,5.543,7.105,7.105,0,0,0,1.906-.173c1.039-.26,1.386,1.473.346,1.646-.346.087-.693.087-.953.173.866,1.039,1.732,2.079,2.685,3.032a8.494,8.494,0,0,0,2.339-1.559c.78-.78,1.906.52,1.126,1.3a11.942,11.942,0,0,1-2.165,1.472,36.7,36.7,0,0,0,4.5,3.725,9.731,9.731,0,0,1,1.559-1.732c.866-.693,1.992.606,1.126,1.3a6.512,6.512,0,0,0-1.3,1.386,31.194,31.194,0,0,0,4.331,2.512,5.722,5.722,0,0,1,1.213-1.732.861.861,0,0,1,1.126,1.3,5.56,5.56,0,0,0-.866,1.126,46.968,46.968,0,0,0,4.851,1.906l.78-1.3c.693-.866,2.079.087,1.386.953l-.52.78a42.93,42.93,0,0,0,5.8,1.126,11.712,11.712,0,0,1,.433-2.512.836.836,0,0,1,1.559.606,5.981,5.981,0,0,0-.346,2.165h.433c1.213.087,2.512.173,3.725.173.173-.866.433-1.732.693-2.6.346-1.039,1.906-.433,1.559.606-.173.693-.346,1.3-.52,1.992a36.194,36.194,0,0,0,6.15-.78c-.173-1.039-.866-1.992-.953-3.032-.087-1.126,1.559-1.386,1.646-.346a20.4,20.4,0,0,0,.953,3.032,49.21,49.21,0,0,0,6.063-1.906,11.846,11.846,0,0,0-1.559-2.079c-.78-.78.52-1.906,1.3-1.126a16.806,16.806,0,0,1,1.819,2.512,36,36,0,0,0,4.071-2.079,1.2,1.2,0,0,0-.346-.26c-.866-.693.087-2.079.953-1.386a6.069,6.069,0,0,0,.866.693,31.335,31.335,0,0,0,2.772-1.906,5.4,5.4,0,0,1-1.3-1.819.794.794,0,0,1,.433-1.126.889.889,0,0,1,1.126.433,3.3,3.3,0,0,0,1.126,1.559,39.865,39.865,0,0,0,3.984-3.725c-.953-.866-2.079-1.473-2.425-2.858-.26-1.039,1.386-1.386,1.646-.346a2.8,2.8,0,0,0,1.039,1.213,7.57,7.57,0,0,1,.866.693c.953-1.126,1.906-2.339,2.772-3.551a.749.749,0,0,1-.52-.26,15.938,15.938,0,0,0-1.473-1.906.86.86,0,0,1,1.3-1.126c.52.693,1.039,1.3,1.473,1.992a.085.085,0,0,0,.087.087,36.482,36.482,0,0,0,2.512-4.417c-.78-.26-1.473-.52-2.252-.78a.836.836,0,0,1,.606-1.559l2.339.78c.52-1.213,1.039-2.425,1.472-3.725a.935.935,0,0,1-.953,0c-.606-.346-1.213-.606-1.819-.953a.847.847,0,0,1-.173-1.213.836.836,0,0,1,1.213-.173c.606.346,1.213.606,1.819.953.173.087.26.26.346.346.346-1.126.606-2.165.866-3.291h-.087c-.52-.26-1.126-.346-1.646-.606C258.873,326.864,259.393,325.3,260.432,325.738Z" transform="translate(-175.83 -274.657)" fill="#0e0e0e"/>
            <path id="Path_571" data-name="Path 571" d="M252.629,323.118a31.024,31.024,0,1,1-28.41-33.434A31.043,31.043,0,0,1,252.629,323.118Z" transform="translate(-177.728 -276.541)" fill="#bcbec0"/>
            <path id="Path_572" data-name="Path 572" d="M208.282,299.932s.693-.779,1.386-.26,2.6,5.89,1.992,6.929c-.693,1.126-2.772,1.646-2.945.78C208.455,306.429,207.936,301.231,208.282,299.932Z" transform="translate(-180.068 -277.868)" fill="#fff"/>
            <path id="Path_573" data-name="Path 573" d="M212.152,297.3s-1.039.26-.953,1.126c.173.866,3.9,5.11,5.2,5.11,1.3-.087,2.772-1.646,2.079-2.252C217.782,300.591,213.451,297.646,212.152,297.3Z" transform="translate(-180.473 -277.574)" fill="#fff"/>
            <path id="Path_574" data-name="Path 574" d="M244.959,300.9s.953.52.606,1.3-5.11,3.9-6.323,3.465-2.165-2.339-1.386-2.685C238.549,302.545,243.573,300.813,244.959,300.9Z" transform="translate(-184.003 -278.055)" fill="#fff"/>
            <path id="Path_575" data-name="Path 575" d="M248.707,303.995s-.433-.953-1.3-.606c-.78.346-4.158,4.937-3.811,6.15s2.165,2.339,2.685,1.473C246.8,310.231,248.707,305.38,248.707,303.995Z" transform="translate(-184.806 -278.379)" fill="#fff"/>
            <path id="Path_576" data-name="Path 576" d="M254.64,332.842s0,1.039-.866,1.126c-.866,0-5.8-2.772-5.977-4.071s1.039-3.032,1.819-2.512C250.309,327.992,254.034,331.63,254.64,332.842Z" transform="translate(-185.369 -281.588)" fill="#fff"/>
            <path id="Path_577" data-name="Path 577" d="M253.17,337.946s.693-.866,0-1.386c-.693-.606-6.236-1.386-7.189-.52s-1.039,3.032-.173,3.032S251.871,338.552,253.17,337.946Z" transform="translate(-185.025 -282.707)" fill="#fff"/>
            <path id="Path_578" data-name="Path 578" d="M225.411,356.179s-1.039.087-1.213-.78,2.079-6.063,3.291-6.41,3.118.693,2.685,1.473S226.624,355.486,225.411,356.179Z" transform="translate(-182.212 -284.482)" fill="#fff"/>
            <path id="Path_579" data-name="Path 579" d="M220.592,355.281s.953.52,1.386-.173c.52-.693.606-6.41-.346-7.189s-3.118-.693-3.032.26C218.686,349.045,219.812,354.155,220.592,355.281Z" transform="translate(-181.464 -284.278)" fill="#fff"/>
            <path id="Path_580" data-name="Path 580" d="M197.281,332.36s-.433-.953.346-1.386,6.41,0,7.189,1.039c.693,1.039.346,3.2-.52,3.032C203.345,334.872,198.408,333.226,197.281,332.36Z" transform="translate(-178.595 -282.058)" fill="#fff"/>
            <path id="Path_581" data-name="Path 581" d="M196.494,327.248s-.26,1.039.606,1.3,6.236-1.472,6.756-2.685c.433-1.213-.346-3.2-1.213-2.772C201.865,323.437,197.361,326.122,196.494,327.248Z" transform="translate(-178.501 -281.017)" fill="#fff"/>
            <g id="Group_402" data-name="Group 402" transform="translate(14.779 14.789)">
              <g id="Group_401" data-name="Group 401">
                <path id="Path_582" data-name="Path 582" d="M221.989,291.86a23.519,23.519,0,0,1,2.425.087,29.024,29.024,0,0,1-2.339,57.947,23.519,23.519,0,0,1-2.425-.087,29.024,29.024,0,0,1,2.339-57.947m0-.26h0a29.284,29.284,0,0,0-2.339,58.467,22.689,22.689,0,0,0,2.425.087,29.309,29.309,0,0,0,22.261-48.246,28.786,28.786,0,0,0-19.922-10.221,23.527,23.527,0,0,0-2.425-.087Z" transform="translate(-192.789 -291.6)" fill="#10133a"/>
              </g>
            </g>
            <path id="Path_583" data-name="Path 583" d="M238.648,324.283a14.429,14.429,0,1,1-13.166-15.591A14.5,14.5,0,0,1,238.648,324.283Z" transform="translate(-180.291 -279.091)" fill="#fff"/>
            <path id="Path_584" data-name="Path 584" d="M237.331,324.451a12.861,12.861,0,1,1-11.78-13.859A12.88,12.88,0,0,1,237.331,324.451Z" transform="translate(-180.533 -279.347)" fill="#bcbec0"/>
            <path id="Path_585" data-name="Path 585" d="M231.27,313.248c-.346-.52-4.244-.953-4.244-.953s-3.9-.173-4.331.26c-.433.52,3.984,3.551,3.984,3.551S231.53,313.854,231.27,313.248Z" transform="translate(-182.008 -279.576)"/>
            <path id="Path_586" data-name="Path 586" d="M238.558,326c.433-.433-.346-4.331-.346-4.331s-.953-3.811-1.559-4.071-2.252,4.937-2.252,4.937S238.125,326.434,238.558,326Z" transform="translate(-183.578 -280.289)"/>
            <path id="Path_587" data-name="Path 587" d="M213.591,323.968c-.346-.52,1.039-4.244,1.039-4.244s1.559-3.638,2.252-3.725c.606-.173,1.472,5.284,1.472,5.284S213.938,324.488,213.591,323.968Z" transform="translate(-180.786 -280.076)"/>
            <path id="Path_588" data-name="Path 588" d="M229.583,336.652c.606.173,3.811-2.079,3.811-2.079s3.118-2.425,3.118-3.118c0-.606-5.457-.087-5.457-.087S228.977,336.478,229.583,336.652Z" transform="translate(-182.919 -282.105)"/>
            <path id="Path_589" data-name="Path 589" d="M220.575,335.913c-.606.087-3.465-2.685-3.465-2.685s-2.685-2.945-2.512-3.551c.087-.606,5.37.78,5.37.78S221.182,335.74,220.575,335.913Z" transform="translate(-180.927 -281.886)"/>
            <g id="Group_404" data-name="Group 404" transform="translate(40.587 40.514)">
              <g id="Group_403" data-name="Group 403">
                <path id="Path_590" data-name="Path 590" d="M226.063,321.906h.26a3.006,3.006,0,0,1,1.992,1.039,2.941,2.941,0,0,1-2.252,4.851h-.26a2.929,2.929,0,0,1-2.685-3.2,3.064,3.064,0,0,1,2.945-2.685m0-.606a3.427,3.427,0,0,0-3.465,3.2,3.562,3.562,0,0,0,3.2,3.811h.26a3.427,3.427,0,0,0,3.465-3.2,3.562,3.562,0,0,0-3.2-3.811Z" transform="translate(-222.584 -321.3)" fill="#fff"/>
              </g>
            </g>
            <path id="Path_591" data-name="Path 591" d="M238.285,296.008c-.78-1.386-10.567-2.425-10.567-2.425s-9.788-.52-10.827.693c-.953,1.213,9.961,9.008,9.961,9.008S239.152,297.394,238.285,296.008Z" transform="translate(-181.227 -277.062)" fill="#0e0e0e"/>
            <path id="Path_592" data-name="Path 592" d="M256.681,327.831c1.126-1.213-.866-10.914-.866-10.914s-2.425-9.615-3.984-10.221c-1.472-.606-5.63,12.386-5.63,12.386S255.641,328.957,256.681,327.831Z" transform="translate(-185.158 -278.829)" fill="#0e0e0e"/>
            <path id="Path_593" data-name="Path 593" d="M194.079,322.694c-.866-1.3,2.6-10.654,2.6-10.654s3.984-9.095,5.544-9.441,3.551,13.166,3.551,13.166S194.945,324.08,194.079,322.694Z" transform="translate(-178.164 -278.282)" fill="#0e0e0e"/>
            <path id="Path_594" data-name="Path 594" d="M234.259,354.686c1.472.52,9.615-5.2,9.615-5.2s7.8-6.15,7.709-7.709c-.087-1.646-13.6-.173-13.6-.173S232.787,354.166,234.259,354.686Z" transform="translate(-183.524 -283.422)" fill="#0e0e0e"/>
            <path id="Path_595" data-name="Path 595" d="M211.47,352.63c-1.559.26-8.662-6.67-8.662-6.67s-6.67-7.362-6.41-8.922c.346-1.559,13.512,1.992,13.512,1.992S213.116,352.37,211.47,352.63Z" transform="translate(-178.492 -282.839)" fill="#0e0e0e"/>
          </g>
        </g>
        <path id="Path_596" data-name="Path 596" d="M181.259,302.236c3.725,1.3,7.449,2.685,11.174,4.071,7.449,2.772,15.071,5.11,22.607,7.8q23.776,8.445,47.206,18.1a42.336,42.336,0,0,0,1.992-9.961A44.018,44.018,0,0,0,179.7,301.8C180.133,301.889,180.653,302.062,181.259,302.236Z" transform="translate(-155.518 -114.656)" fill="#0d0d0d" opacity="0.2"/>
        <path id="Path_597" data-name="Path 597" d="M261.378,365.346c.087-.087.173-.087.173-.173-1.213-.52-2.425-.953-3.551-1.473C259.126,364.22,260.252,364.826,261.378,365.346Z" transform="translate(-165.997 -126.576)" fill="#2e3192" opacity="0.2"/>
        <path id="Path_598" data-name="Path 598" d="M185.59,177.851s-.78-2.425-6.323-3.465a3.249,3.249,0,0,0-.953-.087A327.873,327.873,0,0,0,167.4,208.081C188.275,195.781,185.59,177.851,185.59,177.851Z" transform="translate(-153.872 -101.229)" fill="#ed4e46"/>
        <path id="Path_599" data-name="Path 599" d="M279.243,118.4,273.7,160.5l90.342,18.536s2.685-53.443-.087-57.427C361.616,118.139,279.243,118.4,279.243,118.4Z" transform="translate(-168.098 -93.747)" fill="#373737"/>
        <path id="Path_600" data-name="Path 600" d="M497.675,206.979c.606.087,15.591-9.788,15.591-9.788l-.087-20.182s-27.025-25.379-49.025-35.773S395.9,122.7,395.9,122.7s1.819,49.891,5.024,60.372C400.924,183.072,495.943,206.632,497.675,206.979Z" transform="translate(-184.452 -94.323)" fill="#373737"/>
        <path id="Path_601" data-name="Path 601" d="M530.932,213.731s-19.749-4.417-25.985-4.331-4.158,4.677-2.6,6.843c1.559,2.252,22.694,8.229,23.646,8.229C527.034,224.558,530.932,213.731,530.932,213.731Z" transform="translate(-198.48 -105.926)" fill="#292929"/>
        <path id="Path_602" data-name="Path 602" d="M490.07,209.326c.26.346,9.355,6.5,11,6.236s10.567.087,9.181-8.748c-1.819-11.607-8.4-14.465-13.685-14.119C493.621,192.956,486.865,204.736,490.07,209.326Z" transform="translate(-196.942 -103.687)" fill="#292929"/>
        <path id="Path_603" data-name="Path 603" d="M496.45,193.586s11.087-2.165,13.772,14.465L490.3,203.807S492.379,195.924,496.45,193.586Z" transform="translate(-197.085 -103.797)" fill="#fff"/>
        <path id="Path_604" data-name="Path 604" d="M264.6,139.9c.26,0,6.41.26,6.41.26L269.537,158l-4.331-.866Z" transform="translate(-166.88 -96.625)" fill="#373737"/>
        <path id="Path_605" data-name="Path 605" d="M174.58,198.2c-.953,3.725-2.252,6.67-2.945,6.5s-.52-3.378.433-7.1,2.252-6.67,2.945-6.5C175.706,191.186,175.533,194.39,174.58,198.2Z" transform="translate(-154.382 -103.476)" fill="#fff"/>
        <path id="Path_606" data-name="Path 606" d="M180.328,174.992c.087-.26,7.189.606,7.189.606s-2.6,11.433-9.528,10.741C177.989,186.339,175.3,186.426,180.328,174.992Z" transform="translate(-155.193 -101.315)" fill="#fff"/>
        <path id="Path_607" data-name="Path 607" d="M214.9,227.329a9.387,9.387,0,1,1-8.575-10.134A9.348,9.348,0,0,1,214.9,227.329Z" transform="translate(-157.721 -106.965)" fill="none" stroke="#10133a" stroke-miterlimit="10" stroke-width="0.284"/>
        <path id="Path_608" data-name="Path 608" d="M200.786,223.3a19.624,19.624,0,0,1-.173-4.5,9.562,9.562,0,0,0-4.417,7.189,9.408,9.408,0,0,0,8.575,10.134,9.857,9.857,0,0,0,5.024-.953C205.29,232.659,201.652,228.5,200.786,223.3Z" transform="translate(-157.721 -107.184)" fill="#2e3192" opacity="0.2"/>
        <path id="Path_609" data-name="Path 609" d="M269.8,168.1s190.644,41.143,225.378,50.844l1.039-3.551C496.217,215.476,291.368,166.884,269.8,168.1Z" transform="translate(-167.576 -100.395)"/>
        <path id="Path_610" data-name="Path 610" d="M488.811,327.026c4.417.78,8.835,1.559,13.166,2.425,1.473.26,2.252.433,2.252.433h-.52c.693.173,4.851.606,5.544.78-.173-2.945-7.969-10.221-7.969-10.221L320.6,290.3s7.969,6.323,12.213,7.449C336.364,298.615,447.321,319.317,488.811,327.026Z" transform="translate(-174.375 -116.753)" fill="#2e3192" opacity="0.2"/>
        <g id="Group_407" data-name="Group 407" transform="translate(215.948 125.995)">
          <path id="Path_611" data-name="Path 611" d="M402.139,235.4s21.048,5.024,21.741,5.717c.693.606-1.386,4.5-1.386,4.5s-10.827-2.512-16.977-3.984c-2.339-.52-4.071-.953-4.244-1.039C400.58,240.424,402.139,235.4,402.139,235.4Z" transform="translate(-401.095 -235.4)" fill="#2e3192" opacity="0.2"/>
          <path id="Path_612" data-name="Path 612" d="M407.486,245.458,406.1,242.6l13.945,3.291-2.079,1.386Z" transform="translate(-401.765 -236.364)" fill="#0d0d0d"/>
          <path id="Path_613" data-name="Path 613" d="M404.231,243.851a.87.87,0,1,1-.78-.953A.86.86,0,0,1,404.231,243.851Z" transform="translate(-401.281 -236.402)" fill="#0d0d0d"/>
        </g>
        <path id="Path_614" data-name="Path 614" d="M523.773,342.735c-.433-.346-.866-.693-1.386-1.039-7.622-4.937-221.394-31.875-225.551-28.93-2.252,1.559-5.024,8.055-7.362,14.378,0,1.213-.087,2.339-.173,3.551l234.473,24.6Z" transform="translate(-170.186 -119.729)" fill="#2e3192" opacity="0.2"/>
      </g>
      <path id="Path_615" data-name="Path 615" d="M314.7,336.2l5.2,6.843,130.186,12.646,12.3-3.984Z" transform="translate(-173.585 -122.895)" fill="#585858"/>
    </g>
    <g id="Group_427" data-name="Group 427" transform="translate(125.392 288.951)">
      <g id="Group_410" data-name="Group 410" transform="translate(0 53.529)">
        <path id="Path_616" data-name="Path 616" d="M452.386,441.632H229L272.135,416.6H495.521Z" transform="translate(-229 -413.135)" fill="#faa228"/>
        <path id="Path_617" data-name="Path 617" d="M229,441.1v-3.465L495.521,412.6v3.465L452.386,441.1Z" transform="translate(-229 -412.6)" fill="#bf864b"/>
        <path id="Path_618" data-name="Path 618" d="M452.386,437.632H229L272.135,412.6H495.521Z" transform="translate(-229 -412.6)" fill="#e4ad72"/>
      </g>
      <g id="Group_426" data-name="Group 426" transform="translate(25.546)">
        <g id="Group_425" data-name="Group 425">
          <g id="Group_413" data-name="Group 413" transform="translate(88.182)">
            <g id="Group_412" data-name="Group 412" transform="translate(42.852)">
              <g id="Group_411" data-name="Group 411">
                <path id="Path_619" data-name="Path 619" d="M453,411.986s-1.386.866-1.3,1.386.087,7.016.606,8.055,20.442.693,20.442.693,9.874-1.732,10.741-3.2c.866-1.386.346-2.339-.346-2.425-.606-.087-24.686-5.89-24.686-5.89Z" transform="translate(-415.383 -358.803)" fill="#0e0e0e"/>
                <path id="Path_620" data-name="Path 620" d="M450.6,411.2s2.079,4.591,4.244,5.457c1.213.433,4.677-.953,4.764-2.339l-4.591-7.016Z" transform="translate(-415.236 -358.361)"/>
                <path id="Path_621" data-name="Path 621" d="M414.993,350.8s-5.63,19.142-5.2,20.961c.433,1.732,23.82,29.536,32.048,36.726,0,0,11.78-5.284,9.7-7.276-4.851-4.5-29.883-45.474-29.883-45.474Z" transform="translate(-409.773 -350.8)"/>
              </g>
            </g>
            <path id="Path_622" data-name="Path 622" d="M360.3,414.03S371.647,383.8,408.372,350.8c0,0,9.788,5.11,9.181,10.481-.52,5.37-26.158,51.537-34.733,53.962s-22.52-1.213-22.52-1.213" transform="translate(-360.3 -350.8)"/>
          </g>
          <g id="Group_424" data-name="Group 424" transform="translate(0 12.646)">
            <g id="Group_415" data-name="Group 415" transform="translate(36.143)">
              <path id="Path_623" data-name="Path 623" d="M306.639,404.833s-5.89,5.2-1.126,7.709c4.158,2.252,24.08-5.977,35.686-22.52,5.8-8.229-24.946-20.182-33.781-19.922,0,0-4.764,4.071,4.244,7.189,11.174,3.984,17.93,10.134,17.41,10.394C323.616,390.195,305.253,401.455,306.639,404.833Z" transform="translate(-300.68 -366.028)" fill="#51a8e3"/>
              <g id="Group_414" data-name="Group 414">
                <path id="Path_624" data-name="Path 624" d="M311.113,377.616a10.139,10.139,0,0,1-7.276-3.725c-2.945-3.725.26-1.906,9.874,2.685Z" transform="translate(-300.563 -366.269)" fill="#f1b581"/>
                <path id="Path_625" data-name="Path 625" d="M310.77,376.747a43.012,43.012,0,0,1-5.2-4.158,41.9,41.9,0,0,1-4.937-5.11c-1.213-1.386.606-.953.693-.953s-.26-.087.173-.433a3.68,3.68,0,0,1,1.473-.433c.26,0,1.386-.26,1.819-.26,2.079.087,5.024,1.039,10.741,6.67C315.447,371.983,315.621,377.353,310.77,376.747Z" transform="translate(-300.22 -365.4)" fill="#f1b581"/>
              </g>
            </g>
            <g id="Group_419" data-name="Group 419" transform="translate(3.348 23.489)">
              <g id="Group_417" data-name="Group 417" transform="translate(161.558 17.417)">
                <g id="Group_416" data-name="Group 416">
                  <path id="Path_626" data-name="Path 626" d="M511.393,432.352s-.173,1.646.173,1.906,4.764,4.5,5.8,4.851S529.929,424.3,529.929,424.3s4.677-8.575,4.244-10.134-1.386-1.732-1.819-1.386c-.433.433-18.536,14.552-18.536,14.552Z" transform="translate(-457.239 -412.627)" fill="#0e0e0e"/>
                  <path id="Path_627" data-name="Path 627" d="M451.236,417.126s-3.465,12.819-1.992,13.686,48.679,7.189,59.419,8.922c0,0,6.236-14.725,2.685-14.9-5.89-.26-56.908-8.835-56.908-8.835Z" transform="translate(-448.879 -413.078)" fill="#161616"/>
                </g>
              </g>
              <g id="Group_418" data-name="Group 418">
                <path id="Path_628" data-name="Path 628" d="M374.506,401.2s25.812,5.024,69.294,12.819c0,0,1.906,10.827-2.079,13.772s-35.08,2.685-46.773,2.339c-1.3,0-26.591-.433-25.552-1.559C381.089,415.925,374.506,401.2,374.506,401.2Z" transform="translate(-276.679 -393.681)" fill="#161616"/>
                <path id="Path_629" data-name="Path 629" d="M300.388,410.286a11.777,11.777,0,0,0,7.016,11.607s3.2,3.724,15.245,4.158c21.481.78,27.8,2.425,38.891,1.126,0,0,11.434-22.174,1.992-28.151,0,0-25.465-2.858-32.222-4.764-7.622-2.165-12.213-2.512-20.788,1.992C310.522,396.167,299.262,403.443,300.388,410.286Z" transform="translate(-267.438 -392.545)" fill="#70bdf1"/>
                <path id="Path_630" data-name="Path 630" d="M303.769,419.44l-2.425-2.945s10.914-12.386,23.733-14.205l-.693-6.236s-18.1-.087-23.82,11.953c0,0-.52.953,0-1.472.52-2.339,8.488-15.071,25.465-13.945s38.371,4.937,38.371,4.937,10.567,6.756-1.906,29.623c0,0-17.757,2.079-26.678-.606,0,0,12.3-13.166.346-18.276C324.124,403.33,310.7,411.645,303.769,419.44Z" transform="translate(-267.441 -392.519)" fill="#161616"/>
                <path id="Path_631" data-name="Path 631" d="M290,418.932s7.536-2.252,10.827-.433c.866.52,2.339-12.3-.26-9.961-5.717,5.284-7.622-3.638-7.622-3.638Z" transform="translate(-266.058 -394.176)" fill="#e8924a"/>
                <path id="Path_632" data-name="Path 632" d="M266.379,422.368s-7.1-7.189-2.425-16.024c0,0,2.165-4.331,11.174-4.244,5.543.087,15.418,1.732,15.851,2.6,0,0,1.559,10.394-5.37,14.378C278.072,423.668,269.411,424.967,266.379,422.368Z" transform="translate(-262.359 -393.801)" fill="#f1b581"/>
              </g>
            </g>
            <path id="Path_633" data-name="Path 633" d="M287.429,418.519c-1.559.606-4.417,1.386-4.417,1.386l-1.992-.173a8.7,8.7,0,0,1-2.079.346c-2.685.173-5.024-.78-7.622-.953h-.173a4.35,4.35,0,0,1-1.039.173c-1.213,0-2.685-.173-3.465-1.213-1.473-1.732-1.386-3.984-.693-6.063a.8.8,0,0,1,.346-.52c1.126-5.543-1.906-5.8-1.906-5.8-4.244,4.418-7.709,11.087-4.851,16.111,4.937,8.662,15.158,7.709,18.1,4.244s10.307-7.362,10.307-7.362S289.075,417.913,287.429,418.519Z" transform="translate(-258.493 -370.793)" fill="#0e0e0e"/>
            <path id="Path_634" data-name="Path 634" d="M280.591,419.971c2.425-.52,4.677.087,5.024,1.472s-1.386,2.945-3.9,3.551c-2.425.52-4.677-.087-5.024-1.473-.26-.953.606-2.079,1.906-2.772A4.779,4.779,0,0,1,280.591,419.971Z" transform="translate(-260.923 -372.679)" fill="#f1b581"/>
            <g id="Group_423" data-name="Group 423" transform="translate(39.473 13.792)">
              <path id="Path_635" data-name="Path 635" d="M307.56,416.251s-5.284,1.386-2.858,6.15c2.165,4.158,20.788,8.315,39.671,1.3,9.441-3.465-9.095-30.749-16.544-35.6,0,0-6.236.606-.606,8.315,6.929,9.615,9.008,18.536,8.488,18.449C329.734,413.825,321.419,413.825,307.56,416.251Z" transform="translate(-304.065 -382.23)" fill="#70bdf1"/>
              <g id="Group_422" data-name="Group 422" transform="translate(3.668)">
                <path id="Path_636" data-name="Path 636" d="M330.991,396.457a10.034,10.034,0,0,1-3.9-7.189c-.346-4.764,1.3-1.386,6.583,7.8Z" transform="translate(-310.809 -382.098)" fill="#f79e8c"/>
                <g id="Group_421" data-name="Group 421" transform="translate(0 2.988)">
                  <g id="Group_420" data-name="Group 420" transform="translate(0 0.067)">
                    <path id="Path_637" data-name="Path 637" d="M344.961,391.043v-.606l-1.3.087H342.45A2.487,2.487,0,0,1,340.8,389.4a3.667,3.667,0,0,1-.346-1.039,4.348,4.348,0,0,1,.173-1.039c.087-.173.173-.433.346-.52a1.925,1.925,0,0,1,1.126-.693h.26a2.4,2.4,0,0,1,.78-.087h.173l1.3-.087v-.606c-4.071-1.213-5.89-.087-5.717,3.118C339.158,391.736,340.977,392.6,344.961,391.043Z" transform="translate(-312.393 -384.85)" fill="#b5bcdf"/>
                    <path id="Path_638" data-name="Path 638" d="M308.3,387.084v.606l1.3-.087h1.213a2.488,2.488,0,0,1,1.646,1.126,3.666,3.666,0,0,1,.346,1.039,4.348,4.348,0,0,1-.173,1.039,2.694,2.694,0,0,1-.346.52,1.926,1.926,0,0,1-1.126.693h-.26a2.4,2.4,0,0,1-.78.087h-.173l-1.3.087v.606c4.071,1.213,5.89.087,5.717-3.118C314.1,386.391,312.2,385.525,308.3,387.084Z" transform="translate(-308.3 -385.048)" fill="#b5bcdf"/>
                    <path id="Path_639" data-name="Path 639" d="M314.033,391.3a.373.373,0,0,1-.346-.346l-.087-2.165a.373.373,0,0,1,.346-.346l22-1.039a.373.373,0,0,1,.346.346l.087,2.165a.373.373,0,0,1-.346.346Z" transform="translate(-309.009 -385.191)" fill="#b5bcdf"/>
                  </g>
                  <path id="Path_640" data-name="Path 640" d="M343.383,390.426H342.17a2.488,2.488,0,0,1-1.646-1.126,3.667,3.667,0,0,1-.346-1.039,4.349,4.349,0,0,1,.173-1.039c.087-.173.173-.433.346-.52a1.925,1.925,0,0,1,1.126-.693h.26a2.4,2.4,0,0,1,.78-.087h.173l1.3-.087v-.606c-3.378-.953-5.2-.433-5.63,1.732h-.346c-.173.433-.433.78-.606,1.213-.346.606-.606,1.213-.953,1.732l2.079-.087c.52,1.646,1.732,2.252,3.9,1.732A4.663,4.663,0,0,0,343.383,390.426Z" transform="translate(-312.114 -384.773)" fill="#2e3192" opacity="0.2"/>
                  <path id="Path_641" data-name="Path 641" d="M309.339,386.8c-.346.087-.693.26-1.039.346v.606h.433A3.576,3.576,0,0,0,309.339,386.8Z" transform="translate(-308.3 -385.044)" fill="#2e3192" opacity="0.2"/>
                  <path id="Path_642" data-name="Path 642" d="M314.252,389.186c-.78,1.473-1.473,2.858-2.252,4.331a2.511,2.511,0,0,0,2.685-2.165l12.993-.606c.433-.693.866-1.473,1.213-2.165.173-.26.26-.52.433-.78l-14.725.693A5.146,5.146,0,0,0,314.252,389.186Z" transform="translate(-308.795 -385.178)" fill="#2e3192" opacity="0.2"/>
                </g>
                <path id="Path_643" data-name="Path 643" d="M331.126,395.682a47.228,47.228,0,0,1-1.906-6.41,35.441,35.441,0,0,1-1.126-7.016c-.26-1.819,1.039-.433,1.126-.346.087,0-.087-.26.346-.26a4.311,4.311,0,0,1,1.472.52c.26.173,1.3.52,1.646.78,1.646,1.213,3.551,3.725,5.11,11.607C337.709,394.469,334.764,398.973,331.126,395.682Z" transform="translate(-310.944 -381.323)" fill="#f1b581"/>
              </g>
            </g>
          </g>
        </g>
        <path id="Path_644" data-name="Path 644" d="M307.124,403.5s-4.418,1.472-6.41,4.937c-1.992,3.378,1.992,8.662,1.992,8.662S309.376,412.595,307.124,403.5Z" transform="translate(-264.069 -357.853)" fill="#e8924a"/>
      </g>
      <path id="Path_645" data-name="Path 645" d="M371.4,398.6l2.685.78s2.945,10.567,1.126,18.016h-2.772S374.518,410.38,371.4,398.6Z" transform="translate(-248.057 -357.197)" fill="#70bdf1"/>
    </g>
    <g id="Group_444" data-name="Group 444" transform="translate(77.253 298.219)">
      <g id="Group_429" data-name="Group 429" transform="translate(20.214 14.431)">
        <g id="Group_428" data-name="Group 428">
          <path id="Path_646" data-name="Path 646" d="M209.738,407.334a.316.316,0,0,1-.173.433l-.26.087a.316.316,0,0,1-.433-.173l-4.677-13.166a.316.316,0,0,1,.173-.433l.26-.087a.316.316,0,0,1,.433.173Z" transform="translate(-197.751 -380.275)" fill="#b5bcdf"/>
          <path id="Path_647" data-name="Path 647" d="M204.937,389.542a.316.316,0,0,1-.173.433l-3.551,1.3a.316.316,0,0,1-.433-.173l-3.984-11.174a.316.316,0,0,1,.173-.433l3.551-1.3a.316.316,0,0,1,.433.173Z" transform="translate(-196.761 -378.161)" fill="#70bdf1"/>
          <path id="Path_648" data-name="Path 648" d="M205.513,392.881a.316.316,0,0,1-.173.433l-2.079.78a.316.316,0,0,1-.433-.173l-.433-1.213a.316.316,0,0,1,.173-.433l2.079-.78a.316.316,0,0,1,.433.173Z" transform="translate(-197.51 -379.941)" fill="#fdbc56"/>
          <path id="Path_649" data-name="Path 649" d="M206.239,392.86c-.087-.173-.173-.26-.346-.26l-3.811,1.386c-.087,0-.173.173-.087.347l.346.953c.087.173.173.26.346.26l3.811-1.386c.087,0,.173-.173.087-.346Z" transform="translate(-197.456 -380.093)" fill="#fdbc56"/>
          <g id="Group_9216" data-name="Group 9216">
            <path id="Path_650" data-name="Path 650" d="M203.512,389.929a.316.316,0,0,1-.173.433l-.26.087a.316.316,0,0,1-.433-.173l-3.551-9.961a.316.316,0,0,1,.173-.433l.26-.087a.316.316,0,0,1,.433.173Z" transform="translate(-197.069 -378.375)" fill="#42a7eb"/>
            <path id="Path_651" data-name="Path 651" d="M205.312,389.229a.316.316,0,0,1-.173.433l-.26.087a.316.316,0,0,1-.433-.173l-3.551-9.961a.316.316,0,0,1,.173-.433l.26-.087a.316.316,0,0,1,.433.173Z" transform="translate(-197.309 -378.281)" fill="#42a7eb"/>
            <path id="Path_652" data-name="Path 652" d="M201.512,390.629a.316.316,0,0,1-.173.433l-.26.087a.316.316,0,0,1-.433-.173l-3.551-9.961a.316.316,0,0,1,.173-.433l.26-.087a.316.316,0,0,1,.433.173Z" transform="translate(-196.801 -378.469)" fill="#42a7eb"/>
          </g>
          <path id="Path_653" data-name="Path 653" d="M210.466,409.4l.346.693.087.866-.52.173-.606-.78-.173-.606Z" transform="translate(-198.479 -382.341)" fill="#b5bcdf"/>
        </g>
        <path id="Path_654" data-name="Path 654" d="M206.129,393.51l.087-.087c-.346-.26-.606-.52-.953-.78-1.126-1.039-2.252-1.992-3.378-3.032-.866-.866-1.819-1.646-2.685-2.512l1.906,5.284a.316.316,0,0,0,.433.173l.52-.173.26.78-.52.173c-.087,0-.173.173-.087.346l.346.953c.087.173.173.26.346.26l1.472-.52,4.417,12.473.173.606.606.78.52-.173-.087-.866-.26-.606-4.417-12.473Z" transform="translate(-197.087 -379.357)" fill="#2e3192" opacity="0.2"/>
      </g>
      <g id="Group_431" data-name="Group 431" transform="translate(0 4.785)">
        <g id="Group_430" data-name="Group 430">
          <path id="Path_655" data-name="Path 655" d="M196.295,416.236l.78-.433-.866-1.646c0-.087-.087-.087-.173-.173a3.2,3.2,0,0,1-.433-.953v-.087h0a.3.3,0,0,0-.087-.173,3.244,3.244,0,0,1,0-1.819,4.046,4.046,0,0,1,.433-.866,4.351,4.351,0,0,1,1.126-1.039,4.082,4.082,0,0,1,1.473-.346,3.686,3.686,0,0,1,.953.173,2.788,2.788,0,0,1,1.559,1.039l.173.173h0l.087.087a9.445,9.445,0,0,1,.52.953.3.3,0,0,0,.087.173l.866,1.646.78-.433c-.866-5.977-3.291-7.622-7.449-5.543C191.964,409.133,191.964,412.078,196.295,416.236Z" transform="translate(-176.047 -372.255)" fill="#b5bcdf"/>
          <path id="Path_656" data-name="Path 656" d="M178.089,376.374c-.173-.26,0-.52.173-.693l2.685-1.386a.674.674,0,0,1,.693.173l14.465,27.8a.674.674,0,0,1-.173.693l-2.685,1.386a.674.674,0,0,1-.693-.173Z" transform="translate(-174.039 -367.992)" fill="#b5bcdf"/>
          <path id="Path_657" data-name="Path 657" d="M179.553,374.885a4.165,4.165,0,1,0-5.63-1.732A4.136,4.136,0,0,0,179.553,374.885Zm-3.2-6.063a2.789,2.789,0,0,1,3.725,1.126,2.745,2.745,0,0,1-1.213,3.725,2.789,2.789,0,0,1-3.725-1.126A2.745,2.745,0,0,1,176.348,368.822Z" transform="translate(-173.424 -367.024)" fill="#b5bcdf"/>
        </g>
        <path id="Path_658" data-name="Path 658" d="M196.565,403.283l-8.229-15.764c-.26-.087-.606-.26-.866-.346-1.646-.78-3.2-1.559-4.764-2.425-.173-.087-.433-.26-.606-.346l9.095,17.5c.693.433,1.386.78,2.079,1.213,2.858,1.559,5.63,3.118,8.4,4.764C200.9,404.149,199.164,402.676,196.565,403.283Z" transform="translate(-174.585 -369.349)" fill="#2e3192" opacity="0.2"/>
        <path id="Path_659" data-name="Path 659" d="M175.758,373.266a4.8,4.8,0,0,1-.52-.693,2.745,2.745,0,0,1,1.213-3.725,2.789,2.789,0,0,1,3.725,1.126,2.745,2.745,0,0,1-1.213,3.724,2.926,2.926,0,0,1-2.252.173c.173.087.26.173.433.26,1.906,1.213,3.9,2.339,5.89,3.465a.656.656,0,0,0,.346.173l-2.165-4.158h0a3.98,3.98,0,0,0,.173-4.158,4.157,4.157,0,0,0-7.8,2.512A20.406,20.406,0,0,1,175.758,373.266Z" transform="translate(-173.44 -367.051)" fill="#2e3192" opacity="0.2"/>
      </g>
      <g id="Group_434" data-name="Group 434" transform="translate(25.338)">
        <g id="Group_432" data-name="Group 432">
          <path id="Path_660" data-name="Path 660" d="M222.9,363.319l-.866-.173-.433,1.819v.26l-.26,1.039v.087h0a.3.3,0,0,1-.087.173,3.708,3.708,0,0,1-1.213,1.386,3.619,3.619,0,0,1-.866.346,4.2,4.2,0,0,1-1.472,0,3.124,3.124,0,0,1-1.3-.693,2.336,2.336,0,0,1-.606-.693,3.409,3.409,0,0,1-.52-1.819v-.26h0V364.7a2.307,2.307,0,0,1,.26-1.039.3.3,0,0,1,.087-.173l.433-1.819-.866-.173c-3.291,5.024-2.512,7.969,1.992,9.008C221.511,371.548,223.5,369.3,222.9,363.319Z" transform="translate(-204.081 -361.5)" fill="#b5bcdf"/>
          <path id="Path_661" data-name="Path 661" d="M202.784,411.851l.866.173.433-1.819v-.26l.26-1.039v-.087h0a.3.3,0,0,1,.087-.173,3.708,3.708,0,0,1,1.213-1.386,3.622,3.622,0,0,1,.866-.346,4.2,4.2,0,0,1,1.472,0,3.124,3.124,0,0,1,1.3.693,2.336,2.336,0,0,1,.606.693,3.409,3.409,0,0,1,.52,1.819v.26h0v.087a2.306,2.306,0,0,1-.26,1.039.3.3,0,0,1-.087.173l-.433,1.819.866.173c3.291-5.024,2.512-7.969-1.992-9.008C204.169,403.623,202.177,405.875,202.784,411.851Z" transform="translate(-202.677 -367.244)" fill="#b5bcdf"/>
          <path id="Path_662" data-name="Path 662" d="M210.894,402a.493.493,0,0,1-.606.346l-2.945-.693a.493.493,0,0,1-.346-.606l7.362-30.4a.493.493,0,0,1,.606-.346l2.945.693a.493.493,0,0,1,.346.606Z" transform="translate(-203.252 -362.674)" fill="#b5bcdf"/>
        </g>
        <path id="Path_663" data-name="Path 663" d="M215.012,370.23,212.5,380.538c1.126,1.213,2.165,2.425,3.291,3.638l3.118-12.993a4.389,4.389,0,0,0,1.126-.173,29.856,29.856,0,0,0-2.425-2.252h-.26a3.124,3.124,0,0,1-1.3-.693,2.335,2.335,0,0,1-.606-.693,4.351,4.351,0,0,1-.433-1.126c-.52-.52-1.039-1.126-1.559-1.646C212.327,367.2,212.846,369.1,215.012,370.23Z" transform="translate(-203.992 -361.915)" fill="#b5bcdf"/>
        <path id="Path_664" data-name="Path 664" d="M209.166,399.4c.866.953,1.732,1.906,2.512,2.945l2.165-9.095c-1.126-1.213-2.252-2.339-3.378-3.551l-2.165,8.835Z" transform="translate(-203.43 -365.274)" fill="#b5bcdf"/>
        <path id="Path_665" data-name="Path 665" d="M224.286,366.6a12.145,12.145,0,0,0-.087-3.032l-.866-.173-.433,1.819v.173C223.333,365.739,223.766,366.172,224.286,366.6Z" transform="translate(-205.383 -361.754)" fill="#b5bcdf"/>
        <g id="Group_433" data-name="Group 433">
          <path id="Path_666" data-name="Path 666" d="M222.9,363.319l-.866-.173-.433,1.819v.26l-.26,1.039v.087h0a.3.3,0,0,1-.087.173,3.708,3.708,0,0,1-1.213,1.386,3.619,3.619,0,0,1-.866.346,4.2,4.2,0,0,1-1.472,0,3.124,3.124,0,0,1-1.3-.693,2.336,2.336,0,0,1-.606-.693,3.409,3.409,0,0,1-.52-1.819v-.26h0V364.7a2.307,2.307,0,0,1,.26-1.039.3.3,0,0,1,.087-.173l.433-1.819-.866-.173c-3.291,5.024-2.512,7.969,1.992,9.008C221.511,371.548,223.5,369.3,222.9,363.319Z" transform="translate(-204.081 -361.5)" fill="#b5bcdf"/>
          <path id="Path_667" data-name="Path 667" d="M202.784,411.851l.866.173.433-1.819v-.26l.26-1.039v-.087h0a.3.3,0,0,1,.087-.173,3.708,3.708,0,0,1,1.213-1.386,3.622,3.622,0,0,1,.866-.346,4.2,4.2,0,0,1,1.472,0,3.124,3.124,0,0,1,1.3.693,2.336,2.336,0,0,1,.606.693,3.409,3.409,0,0,1,.52,1.819v.26h0v.087a2.306,2.306,0,0,1-.26,1.039.3.3,0,0,1-.087.173l-.433,1.819.866.173c3.291-5.024,2.512-7.969-1.992-9.008C204.169,403.623,202.177,405.875,202.784,411.851Z" transform="translate(-202.677 -367.244)" fill="#b5bcdf"/>
          <path id="Path_668" data-name="Path 668" d="M210.894,402a.493.493,0,0,1-.606.346l-2.945-.693a.493.493,0,0,1-.346-.606l7.362-30.4a.493.493,0,0,1,.606-.346l2.945.693a.493.493,0,0,1,.346.606Z" transform="translate(-203.252 -362.674)" fill="#b5bcdf"/>
        </g>
        <path id="Path_669" data-name="Path 669" d="M215.012,370.23,212.5,380.538c1.126,1.213,2.165,2.425,3.291,3.638l3.118-12.993a4.389,4.389,0,0,0,1.126-.173,29.856,29.856,0,0,0-2.425-2.252h-.26a3.124,3.124,0,0,1-1.3-.693,2.335,2.335,0,0,1-.606-.693,4.351,4.351,0,0,1-.433-1.126c-.52-.52-1.039-1.126-1.559-1.646C212.327,367.2,212.846,369.1,215.012,370.23Z" transform="translate(-203.992 -361.915)" fill="#2e3192" opacity="0.2"/>
        <path id="Path_670" data-name="Path 670" d="M209.166,399.4c.866.953,1.732,1.906,2.512,2.945l2.165-9.095c-1.126-1.213-2.252-2.339-3.378-3.551l-2.165,8.835Z" transform="translate(-203.43 -365.274)" fill="#2e3192" opacity="0.2"/>
        <path id="Path_671" data-name="Path 671" d="M224.286,366.6a12.145,12.145,0,0,0-.087-3.032l-.866-.173-.433,1.819v.173C223.333,365.739,223.766,366.172,224.286,366.6Z" transform="translate(-205.383 -361.754)" fill="#2e3192" opacity="0.2"/>
      </g>
      <g id="Group_436" data-name="Group 436" transform="translate(15.296 10.307)">
        <g id="Group_435" data-name="Group 435">
          <path id="Path_672" data-name="Path 672" d="M197.448,373.487h-.606v2.339h0V376a2.363,2.363,0,0,1-.606,1.126,1.812,1.812,0,0,1-.52.347,2.058,2.058,0,0,1-1.039.26,2.307,2.307,0,0,1-1.039-.26c-.173-.087-.346-.26-.52-.347a2.363,2.363,0,0,1-.606-1.126v-.173h0v-.173a2.354,2.354,0,0,1,0-.78V373.4H191.9c-1.386,3.984-.433,5.8,2.858,5.89C197.881,379.29,198.834,377.471,197.448,373.487Z" transform="translate(-191.111 -373.4)" fill="#b5bcdf"/>
          <path id="Path_673" data-name="Path 673" d="M191.7,409.89h.606v-2.339h0v-.173a2.364,2.364,0,0,1,.606-1.126,1.812,1.812,0,0,1,.52-.346,2.057,2.057,0,0,1,1.039-.26,2.306,2.306,0,0,1,1.039.26c.173.087.346.26.52.346a2.364,2.364,0,0,1,.606,1.126v.173h0v.087a2.355,2.355,0,0,1,0,.78v1.473h.606c1.386-3.984.433-5.8-2.858-5.89C191.271,404,190.318,405.906,191.7,409.89Z" transform="translate(-191.084 -377.495)" fill="#b5bcdf"/>
          <path id="Path_674" data-name="Path 674" d="M196.258,401.747a.373.373,0,0,1-.346.346h-2.165a.373.373,0,0,1-.346-.346v-22a.373.373,0,0,1,.346-.346h2.165a.373.373,0,0,1,.346.346Z" transform="translate(-191.394 -374.203)" fill="#b5bcdf"/>
        </g>
        <path id="Path_675" data-name="Path 675" d="M196.744,374.7h0v1.039h0v.173a2.363,2.363,0,0,1-.606,1.126,1.811,1.811,0,0,1-.52.346,2.057,2.057,0,0,1-1.039.26,2.307,2.307,0,0,1-1.039-.26c-.173-.087-.346-.26-.52-.346a2.364,2.364,0,0,1-.606-1.126v-.173h0v-.087a2.354,2.354,0,0,1,0-.78V373.4h-.606c-1.126,3.378-.693,5.2,1.386,5.717v.346c.346.26.78.433,1.126.693.606.346,1.126.693,1.732,1.039v-2.079c1.646-.433,2.339-1.646,1.906-3.811C197.523,375.132,197.177,374.872,196.744,374.7Z" transform="translate(-191.099 -373.4)" fill="#2e3192" opacity="0.2"/>
        <path id="Path_676" data-name="Path 676" d="M191.4,409.6a4.885,4.885,0,0,0,.346,1.039h.606v-.52C192.006,409.946,191.746,409.773,191.4,409.6Z" transform="translate(-191.126 -378.245)" fill="#2e3192" opacity="0.2"/>
        <path id="Path_677" data-name="Path 677" d="M194.08,402.258c1.386.866,2.772,1.646,4.158,2.425a2.522,2.522,0,0,0-2.079-2.772V388.919c-.693-.433-1.386-.866-2.165-1.386a4.839,4.839,0,0,1-.693-.433v14.725A3.117,3.117,0,0,1,194.08,402.258Z" transform="translate(-191.38 -375.233)" fill="#2e3192" opacity="0.2"/>
      </g>
      <g id="Group_439" data-name="Group 439" transform="translate(32.692 13.772)">
        <g id="Group_437" data-name="Group 437">
          <path id="Path_678" data-name="Path 678" d="M227.188,379.392l-.433-.26-.433.953v.087l-.26.52v.087h0l-.087.087a1.588,1.588,0,0,1-.866.606,1.1,1.1,0,0,1-.52.087,1.561,1.561,0,0,1-.866-.173,3.617,3.617,0,0,1-.693-.52,1.893,1.893,0,0,0-.26-.433,2.133,2.133,0,0,1-.087-1.039v-.087h0v-.087l.26-.52.087-.087.433-.953-.433-.26c-2.425,2.425-2.252,4.158.087,5.284S226.842,382.77,227.188,379.392Z" transform="translate(-212.521 -377.4)" fill="#b5bcdf"/>
          <path id="Path_679" data-name="Path 679" d="M215.779,399.737a.346.346,0,0,1-.346.173l-1.559-.693a.346.346,0,0,1-.173-.346l7.536-16.2a.346.346,0,0,1,.346-.173l1.559.693a.346.346,0,0,1,.173.346Z" transform="translate(-211.506 -378.082)" fill="#b5bcdf"/>
          <path id="Path_680" data-name="Path 680" d="M214.487,401.569a2.344,2.344,0,1,0,1.126,3.118A2.247,2.247,0,0,0,214.487,401.569Zm-1.646,3.551a1.57,1.57,0,1,1,2.079-.78A1.588,1.588,0,0,1,212.841,405.12Z" transform="translate(-211.166 -380.607)" fill="#b5bcdf"/>
        </g>
        <g id="Group_438" data-name="Group 438" transform="translate(0 1.732)">
          <path id="Path_681" data-name="Path 681" d="M226.9,380.7c.173.26.346.433.52.693,0,.087.087.087.087.173a9.437,9.437,0,0,0,.346-1.906l-.433-.26-.433.953v.087C226.987,380.526,226.9,380.613,226.9,380.7Z" transform="translate(-213.272 -379.4)" fill="#2e3192" opacity="0.2"/>
          <path id="Path_682" data-name="Path 682" d="M221.291,383.6,218,390.7c.52.78.953,1.559,1.472,2.339l3.378-7.362C222.417,384.986,221.811,384.293,221.291,383.6Z" transform="translate(-212.081 -379.962)" fill="#2e3192" opacity="0.2"/>
          <path id="Path_683" data-name="Path 683" d="M215.44,401.911h0l.693-1.472c-.52-.78-.953-1.559-1.472-2.339l-1.3,2.858h0a2.5,2.5,0,0,0-1.992,1.386,2.346,2.346,0,1,0,4.071-.433Zm-2.6,2.772a1.57,1.57,0,1,1,2.079-.78A1.588,1.588,0,0,1,212.841,404.683Z" transform="translate(-211.167 -381.903)" fill="#2e3192" opacity="0.2"/>
        </g>
      </g>
      <g id="Group_441" data-name="Group 441" transform="translate(34.02 17.549)">
        <g id="Group_440" data-name="Group 440">
          <path id="Path_684" data-name="Path 684" d="M214.161,411.194a.316.316,0,0,1-.433.173l-.26-.173a.316.316,0,0,1-.173-.433l6.756-12.993a.316.316,0,0,1,.433-.173l.26.173a.316.316,0,0,1,.173.433Z" transform="translate(-212.775 -383.875)" fill="#b5bcdf"/>
          <path id="Path_685" data-name="Path 685" d="M224.466,395.047a.316.316,0,0,1-.433.173l-3.465-1.819a.316.316,0,0,1-.173-.433l5.717-11a.316.316,0,0,1,.433-.173l3.465,1.819a.316.316,0,0,1,.173.433Z" transform="translate(-213.725 -381.761)" fill="#2e3192"/>
          <path id="Path_686" data-name="Path 686" d="M223.18,397.78a.316.316,0,0,1-.433.173l-2.079-1.039a.316.316,0,0,1-.173-.433l.606-1.213a.316.316,0,0,1,.433-.173l2.079,1.126a.316.316,0,0,1,.173.433Z" transform="translate(-213.739 -383.541)" fill="#2e3192"/>
          <path id="Path_687" data-name="Path 687" d="M223.669,398.333c.087-.173.087-.346-.087-.433l-3.725-1.906c-.087-.087-.26,0-.346.173l-.52.953c-.087.173-.087.346.087.433l3.725,1.992c.087.087.26,0,.346-.173Z" transform="translate(-213.534 -383.661)" fill="#2e3192"/>
          <path id="Path_688" data-name="Path 688" d="M223.461,393.975a.316.316,0,0,1-.433.173l-.26-.173a.316.316,0,0,1-.173-.433l5.11-9.874a.316.316,0,0,1,.433-.173l.26.173a.316.316,0,0,1,.173.433Z" transform="translate(-214.02 -381.988)" fill="#282660"/>
          <path id="Path_689" data-name="Path 689" d="M225.261,394.975a.316.316,0,0,1-.433.173l-.26-.173a.316.316,0,0,1-.173-.433l5.11-9.874a.316.316,0,0,1,.433-.173l.26.173a.316.316,0,0,1,.173.433Z" transform="translate(-214.261 -382.122)" fill="#282660"/>
          <path id="Path_690" data-name="Path 690" d="M221.461,392.989a.316.316,0,0,1-.433.173l-.26-.173a.316.316,0,0,1-.173-.433l5.11-9.788a.316.316,0,0,1,.433-.173l.26.173a.316.316,0,0,1,.173.433Z" transform="translate(-213.752 -381.868)" fill="#282660"/>
          <path id="Path_691" data-name="Path 691" d="M214.086,413.233l-.26.693-.606.693-.52-.26.173-.953.433-.606Z" transform="translate(-212.7 -385.915)" fill="#b5bcdf"/>
        </g>
        <path id="Path_692" data-name="Path 692" d="M220.509,398.062l1.386.693c-.173-1.039-.26-2.165-.346-3.291-.173-1.559-.26-3.118-.433-4.764l-1.732,3.378a.316.316,0,0,0,.173.433l.52.26-.433.78-.606-.26c-.087-.087-.26,0-.346.173l-.52.953c-.087.173-.087.346.087.433l1.473.78-6.41,12.3-.346.606-.173,1.039.52.26.606-.693.26-.693Z" transform="translate(-212.713 -382.957)" fill="#2e3192" opacity="0.2"/>
      </g>
      <path id="Path_693" data-name="Path 693" d="M223.487,406.733a.776.776,0,0,1-.78.78H178.88a.776.776,0,0,1-.78-.78V394.78a.776.776,0,0,1,.78-.78h43.742a.776.776,0,0,1,.78.78v11.953Z" transform="translate(-174.05 -365.849)" fill="#162e3f"/>
      <g id="Group_443" data-name="Group 443" transform="translate(6.302 28.93)">
        <g id="Group_442" data-name="Group 442">
          <path id="Path_694" data-name="Path 694" d="M221.583,395.68a.776.776,0,0,0-.78-.78H181.48a.776.776,0,0,0-.78.78v25.812a.776.776,0,0,0,.78.78H220.8a.776.776,0,0,0,.78-.78Z" transform="translate(-180.7 -394.9)" fill="#70bdf1"/>
          <path id="Path_695" data-name="Path 695" d="M218.065,405.17a.776.776,0,0,1-.78.78H215.38a.776.776,0,0,1-.78-.78V400.58a.776.776,0,0,1,.78-.78h1.906a.776.776,0,0,1,.78.78Z" transform="translate(-185.237 -395.556)" fill="#162e3f"/>
          <path id="Path_696" data-name="Path 696" d="M192.965,405.17a.776.776,0,0,1-.78.78H190.28a.776.776,0,0,1-.78-.78V400.58a.776.776,0,0,1,.78-.78h1.906a.776.776,0,0,1,.78.78Z" transform="translate(-181.878 -395.556)" fill="#162e3f"/>
        </g>
        <path id="Path_697" data-name="Path 697" d="M189,421.723a.923.923,0,0,1-1.213-.52h0a.923.923,0,0,1,.52-1.213l26.245-11a.923.923,0,0,1,1.213.52h0a.923.923,0,0,1-.52,1.213Z" transform="translate(-181.64 -396.777)" fill="#42a7eb"/>
        <path id="Path_698" data-name="Path 698" d="M214.555,421.723a.923.923,0,0,0,1.213-.52h0a.923.923,0,0,0-.52-1.213L189,408.99a.923.923,0,0,0-1.213.52h0a.923.923,0,0,0,.52,1.213Z" transform="translate(-181.64 -396.777)" fill="#42a7eb"/>
      </g>
    </g>
  </g>
</svg>
