<svg xmlns="http://www.w3.org/2000/svg" width="384" height="335.761" viewBox="0 0 384 335.761">
  <g id="vector-5" transform="translate(-19.5 -14.2)">
    <g id="Group_521" data-name="Group 521" transform="translate(140.976 27.76)">
      <path id="Path_875" data-name="Path 875" d="M219.686,253.884s-3.653-.581-4.4,1.411c-8.967,24.742,0,58.783,0,73.313,0,0,4.65,3.736,5.231.581.5-2.823,11.624-72.483,11.624-72.483Z" transform="translate(-173.53 -68.428)" fill="#e5846f"/>
      <g id="Group_520" data-name="Group 520" transform="translate(0 0)">
        <path id="Path_877" data-name="Path 877" d="M235.593,49.809s-.747,9.714-4.566,10.794c0,0-2.823-16.273,1.827-13.949S235.593,49.809,235.593,49.809Z" transform="translate(-176.734 -33.23)" fill="#0e0e0e"/>
        <g id="Group_515" data-name="Group 515" transform="translate(35.064 43.314)">
          <path id="Path_878" data-name="Path 878" d="M315.61,121.665a9.7,9.7,0,0,1-5.812,4.317,2.882,2.882,0,0,0-.5-2.325C315.029,120.17,317.437,118.593,315.61,121.665Z" transform="translate(-225.227 -89.035)" fill="#51a8e3"/>
          <g id="Group_514" data-name="Group 514" transform="translate(78.676 25.556)">
            <path id="Path_879" data-name="Path 879" d="M308.529,124.207a29.482,29.482,0,0,0,4.068-4.068,36.361,36.361,0,0,0,3.736-4.982c.913-1.328-.664-.83-.747-.913-.083,0,.166-.083-.166-.415a2.544,2.544,0,0,0-1.411-.332c-.249,0-1.162.083-1.495.083-1.827.083-5.314.249-9.714,5.729C302.8,119.309,304.294,124.954,308.529,124.207Z" transform="translate(-302.8 -113.48)" fill="#51a8e3"/>
          </g>
          <path id="Path_880" data-name="Path 880" d="M217.638,82.7s-8.967,6.891-9.382,8.469c-3.487,13.782,35.868,38.525,84.355,28.312,0,0,.332-6.476-4.317-8.386-7.888-3.238-24.576-9.631-39.853-15.692C227.518,87.183,221.872,84.194,217.638,82.7Z" transform="translate(-208.041 -82.7)" fill="#51a8e3"/>
        </g>
        <path id="Path_881" data-name="Path 881" d="M216.282,345.932s-1.162.581-1.162,1-.581,5.563-.332,6.476c.332.913,16.19,2.657,16.19,2.657s8.054-.415,8.884-1.411.5-1.827,0-1.91c-.5-.166-18.93-7.14-18.93-7.14Z" transform="translate(-174.111 -84.008)" fill="#0e0e0e"/>
        <path id="Path_882" data-name="Path 882" d="M195.857,348.066s1.578.664,1.578,1.162c.083.5,1.245,7.057,1,8.22-.332,1.162-20.425,4.816-20.425,4.816s-10.3.249-11.458-1-.747-2.242-.166-2.491c.581-.166,23.58-10.876,23.58-10.876Z" transform="translate(-165.809 -84.399)" fill="#0e0e0e"/>
        <path id="Path_883" data-name="Path 883" d="M194.866,341.7s-.166,7.971-.166,8.137c.332,1.245,3.819,1.328,4.816.332l1.993-7.638Z" transform="translate(-170.712 -83.346)" fill="#e5846f"/>
        <path id="Path_884" data-name="Path 884" d="M216.078,338s-.166,7.888-.083,8.137c.332,1.245,3.653,1.411,4.65.5l1.495-7.971Z" transform="translate(-174.323 -82.718)" fill="#e5846f"/>
        <path id="Path_885" data-name="Path 885" d="M236.5,166.5s3.155,72.483-12.869,150.611c0,0-10.877,2.657-12.371-3.57s5.314-143.886,5.314-143.886Z" transform="translate(-173.486 -53.61)"/>
        <path id="Path_886" data-name="Path 886" d="M204.633,263.364a62.415,62.415,0,0,1-13.533,2.325c.415,22.5,2.408,46.661,2.989,66.339,0,0,4.982,4.234,6.061,0,2.325-9.216,4.816-35.453,10.3-69.328C208.7,263.613,206.875,262.7,204.633,263.364Z" transform="translate(-170.101 -69.938)" fill="#f79e8c"/>
        <path id="Path_887" data-name="Path 887" d="M188.329,316.922c4.566,3.57,5.065,3.985,10.544,2.325,1.744-.581,3.819-.664,5.065-1.245,1.411-10.461,8.3-92.824,9.963-104.2,0-.415,17.851-31.633,17.1-42.759-.166-2.989-21.338,1.245-21.5-1.661-7.389-.083-18.93-.664-24.41,2.906,0,0-2.325,22.417,2.74,77.381C187.831,249.67,188.329,316.922,188.329,316.922Z" transform="translate(-168.991 -54.084)" fill="#161616"/>
        <path id="Path_888" data-name="Path 888" d="M203.2,83.276s-9.548-1.245-18.764,6.891c0,0-6.227,46.91.083,67.5,0,0,30.72,13.949,46.744-1.494,0,0,4.733-64.263-3.57-69.078C222.881,84.356,221.054,82.7,203.2,83.276Z" transform="translate(-168.505 -39.464)" fill="#70bdf1"/>
        <path id="Path_889" data-name="Path 889" d="M192.975,84.994s12.122,8.054,14.2,26.07c0,0,11.375,2.159,15.194-.83,3.819-2.906-.913-23.829-4.733-26.652,0,0,1.91-.747,7.638,2.242,0,0,3.9,13.284,4.068,25.987,0,0,.581,7.389,3.238,8.718l-1,38.275-20.01,8.552-27.4-4.733L181.6,145.438l7.389-13.782s10.378-.332,10.794-14.7-8.137-29.309-13.2-28.561C186.665,88.482,187.827,85.659,192.975,84.994Z" transform="translate(-168.489 -39.522)" fill="#161616"/>
        <path id="Path_890" data-name="Path 890" d="M199.1,62.884s3.072,12.039,3.57,18.93c0,0,5.48,4.9,10.212.332,0,0,1.827-18.1,5.646-20.923C222.348,58.566,199.1,62.884,199.1,62.884Z" transform="translate(-171.459 -35.594)" fill="#e8924a"/>
        <path id="Path_891" data-name="Path 891" d="M207.157,38.161S221.023,36,226.752,46.131c0,0,1.079,11.126-1.91,18.432s-6.808,13.866-12.454,12.7c0,0-15.609-4.982-14.7-16.356C198.522,50.615,202.757,39.572,207.157,38.161Z" transform="translate(-171.214 -31.794)" fill="#f1b581"/>
        <path id="Path_892" data-name="Path 892" d="M200.44,59.927c0,3.4-1.578,6.227-3.57,6.227s-3.57-2.823-3.57-6.227,1.578-6.227,3.57-6.227S200.44,56.523,200.44,59.927Z" transform="translate(-170.475 -34.464)" fill="#f1b581"/>
        <g id="Group_516" data-name="Group 516" transform="translate(29.384 82.087)">
          <path id="Path_893" data-name="Path 893" d="M203.691,191.836l-2.491-.166c1.661-29.309,13.367-62.1,26.652-62.27v2.491C217.39,132.057,205.434,161.7,203.691,191.836Z" transform="translate(-201.2 -129.4)" fill="#585858"/>
        </g>
        <path id="Path_894" data-name="Path 894" d="M195.019,101.414s-2.657-12.952-9.714-12.122c-10.71,1.162-21.919,24.991-12.7,52.058,4.234,12.454,37.113.083,45.914-7.472,0,0,8.635-7.638-3.819-9.133-14.032-1.744-28.146,1.411-27.4,1.411C189.54,126.156,197.344,117.106,195.019,101.414Z" transform="translate(-166.382 -40.499)" fill="#70bdf1"/>
        <g id="Group_519" data-name="Group 519" transform="translate(49.144 56.884)">
          <path id="Path_895" data-name="Path 895" d="M228.508,132.271a11.561,11.561,0,0,1,9.216.747c4.65,2.574.415,2.076-11.624,1.411Z" transform="translate(-225.186 -104.578)" fill="#f79e8c"/>
          <g id="Group_518" data-name="Group 518" transform="translate(2.657)">
            <path id="Path_896" data-name="Path 896" d="M240.339,125.764a3.1,3.1,0,0,0,.913,2.989c1.328,1.411,12.786,4.566,12.786,4.566l1.245,1s-13.949-2.657-15.194-1.744-5.895,7.971-6.393,11.707c0,0-5.314,1.079-5.4-.747s5.148-11.209,7.306-12.039l-5.895-.664s-1-2.408.5-2.491c1.744-.083,5.231,1.328,5.812.581A7.386,7.386,0,0,0,237.1,125.1Z" transform="translate(-228.217 -103.467)" fill="#bcbec0"/>
            <path id="Path_897" data-name="Path 897" d="M237.61,123.626l2.989.249s6.227-6.559,7.057-8.884c.83-2.408-7.555-2.491-7.555-2.491s-8.967,1.661-8.8,2.491C231.466,115.9,235.368,121.55,237.61,123.626Z" transform="translate(-228.726 -101.329)" fill="#bcbec0"/>
            <path id="Path_898" data-name="Path 898" d="M237.61,123.626l2.989.249s6.227-6.559,7.057-8.884c.83-2.408-7.555-2.491-7.555-2.491s-8.967,1.661-8.8,2.491C231.466,115.9,235.368,121.55,237.61,123.626Z" transform="translate(-228.726 -101.329)" fill="#bcbec0"/>
            <path id="Path_899" data-name="Path 899" d="M228.2,99.257s14.779-.415,22-.083l-2.823,13.533H230.774Z" transform="translate(-228.2 -99.045)" fill="#e9eae8"/>
            <path id="Path_900" data-name="Path 900" d="M248.862,115.347a.744.744,0,0,1-.747.747H230.347a.744.744,0,0,1-.747-.747h0a.744.744,0,0,1,.747-.747h17.768a.744.744,0,0,1,.747.747Z" transform="translate(-228.438 -101.685)" fill="#0e0e0e"/>
            <path id="Path_901" data-name="Path 901" d="M242.566,126a.536.536,0,0,0-.5-.5H238.5a.536.536,0,0,0-.5.5h0a.536.536,0,0,0,.5.5h3.57a.479.479,0,0,0,.5-.5Z" transform="translate(-229.863 -103.535)" fill="#bcbec0"/>
            <g id="Group_517" data-name="Group 517" transform="translate(25.374 29.769)">
              <path id="Path_902" data-name="Path 902" d="M260.781,135.891c0,.166-.166.249-.332.166h0a.265.265,0,0,1-.249-.249v-.249c0-.166.166-.249.332-.166h0a.265.265,0,0,1,.249.249Z" transform="translate(-259.005 -134.978)" fill="#bcbec0"/>
              <path id="Path_903" data-name="Path 903" d="M260.281,135.847a.357.357,0,0,1-.332.332h0c-.166,0-.249-.166-.249-.415l.083-.332a.357.357,0,0,1,.332-.332h0c.166,0,.249.166.249.415Z" transform="translate(-258.92 -134.934)" fill="#bcbec0"/>
              <path id="Path_904" data-name="Path 904" d="M259.792,135.747c-.083.249-.249.332-.332.332h0c-.166,0-.249-.249-.166-.415l.083-.332c.083-.249.249-.332.332-.332h0c.166,0,.249.249.166.5Z" transform="translate(-258.846 -134.917)" fill="#bcbec0"/>
              <path id="Path_905" data-name="Path 905" d="M259.291,135.647c-.083.249-.166.332-.332.332h0c-.166,0-.249-.249-.166-.415l.083-.332c.083-.249.166-.332.332-.332h0c.166,0,.249.249.166.415Z" transform="translate(-258.761 -134.9)" fill="#bcbec0"/>
            </g>
            <path id="Path_906" data-name="Path 906" d="M242.8,131.421s2.989,9.548,2.989,11.79c0,0-1.079.664-1.744.249-1.494-1-2.491-8.884-2.159-12.039C242.219,128.349,242.8,131.421,242.8,131.421Z" transform="translate(-230.512 -104.308)" fill="#bcbec0"/>
            <path id="Path_907" data-name="Path 907" d="M242.55,130.325a2.325,2.325,0,0,1-4.65,0A2.27,2.27,0,0,1,240.225,128,2.321,2.321,0,0,1,242.55,130.325Z" transform="translate(-229.846 -103.959)" fill="#bcbec0"/>
            <path id="Path_908" data-name="Path 908" d="M242.055,130.478a1.578,1.578,0,1,1-1.578-1.578A1.576,1.576,0,0,1,242.055,130.478Z" transform="translate(-230.016 -104.112)" fill="#bcbec0"/>
            <path id="Path_909" data-name="Path 909" d="M238.105,134.1c-4.151,3.487-7.057,9.133-6.808,12.039a15.531,15.531,0,0,0,2.906-.332c.332-3.238,3.9-8.967,5.646-11.043C239.434,134.93,238.105,134.1,238.105,134.1Z" transform="translate(-228.723 -104.995)" fill="#bcbec0"/>
          </g>
          <path id="Path_910" data-name="Path 910" d="M228.321,132.4a49.113,49.113,0,0,1,7.223,2.076,48.075,48.075,0,0,1,7.306,3.155c1.827.913-.249,1.162-.415,1.245-.083,0,.332,0,0,.5a3.951,3.951,0,0,1-1.411,1.079c-.332.083-1.328.913-1.827,1.079-2.242.83-5.231,2.491-13.533-.83C225.747,140.7,222.924,133.811,228.321,132.4Z" transform="translate(-224.999 -104.706)" fill="#f1b581"/>
        </g>
        <path id="Path_911" data-name="Path 911" d="M218.991,44.2s-3.487,2.823-8.552-.5c0,0-1.328,6.725-6.725,6.227,0,0-1.494,2.989-.913,5.4a3.75,3.75,0,0,1-1.91,4.4c-.913.332-.332-1.661-.332-1.661s-.166-4.483-1.91-5.314-2.242.083-2.906.249-2.076.332-2.242-1.827,1.578-4.234,1.411-5.065c-.166-.913-2.491-3.9-1.744-5.978.664-2.076,2.989-5.563,7.14-3.819,0,0,1.079-5.314,6.642-4.9,0,0,7.638-2.74,11.209,1.411,0,0,12.454-2.74,13.035,4.816,0,0,7.638,1.827,5.729,7.306s-8.137,5.812-12.786,2.242C224.056,47.194,219.9,47.111,218.991,44.2Z" transform="translate(-170.428 -30.532)" fill="#0e0e0e"/>
      </g>
      <path id="Path_912" data-name="Path 912" d="M236.172,167.3v3.072a38.63,38.63,0,0,1-21.172,3.4V170.7C215,170.621,227.371,170.787,236.172,167.3Z" transform="translate(-174.158 -53.745)" fill="#70bdf1"/>
      <path id="Path_913" data-name="Path 913" d="M212.166,195.6s-4.982,11.458-13.866,15.858l.747,2.325s11.956-6.725,15.526-17.27Z" transform="translate(-171.323 -58.549)" fill="#70bdf1"/>
    </g>
    <path id="Path_915" data-name="Path 915" d="M449.244,327.4c-91.911,1.827-159.744,8.054-159.744,15.443s67.833,13.616,159.744,15.443Z" transform="translate(-45.827 -53.159)" fill="#e0dfdf"/>
    <g id="Group_529" data-name="Group 529" transform="translate(231.534 57.591)">
      <g id="Group_528" data-name="Group 528">
        <g id="Group_527" data-name="Group 527">
          <g id="Group_522" data-name="Group 522" transform="translate(56.476)">
            <path id="Path_916" data-name="Path 916" d="M361.664,82.462c.166,0,2.989-.5,3.072-.5.166,0,6.227-6.725,11.375-6.974C381.342,74.658,361,76.069,361,76.069Z" transform="translate(-345.972 -67.9)" fill="#0d0d0d"/>
            <path id="Path_917" data-name="Path 917" d="M458.308,66.909c-60.278-2.906-110.426,9.3-110.426,9.3L342.9,82.684l15.526.166s4.483-6.891,7.14-7.389c24.327-5.065,61.689-6.974,92.741-5.978Z" transform="translate(-342.9 -66.461)" fill="#fff"/>
          </g>
          <path id="Path_918" data-name="Path 918" d="M284.965,261.147l18.515,8.967L361.1,280.658l27.98,3.653s8.137-24.742,7.721-30.056,5.646-42.178-24.742-47.491c-30.471-5.314-51.56-14.2-62.935-9.714S279.9,233.167,279.9,234.412C279.983,235.574,284.965,261.147,284.965,261.147Z" transform="translate(-275.731 -88.418)"/>
          <path id="Path_919" data-name="Path 919" d="M446.762,75.961c-6.642-.415-12.952-.664-18.6-.664-75.97-.5-111.422,10.627-111.422,10.627l-.747,12.122c-19.1,17.187-30.637,59.53-35.2,98.47-.249,1.91-4.566,4.4-4.816,6.144-2.491,15.028-.415,31.384,2.989,38.608,1.578,3.321,4.65,6.227,8.8,8.635a51.094,51.094,0,0,1,100.214,13.948l58.866,1.328V75.961Z" transform="translate(-274.879 -67.958)" fill="#fff"/>
          <path id="Path_920" data-name="Path 920" d="M459.391,86.986c-48.239-.747-102.87,4.483-108.35,13.035-7.971,12.454,13.2,39.521,23.331,43.838,4.4,1.91,42.261,7.057,85.02,12.122Z" transform="translate(-287.508 -69.933)" fill="#2e3192" opacity="0.2"/>
          <path id="Path_921" data-name="Path 921" d="M298.393,215a106.4,106.4,0,0,1-2.574-14.53,101.525,101.525,0,0,1,.415-26.07c-3.072.83-6.144,1.827-9.216,2.74a333.56,333.56,0,0,0-6.227,36.034c-.249,1.91-4.566,4.4-4.816,6.144-2.491,15.028-.415,31.384,2.989,38.608,1.578,3.321,4.65,6.227,8.8,8.635A51.565,51.565,0,0,1,308.605,238a64.892,64.892,0,0,1-5.148-9.8A90.3,90.3,0,0,1,298.393,215Z" transform="translate(-274.879 -84.782)" fill="#2e3192" opacity="0.2"/>
          <path id="Path_922" data-name="Path 922" d="M311.751,163.9c10.3-5.4,16.605-39.853-6.061-39.6h-.581c-6.559,12.288-11.79,27.9-15.609,44.586C295.81,168.387,305.358,167.225,311.751,163.9Z" transform="translate(-277.361 -76.278)" fill="#ed4e46"/>
          <path id="Path_923" data-name="Path 923" d="M324.812,100.328A8.388,8.388,0,0,0,324.148,99c-9.382,6.476-17.1,18.93-23.248,34.29,4.483.5,17.685-1.578,17.685-1.578l7.223-2.574S324.729,100.744,324.812,100.328Z" transform="translate(-279.296 -71.984)" fill="#585858"/>
          <path id="Path_924" data-name="Path 924" d="M324.791,87.659,322.3,129.421c3.9-.664,8.137-1.328,12.454-1.744,0,0-3.238-30.554-1.162-42.178C327.614,86.745,324.791,87.659,324.791,87.659Z" transform="translate(-282.928 -69.693)" fill="#0d0d0d"/>
          <path id="Path_925" data-name="Path 925" d="M461.281,91.5c-2.74-1.827-94.07,1.91-99.632,7.555-5.563,5.563,9.216,37.2,15.194,38.026,5.231.83,68.58,8.22,84.439,10.046Z" transform="translate(-289.398 -70.633)" fill="#0d0d0d"/>
          <g id="Group_526" data-name="Group 526" transform="translate(22.518 153.051)">
            <g id="Group_525" data-name="Group 525">
              <path id="Path_926" data-name="Path 926" d="M382.7,291.151A40.351,40.351,0,1,1,342.351,250.8,40.395,40.395,0,0,1,382.7,291.151Z" transform="translate(-302 -250.8)" fill="#585858"/>
              <path id="Path_927" data-name="Path 927" d="M380.151,294.742c.5.166.913.249,1.411.415.083-.747.083-1.578.166-2.325a.717.717,0,0,1-.5.249h-.83a.747.747,0,0,1,0-1.495h.83a.754.754,0,0,1,.581.249V291.5a20.216,20.216,0,0,0-.083-2.242c-.083,0-.083.083-.166.083-.5.166-1,.332-1.411.5a.776.776,0,0,1-.415-1.494c.5-.166,1-.332,1.411-.5a.529.529,0,0,1,.5,0c-.083-.5-.083-.913-.166-1.411a.873.873,0,0,1-1.079,0,.777.777,0,0,1,0-1.079,2.983,2.983,0,0,1,.83-.581,46.772,46.772,0,0,0-1.162-4.9.829.829,0,0,1-.332.415c-.083.083-.166.083-.249.166h0l-.083.083-.249.249-.083.083v.083a.783.783,0,1,1-1.328-.83,4.165,4.165,0,0,1,1.245-1.162.754.754,0,0,1,.83,0c-.581-1.578-1.162-3.155-1.91-4.733-.166.083-.415.249-.581.332-.249.166-.5.415-.5.581a.79.79,0,0,1-1.577,0,3.037,3.037,0,0,1,1.91-2.325c-.664-1.245-1.411-2.408-2.159-3.57h-.083a1.321,1.321,0,0,0-.747.747.726.726,0,0,1-1.079.249.791.791,0,0,1-.249-1.079,2.777,2.777,0,0,1,1.328-1.245c-.83-1.079-1.66-2.076-2.491-3.072-.083.083-.083.166-.166.166a3.512,3.512,0,0,0-.581.415,1.736,1.736,0,0,0-.332.5.816.816,0,0,1-1.578-.415,3.592,3.592,0,0,1,1.494-1.827c-.581-.581-1.162-1.162-1.827-1.744a.752.752,0,0,1-.913.5.854.854,0,0,1-.581-1c.083-.249.166-.415.249-.664-.664-.5-1.328-1.079-1.993-1.577h0c-.083,0-.083.083-.166.083h0l-.249.249-.249.249-.083.083v.083a.783.783,0,1,1-1.328-.83,4.351,4.351,0,0,1,.83-.913c-.664-.415-1.328-.83-1.993-1.162l-.913.913a.763.763,0,1,1-1.079-1.079,3.834,3.834,0,0,0,.581-.581c-.83-.415-1.744-.83-2.657-1.245a3.468,3.468,0,0,1-.913,1.245.763.763,0,0,1-1.079-1.079,2.586,2.586,0,0,0,.581-.747c-.581-.249-1.245-.415-1.91-.664A5.285,5.285,0,0,1,354,255.3c-.664.747-1.827-.332-1.079-1.079a2.764,2.764,0,0,0,.5-.83,23.774,23.774,0,0,0-2.325-.581,5.51,5.51,0,0,1-.5,1.661c-.5.83-1.827.083-1.328-.747a4.757,4.757,0,0,0,.332-1.162,23.964,23.964,0,0,0-2.408-.332v.249c-.166.415-.166.83-.332,1.162a1.344,1.344,0,0,1-1.578.581.854.854,0,0,1-.581-1,.825.825,0,0,1,.83-.581c.083-.166.083-.415.166-.664-.913-.083-1.827-.083-2.74-.083h-.664a5.648,5.648,0,0,1-.166,1.661.854.854,0,0,1-1,.581c-.415-.083-.581-.581-.581-1a5.482,5.482,0,0,0,.083-1.162,16.119,16.119,0,0,0-1.993.166h0c0,.664.249,1.494-.249,2.076a.783.783,0,1,1-1.328-.83c0-.083.083-.083.083-.166v-1a49.775,49.775,0,0,0-5.065,1.079c0,.332.083.581.083.913a.816.816,0,0,1-1.578.415c0-.249-.083-.581-.083-.83a23.667,23.667,0,0,0-2.574,1c.249.83.664,1.661-.166,2.325-.747.664-1.827-.415-1.079-1.079v-.166a.634.634,0,0,0-.166-.415,48.645,48.645,0,0,0-4.566,2.491c.166.5.415,1,.581,1.494a.823.823,0,0,1-.581,1,.9.9,0,0,1-1-.581c-.166-.332-.249-.664-.415-1.079a29.5,29.5,0,0,0-2.574,1.91,9.078,9.078,0,0,1,.664,1.245.776.776,0,1,1-1.494.415,2.488,2.488,0,0,0-.332-.664,39.717,39.717,0,0,0-3.238,3.238,6.924,6.924,0,0,1,.664,1,.783.783,0,0,1-1.328.83c-.083-.166-.249-.415-.332-.581-.581.747-1.162,1.495-1.744,2.325a5.82,5.82,0,0,0,.83.664.783.783,0,1,1-.83,1.328c-.332-.249-.581-.5-.913-.747-.332.5-.581,1-.913,1.495a1.146,1.146,0,0,1,.249.332.88.88,0,0,1-.249,1.079.623.623,0,0,1-.747,0c-.415.747-.83,1.578-1.162,2.325.332.083.581.249.913.332a.854.854,0,0,1,.581,1,.788.788,0,0,1-1,.581c-.332-.166-.747-.249-1.079-.415a39.529,39.529,0,0,0-1.577,4.733c.5.166,1.079.249,1.577.415a.776.776,0,0,1-.415,1.494c-.5-.083-1.079-.249-1.578-.332-.249,1.162-.415,2.325-.581,3.57.5.249,1.079.415,1.578.664a.783.783,0,0,1-.83,1.328,9.742,9.742,0,0,1-.913-.415c-.083,1-.166,2.076-.166,3.155a18.056,18.056,0,0,0,.083,2.159h.415a.79.79,0,0,1,0,1.577h-.332a41.766,41.766,0,0,0,.747,4.65l1.495-.249c1-.166,1.411,1.328.415,1.494l-1.495.249a12.832,12.832,0,0,0,.581,1.91,22.084,22.084,0,0,1,2.325-.249.79.79,0,0,1,0,1.578,13.579,13.579,0,0,0-1.827.166,46.1,46.1,0,0,0,2.657,5.812,3.5,3.5,0,0,1,2.076-.747.79.79,0,0,1,0,1.577,2.606,2.606,0,0,0-1.328.5,50.865,50.865,0,0,0,3.487,4.816,4.336,4.336,0,0,0,1.744-.332.776.776,0,1,1,.415,1.495c-.332.083-.581.166-.913.249.83.913,1.744,1.744,2.657,2.574a9.157,9.157,0,0,0,2.076-1.578c.664-.747,1.827.332,1.079,1.079a8.451,8.451,0,0,1-1.91,1.494,32.136,32.136,0,0,0,4.4,3.072,12.936,12.936,0,0,1,1.328-1.661c.747-.664,1.827.415,1.079,1.079a15.168,15.168,0,0,0-1.079,1.328,38.1,38.1,0,0,0,4.151,1.993,4.921,4.921,0,0,1,1-1.661c.747-.747,1.827.415,1.079,1.079a2.929,2.929,0,0,0-.664,1.079,31.554,31.554,0,0,0,4.566,1.328,9.078,9.078,0,0,1,.664-1.245.783.783,0,1,1,1.328.83,3.365,3.365,0,0,0-.415.747,38.341,38.341,0,0,0,5.4.664,7.149,7.149,0,0,1,.249-2.325.776.776,0,0,1,1.494.415,8.086,8.086,0,0,0-.166,1.993h.332c1.162,0,2.325-.083,3.4-.166.166-.83.249-1.661.415-2.408a.776.776,0,0,1,1.494.415,14.073,14.073,0,0,0-.332,1.827,38.8,38.8,0,0,0,5.563-1.162c-.249-.913-.913-1.744-1.162-2.74-.166-1,1.328-1.411,1.495-.415a18.739,18.739,0,0,0,1.079,2.74,43.027,43.027,0,0,0,5.4-2.159,16.613,16.613,0,0,0-1.578-1.827c-.747-.664.332-1.827,1.079-1.079a23.652,23.652,0,0,1,1.91,2.159,32.091,32.091,0,0,0,3.57-2.242,1.144,1.144,0,0,0-.332-.249c-.83-.581,0-1.91.747-1.328.249.166.581.415.83.581.83-.664,1.578-1.328,2.408-1.993a4.106,4.106,0,0,1-1.328-1.577.783.783,0,1,1,1.328-.83,4.223,4.223,0,0,0,1.079,1.328,45.488,45.488,0,0,0,3.321-3.653,5.811,5.811,0,0,1-2.491-2.408c-.332-.913,1.162-1.328,1.494-.415a2.862,2.862,0,0,0,1,1c.332.166.581.415.913.581a30.084,30.084,0,0,0,2.242-3.4.718.718,0,0,1-.5-.249c-.5-.581-1-1.079-1.494-1.661a.763.763,0,0,1,1.079-1.079c.5.581,1,1.079,1.494,1.661a.081.081,0,0,0,.083.083,33.073,33.073,0,0,0,1.993-4.234,19.4,19.4,0,0,1-2.076-.581.776.776,0,0,1,.415-1.495c.747.166,1.494.415,2.242.581.415-1.162.747-2.325,1.079-3.487a.982.982,0,0,1-.83.083c-.581-.249-1.162-.415-1.744-.664a.783.783,0,1,1,.83-1.328c.581.249,1.162.415,1.743.664a.648.648,0,0,1,.332.332c.249-1,.415-2.076.581-3.072h-.083c-.5-.166-1.079-.249-1.577-.415C378.822,295.9,379.238,294.41,380.151,294.742Z" transform="translate(-302.272 -250.987)" fill="#0e0e0e"/>
              <path id="Path_928" data-name="Path 928" d="M373.19,293.6a28.4,28.4,0,1,1-28.4-28.4A28.383,28.383,0,0,1,373.19,293.6Z" transform="translate(-304.444 -253.244)" fill="#bcbec0"/>
              <path id="Path_929" data-name="Path 929" d="M331.191,276.5s.581-.83,1.245-.332c.664.415,2.823,5.148,2.325,6.227s-2.408,1.661-2.657.913C331.855,282.478,330.942,277.745,331.191,276.5Z" transform="translate(-306.947 -255.079)" fill="#fff"/>
              <path id="Path_930" data-name="Path 930" d="M334.643,273.8s-.913.249-.747,1.079c.166.747,3.9,4.4,5.065,4.234s2.408-1.661,1.744-2.242C340.04,276.374,335.889,273.966,334.643,273.8Z" transform="translate(-307.41 -254.704)" fill="#fff"/>
              <path id="Path_931" data-name="Path 931" d="M365.949,274.5s.913.415.664,1.162-4.4,3.985-5.563,3.653c-1.162-.249-2.159-1.91-1.495-2.408C360.3,276.493,364.621,274.583,365.949,274.5Z" transform="translate(-311.733 -254.823)" fill="#fff"/>
              <path id="Path_932" data-name="Path 932" d="M369.925,277.282s-.5-.83-1.245-.5-3.4,4.816-2.989,5.895,2.159,1.91,2.574,1.162A25.29,25.29,0,0,0,369.925,277.282Z" transform="translate(-312.803 -255.197)" fill="#fff"/>
              <path id="Path_933" data-name="Path 933" d="M377.651,304.153s.083,1-.747,1.079-5.48-2.076-5.812-3.238c-.249-1.162.747-2.823,1.411-2.408A26.084,26.084,0,0,1,377.651,304.153Z" transform="translate(-313.72 -259.069)" fill="#fff"/>
              <path id="Path_934" data-name="Path 934" d="M376.606,309.225s.5-.83-.083-1.328c-.664-.5-5.812-.83-6.642,0-.83.913-.747,2.823.083,2.823S375.527,309.889,376.606,309.225Z" transform="translate(-313.422 -260.405)" fill="#fff"/>
              <path id="Path_935" data-name="Path 935" d="M351.96,328.5s-1,.166-1.162-.581,1.411-5.729,2.491-6.144,2.906.415,2.574,1.162S352.956,327.755,351.96,328.5Z" transform="translate(-310.28 -262.828)" fill="#fff"/>
              <path id="Path_936" data-name="Path 936" d="M347.123,328.131s.913.415,1.245-.249c.415-.664.083-5.895-.83-6.559-1-.664-2.906-.415-2.74.415C344.964,322.485,346.375,327.134,347.123,328.131Z" transform="translate(-309.262 -262.705)" fill="#fff"/>
              <path id="Path_937" data-name="Path 937" d="M323.263,308.167s-.5-.83.166-1.328c.664-.415,5.895-.5,6.642.415s.581,2.823-.249,2.823A24.078,24.078,0,0,1,323.263,308.167Z" transform="translate(-305.579 -260.261)" fill="#fff"/>
              <path id="Path_938" data-name="Path 938" d="M322.2,303.222s-.083,1,.664,1.162,5.646-1.827,5.978-2.906c.332-1.162-.581-2.906-1.328-2.491S322.864,302.142,322.2,303.222Z" transform="translate(-305.428 -258.968)" fill="#fff"/>
              <g id="Group_523" data-name="Group 523" transform="translate(13.45 13.533)">
                <path id="Path_939" data-name="Path 939" d="M345.018,267.349a26.569,26.569,0,1,1-26.569,26.569,26.54,26.54,0,0,1,26.569-26.569m0-.249a26.818,26.818,0,1,0,26.818,26.818A26.859,26.859,0,0,0,345.018,267.1Z" transform="translate(-318.2 -267.1)" fill="#10133a"/>
              </g>
              <path id="Path_940" data-name="Path 940" d="M361.1,296.7a13.2,13.2,0,1,1-13.2-13.2A13.182,13.182,0,0,1,361.1,296.7Z" transform="translate(-307.55 -256.35)" fill="#fff"/>
              <path id="Path_941" data-name="Path 941" d="M359.98,296.99a11.79,11.79,0,1,1-11.79-11.79A11.782,11.782,0,0,1,359.98,296.99Z" transform="translate(-307.839 -256.639)" fill="#bcbec0"/>
              <path id="Path_942" data-name="Path 942" d="M353.8,287.481c-.332-.5-3.9-.581-3.9-.581s-3.57.083-3.9.581,3.9,2.989,3.9,2.989S354.133,287.979,353.8,287.481Z" transform="translate(-309.464 -256.927)"/>
              <path id="Path_943" data-name="Path 943" d="M361.968,298.655c.332-.5-.664-3.985-.664-3.985s-1.162-3.4-1.744-3.57-1.661,4.65-1.661,4.65S361.636,299.153,361.968,298.655Z" transform="translate(-311.488 -257.639)"/>
              <path id="Path_944" data-name="Path 944" d="M338.186,298.655c-.332-.5.664-3.985.664-3.985s1.162-3.4,1.744-3.57,1.66,4.65,1.66,4.65S338.6,299.153,338.186,298.655Z" transform="translate(-308.13 -257.639)"/>
              <path id="Path_945" data-name="Path 945" d="M354.474,309.691c.581.166,3.4-2.159,3.4-2.159s2.657-2.491,2.574-3.072-4.982.332-4.982.332S353.893,309.525,354.474,309.691Z" transform="translate(-310.885 -259.875)"/>
              <path id="Path_946" data-name="Path 946" d="M345.378,309.691c-.581.166-3.4-2.159-3.4-2.159s-2.657-2.491-2.574-3.072,4.982.332,4.982.332S345.959,309.525,345.378,309.691Z" transform="translate(-308.348 -259.875)"/>
              <g id="Group_524" data-name="Group 524" transform="translate(37.196 37.196)">
                <path id="Path_947" data-name="Path 947" d="M350.038,296.1a2.657,2.657,0,1,1-2.657,2.657,2.574,2.574,0,0,1,2.657-2.657m0-.5a3.238,3.238,0,1,0,3.238,3.238,3.3,3.3,0,0,0-3.238-3.238Z" transform="translate(-346.8 -295.6)" fill="#fff"/>
              </g>
              <path id="Path_948" data-name="Path 948" d="M358.685,270.311c-.83-1.162-9.8-1.411-9.8-1.411s-8.967.249-9.8,1.411,9.8,7.472,9.8,7.472S359.515,271.557,358.685,270.311Z" transform="translate(-308.288 -253.872)"/>
              <path id="Path_949" data-name="Path 949" d="M379.212,298.528c.913-1.162-1.578-9.88-1.578-9.88s-2.989-8.635-4.4-9.05S369,291.3,369,291.3,378.3,299.69,379.212,298.528Z" transform="translate(-313.372 -255.686)"/>
              <path id="Path_950" data-name="Path 950" d="M319.659,298.528c-.913-1.162,1.577-9.88,1.577-9.88s2.989-8.635,4.4-9.05,4.234,11.707,4.234,11.707S320.572,299.69,319.659,298.528Z" transform="translate(-304.963 -255.686)"/>
              <path id="Path_951" data-name="Path 951" d="M360.431,325.916c1.411.332,8.469-5.48,8.469-5.48s6.642-6.227,6.476-7.638c-.166-1.494-12.454.83-12.454.83S358.937,325.584,360.431,325.916Z" transform="translate(-311.861 -261.238)"/>
              <path id="Path_952" data-name="Path 952" d="M337.744,325.916c-1.411.332-8.469-5.48-8.469-5.48s-6.642-6.227-6.476-7.638c.166-1.494,12.454.83,12.454.83S339.156,325.584,337.744,325.916Z" transform="translate(-305.53 -261.238)"/>
            </g>
          </g>
          <path id="Path_953" data-name="Path 953" d="M305.861,279.2c3.487.913,6.974,1.91,10.461,2.906,7.057,1.993,14.115,3.57,21.172,5.4,14.945,3.9,29.724,8.3,44.419,12.952a42.55,42.55,0,0,0,1.079-9.3A40.371,40.371,0,0,0,304.2,278.78,12.141,12.141,0,0,1,305.861,279.2Z" transform="translate(-279.856 -97.749)" fill="#0d0d0d" opacity="0.2"/>
          <path id="Path_954" data-name="Path 954" d="M386.738,334.745l.166-.166c-1.162-.332-2.242-.664-3.4-1.079Z" transform="translate(-293.315 -111.786)" fill="#2e3192" opacity="0.2"/>
          <path id="Path_955" data-name="Path 955" d="M299.864,161.74s-.913-2.159-6.061-2.74h-.913a288.262,288.262,0,0,0-7.389,31.633C303.683,177.93,299.864,161.74,299.864,161.74Z" transform="translate(-276.682 -82.168)" fill="#ed4e46"/>
          <path id="Path_956" data-name="Path 956" d="M465.148,109.363c-.664-7.971-1.411-14.364-2.408-15.526-2.408-2.989-77.63,3.4-77.63,3.4L383.2,136.1l81.948,9.88Z" transform="translate(-293.265 -70.973)" fill="#373737"/>
          <path id="Path_957" data-name="Path 957" d="M372.4,119.749c.249,0,5.895-.249,5.895-.249v16.439l-4.068-.5Z" transform="translate(-291.431 -75.464)" fill="#373737"/>
          <path id="Path_958" data-name="Path 958" d="M291.245,181.959c-.581,3.487-1.495,6.227-2.159,6.144s-.747-2.989-.166-6.559c.581-3.487,1.495-6.227,2.159-6.144S291.826,178.472,291.245,181.959Z" transform="translate(-277.197 -84.951)" fill="#fff"/>
          <path id="Path_959" data-name="Path 959" d="M294.872,159.677c.083-.249,6.559,0,6.559,0s-1.494,10.627-7.888,10.544C293.544,170.222,291.136,170.554,294.872,159.677Z" transform="translate(-277.918 -82.264)" fill="#fff"/>
          <path id="Path_960" data-name="Path 960" d="M331.27,206.435a8.635,8.635,0,1,1-8.635-8.635A8.736,8.736,0,0,1,331.27,206.435Z" transform="translate(-281.519 -88.753)" fill="none" stroke="#10133a" stroke-miterlimit="10" stroke-width="0.271"/>
          <path id="Path_961" data-name="Path 961" d="M317.985,203.968a17.046,17.046,0,0,1-.5-4.068,8.607,8.607,0,0,0,5.148,15.526,9.071,9.071,0,0,0,4.483-1.245C322.8,212.188,319.148,208.7,317.985,203.968Z" transform="translate(-281.519 -89.11)" fill="#2e3192" opacity="0.2"/>
          <path id="Path_962" data-name="Path 962" d="M464.52,154.634c-40.434-5.314-76.966-9.548-85.02-8.469,0,0,39.77,5.231,85.02,11.458Z" transform="translate(-292.637 -79.961)" fill="#0d0d0d"/>
          <path id="Path_963" data-name="Path 963" d="M474.364,261.672,437.5,258.6s7.721,5.148,11.707,5.895c1,.166,10.793,1.245,25.157,2.74Z" transform="translate(-302.481 -99.073)" fill="#2e3192" opacity="0.2"/>
          <path id="Path_964" data-name="Path 964" d="M469.849,282.019c-29.724-1-52.141-1.245-53.3-.249-1.91,1.578-3.985,7.722-5.646,13.7.083,1.079.083,2.159.083,3.238l58.866,1.328Z" transform="translate(-297.966 -102.898)" fill="#2e3192" opacity="0.2"/>
        </g>
      </g>
    </g>
    <g id="Group_530" data-name="Group 530" transform="translate(27.554 21.008)">
      <rect id="Rectangle_1476" data-name="Rectangle 1476" width="107.022" height="54.3" transform="translate(0 2.657)" fill="#e0dfdf"/>
      <rect id="Rectangle_1477" data-name="Rectangle 1477" width="103.369" height="49.65" transform="translate(1.827 4.982)" fill="#d5d5e9" opacity="0.2"/>
      <rect id="Rectangle_1478" data-name="Rectangle 1478" width="104.863" height="2.325" transform="translate(1.079 20.508)" opacity="0.2"/>
      <rect id="Rectangle_1479" data-name="Rectangle 1479" width="104.863" height="2.325" transform="translate(1.079 38.358)" opacity="0.2"/>
      <rect id="Rectangle_1480" data-name="Rectangle 1480" width="1.827" height="4.982" transform="translate(105.195)" fill="#0e0e0e"/>
      <rect id="Rectangle_1481" data-name="Rectangle 1481" width="1.827" height="4.982" fill="#0e0e0e"/>
    </g>
    <g id="Group_531" data-name="Group 531" transform="translate(149.437 261.537)">
      <path id="Path_965" data-name="Path 965" d="M429.98,397.784c-4.566-1.993-15.858-6.144-38.857-11.624-29.558-6.974-77.63-4.317-106.441-2.74-2.325.166-4.483.249-6.476.332-10.794.581-26.9,0-41.1-1.411-5.729-.581-10.212-1.162-13.783-1.827,20.093,1.162,49.4,1.162,55.379-1.162.415-.166,1.494-.581,1.661-1.661a1.912,1.912,0,0,0-.747-1.744c-4.733-3.819-51.394-8.22-66.422-2.491-1,.332-3.736,1.411-3.9,3.321a19.637,19.637,0,0,1-4.234-.913,1.613,1.613,0,0,1,.249-1.079c.747-1.079,2.823-1.661,4.483-1.827,5.646-.581,14.862-5.148,13.367-29.475-1.744-27.316-45.167-31.3-46.993-31.384L176,314.591c.415,0,43.174,3.9,44.752,29.059,1,16.439-2.906,25.987-11.126,26.9-1.079.083-4.733.664-6.31,2.906a4.206,4.206,0,0,0-.581,3.487c.249,1.162,1.494,1.827,7.389,2.574.249,0,.581.083.913.083,2.491,1.494,8.718,3.487,25.157,5.231a301.534,301.534,0,0,0,42.095,1.494c1.993-.083,4.151-.249,6.476-.332,28.644-1.578,76.551-4.234,105.693,2.657,24.742,5.812,35.868,10.3,39.438,11.873v-2.74ZM211.951,377.193a5.652,5.652,0,0,1,2.325-1.245c14.364-5.48,54.632-1.162,62.685,1.494-8.967,2.076-47.824,1.744-65.01-.249Z" transform="translate(-176 -312.1)" fill="#585858"/>
    </g>
    <g id="Group_533" data-name="Group 533" transform="translate(19.5 193.201)">
      <path id="Path_966" data-name="Path 966" d="M72.794,230.214s59.946,16.024,60.693,16.19,16.605,9.714,6.061,26.237c-10.627,16.522-16.024,12.62-16.356,12.62s-37.777,1.162-47.658-.664c-9.88-1.744-15.028-5.646-18.183-7.472a12.475,12.475,0,0,1-4.4-3.985S36.1,263.01,45.063,244.08C53.448,226.395,72.047,230.048,72.794,230.214Z" transform="translate(-23.393 -229.793)"/>
      <path id="Path_967" data-name="Path 967" d="M72.8,234.5c.581.083,66.754,20.259,67.75,20.508s-1.661,17.768-2.076,18.349c-.332.581-52.722,4.234-60.527,4.068-7.8-.083-7.8-30.471-7.472-31.882S72.8,234.5,72.8,234.5Z" transform="translate(-28.135 -230.592)" fill="#292929"/>
      <path id="Path_968" data-name="Path 968" d="M155.122,265.011A15.111,15.111,0,1,1,140.011,249.9,15.113,15.113,0,0,1,155.122,265.011Z" transform="translate(-37.39 -233.206)" fill="#fff"/>
      <path id="Path_969" data-name="Path 969" d="M153.008,265.554A12.454,12.454,0,1,1,140.554,253.1,12.437,12.437,0,0,1,153.008,265.554Z" transform="translate(-37.933 -233.749)" fill="#bcbec0"/>
      <path id="Path_970" data-name="Path 970" d="M91.069,254.634A22.334,22.334,0,1,1,68.734,232.3,22.341,22.341,0,0,1,91.069,254.634Z" transform="translate(-24.066 -230.219)" fill="#bcbec0"/>
      <path id="Path_971" data-name="Path 971" d="M89.021,255.16A19.76,19.76,0,1,1,69.26,235.4,19.754,19.754,0,0,1,89.021,255.16Z" transform="translate(-24.592 -230.745)" fill="#fff"/>
      <path id="Path_972" data-name="Path 972" d="M169.779,317.517a36.143,36.143,0,0,1-36.117,36.117H55.617A36.143,36.143,0,0,1,19.5,317.517h0A36.143,36.143,0,0,1,55.617,281.4h78.045a36.143,36.143,0,0,1,36.117,36.117Z" transform="translate(-19.5 -238.552)" fill="#70bdf1"/>
      <path id="Path_973" data-name="Path 973" d="M150.783,337.6a178.932,178.932,0,0,1-31.965-.913,267.889,267.889,0,0,1-41.43-7.721,173.4,173.4,0,0,1-31.135-11.624,77,77,0,0,1-10.96-6.642,123.957,123.957,0,0,1-10.461-8.3,36.086,36.086,0,0,0,30.886,54.8h78.045a36.129,36.129,0,0,0,32.879-21.172C161.327,336.69,156.1,337.271,150.783,337.6Z" transform="translate(-19.517 -242.117)" fill="#51a8e3"/>
      <path id="Path_974" data-name="Path 974" d="M75.238,367.269a12.88,12.88,0,0,1-12.869,12.869h0A12.88,12.88,0,0,1,49.5,367.269h0A12.88,12.88,0,0,1,62.369,354.4h0a12.88,12.88,0,0,1,12.869,12.869Z" transform="translate(-24.592 -250.943)" fill="#0e0e0e"/>
      <path id="Path_975" data-name="Path 975" d="M156.977,373.238a7.618,7.618,0,0,1-7.638,7.638h0a7.618,7.618,0,0,1-7.638-7.638h0a7.618,7.618,0,0,1,7.638-7.638h0a7.618,7.618,0,0,1,7.638,7.638Z" transform="translate(-40.241 -252.843)" fill="#0e0e0e"/>
      <path id="Path_976" data-name="Path 976" d="M155.027,373.714a5.351,5.351,0,0,1-5.314,5.314h0a5.351,5.351,0,0,1-5.314-5.314h0a5.351,5.351,0,0,1,5.314-5.314h0a5.246,5.246,0,0,1,5.314,5.314Z" transform="translate(-40.699 -253.319)" fill="#fff"/>
      <path id="Path_977" data-name="Path 977" d="M72.134,368.067a8.93,8.93,0,0,1-8.967,8.967h0a8.983,8.983,0,0,1-8.967-8.967h0a8.93,8.93,0,0,1,8.967-8.967h0a9.036,9.036,0,0,1,8.967,8.967Z" transform="translate(-25.39 -251.74)" fill="#fff"/>
      <path id="Path_978" data-name="Path 978" d="M81.821,282.453c0,4.151-4.816,7.472-10.71,7.472h0c-5.895,0-10.71-3.321-10.71-7.472V268.172c0-4.151,4.816-7.472,10.71-7.472h0c5.978,0,10.71,3.321,10.71,7.472Z" transform="translate(-26.442 -235.039)" fill="#51a8e3"/>
      <rect id="Rectangle_1482" data-name="Rectangle 1482" width="25.489" height="9.382" transform="translate(64.512 41.27)" fill="#0e0e0e"/>
      <g id="Group_532" data-name="Group 532" transform="translate(130.186 28.766)">
        <path id="Path_979" data-name="Path 979" d="M225.784,266.15c-4.65-2.657-9.548-2.159-12.371,1.079-1.993,2.242-4.733,5.729-7.638,9.382-5.4,6.725-13.533,16.938-15.36,17.685a.29.29,0,0,0-.166.083,14.325,14.325,0,0,1,1.578,2.325c2.491-1.328,7.888-7.888,16.273-18.349,2.906-3.653,5.646-7.057,7.638-9.3,2.325-2.74,6.061-1.993,8.8-.5,3.072,1.744,5.895,5.231,4.9,8.22-5.231,16.024-18.1,36.7-20.176,38.109-4.566,2.823-24.244,2.989-31.467,2.823a1.454,1.454,0,0,0-.083,2.906c.664,0,2.408.083,4.816.083,8.054,0,23.58-.415,28.229-3.238,3.155-1.91,16.273-23.829,21.421-39.687C233.423,273.291,229.935,268.558,225.784,266.15Z" transform="translate(-176.3 -264.44)" fill="#585858"/>
      </g>
      <rect id="Rectangle_1483" data-name="Rectangle 1483" width="16.439" height="3.238" transform="translate(67.833 42.1)" fill="#70bdf1"/>
    </g>
    <g id="Group_534" data-name="Group 534" transform="translate(323.297 280.937)">
      <path id="Path_980" data-name="Path 980" d="M465.521,384.48c-27.316-2.657-74.143-9.216-77.547-19.1-.166-.581-.747-2.159,2.076-4.816,12.371-11.292,36.283-14.2,50.563-16.024,9.382-1.162,11.541-1.494,11.79-3.321.166-1.412-1.411-2.159-2.906-2.74-13.284-5.065-40.019-2.242-41.1-2.159l.249,2.491c.249,0,27.233-2.823,40.019,1.993h.083c-1.91.415-5.148.83-8.386,1.162-14.53,1.827-38.94,4.816-51.892,16.605-2.657,2.491-3.653,4.982-2.74,7.472,4.234,12.205,56.541,18.6,79.872,20.84V384.48Z" transform="translate(-385.401 -335.466)" fill="#585858"/>
    </g>
    <g id="Group_536" data-name="Group 536" transform="translate(80.027 61.11)">
      <g id="Group_535" data-name="Group 535">
        <path id="Path_981" data-name="Path 981" d="M111.154,70.7h-7.8c-.083,0-.249.083-.249.166v2.076a.265.265,0,0,0,.249.249h.332a.265.265,0,0,0,.249-.249V71.53h6.559v1.411a.265.265,0,0,0,.249.249h.332a.265.265,0,0,0,.249-.249V70.949C111.486,70.783,111.32,70.7,111.154,70.7Z" transform="translate(-94.216 -70.7)" fill="#0e0e0e"/>
        <path id="Path_982" data-name="Path 982" d="M117.48,76.649c0-.166-.249-.249-.5-.249H94.4c-.249,0-.5.166-.5.249v8.8c0,.166.249.249.5.249h22.583c.249,0,.5-.166.5-.249v-8.8Z" transform="translate(-92.655 -71.667)" fill="#70bdf1"/>
        <rect id="Rectangle_1484" data-name="Rectangle 1484" width="23.58" height="0.996" transform="translate(1.245 6.559)" fill="#51a8e3"/>
        <path id="Path_983" data-name="Path 983" d="M118.47,77.817c0,.166-.249.249-.5.249H92.9c-.249,0-.5-.166-.5-.249V73.749c0-.166.249-.249.5-.249h25.157c.249,0,.5.166.5.249v4.068Z" transform="translate(-92.4 -71.175)" fill="#70bdf1"/>
        <path id="Path_984" data-name="Path 984" d="M118.162,79.927a.265.265,0,0,1-.249.249h-.664a.265.265,0,0,1-.249-.249V78.349a.265.265,0,0,1,.249-.249h.664a.265.265,0,0,1,.249.249Z" transform="translate(-96.575 -71.956)" fill="#0e0e0e"/>
        <path id="Path_985" data-name="Path 985" d="M98.362,79.944a.371.371,0,0,1-.249.332h-.664a.265.265,0,0,1-.249-.249V78.449a.265.265,0,0,1,.249-.249h.664a.265.265,0,0,1,.249.249Z" transform="translate(-93.215 -71.973)" fill="#0e0e0e"/>
      </g>
    </g>
    <g id="Group_538" data-name="Group 538" transform="translate(41.253 14.2)">
      <g id="Group_537" data-name="Group 537" transform="translate(0)">
        <path id="Path_986" data-name="Path 986" d="M55.669,21.083a4.241,4.241,0,1,0-8.469,0,4.364,4.364,0,0,0,4.234,4.483A4.473,4.473,0,0,0,55.669,21.083Z" transform="translate(-45.955 -14.607)" fill="#fff"/>
        <path id="Path_987" data-name="Path 987" d="M55.635,41.811a.655.655,0,0,1-.664.664H47.664A.655.655,0,0,1,47,41.811V22.964a.655.655,0,0,1,.664-.664h7.306a.655.655,0,0,1,.664.664Z" transform="translate(-45.921 -15.575)" fill="#70bdf1"/>
        <path id="Path_988" data-name="Path 988" d="M56.577,22.462c0,.249-.249.415-.664.415H46.364c-.332,0-.664-.166-.664-.415v-.747c0-.249.249-.415.664-.415h9.548c.332,0,.664.166.664.415Z" transform="translate(-45.7 -15.405)" fill="#0e0e0e"/>
        <rect id="Rectangle_1485" data-name="Rectangle 1485" width="0.498" height="2.325" transform="translate(5.231 0.166)" fill="#fff"/>
        <path id="Path_989" data-name="Path 989" d="M52.762,15.445a.357.357,0,0,1-.332.332h-.5a.357.357,0,0,1-.332-.332v-.913a.357.357,0,0,1,.332-.332h.415a.357.357,0,0,1,.332.332v.913Z" transform="translate(-46.701 -14.2)" fill="#0e0e0e"/>
        <rect id="Rectangle_1486" data-name="Rectangle 1486" width="5.231" height="14.447" transform="translate(1.245 9.631)" fill="#fff"/>
      </g>
      <path id="Path_990" data-name="Path 990" d="M50.266,38.623a27.47,27.47,0,0,1-1.328-8.22c0-1.245,0-2.491.083-3.736a13.849,13.849,0,0,1,.415-2.574c.083-.332.166-.581.249-.913a8.391,8.391,0,0,1,.249-1.411,5.765,5.765,0,0,1,.415-1.079l-1-1.245.083.083a6.193,6.193,0,0,1-.747-1.245,4.047,4.047,0,0,1-.249-.581,4.139,4.139,0,0,0-1.494,2.823h-.581c-.332,0-.664.166-.664.415v.747c0,.249.249.415.664.415h.5V40.782a.655.655,0,0,0,.664.664h3.9A18.092,18.092,0,0,1,50.266,38.623Z" transform="translate(-45.7 -14.794)" fill="#2e3192" opacity="0.2"/>
    </g>
    <g id="Group_542" data-name="Group 542" transform="translate(116.06 17.853)">
      <g id="Group_541" data-name="Group 541" transform="translate(0 0)">
        <path id="Path_991" data-name="Path 991" d="M140.991,21.257a.744.744,0,0,1-.747.747h-1a.744.744,0,0,1-.747-.747v-1.91a.744.744,0,0,1,.747-.747h1a.744.744,0,0,1,.747.747Z" transform="translate(-136.258 -18.6)" fill="#0e0e0e"/>
        <g id="Group_540" data-name="Group 540" transform="translate(0 2.159)">
          <g id="Group_539" data-name="Group 539">
            <path id="Path_992" data-name="Path 992" d="M143.106,25.019a3.724,3.724,0,0,0-3.653-3.819,3.823,3.823,0,0,0,0,7.638A3.723,3.723,0,0,0,143.106,25.019Z" transform="translate(-135.8 -21.2)" fill="#70bdf1"/>
            <path id="Path_993" data-name="Path 993" d="M143.106,42.871a.479.479,0,0,1-.5.5H136.3a.479.479,0,0,1-.5-.5V26.6a.479.479,0,0,1,.5-.5h6.31a.479.479,0,0,1,.5.5Z" transform="translate(-135.8 -22.032)" fill="#70bdf1"/>
          </g>
        </g>
        <path id="Path_994" data-name="Path 994" d="M139.983,19.085v.166A2.3,2.3,0,0,1,139.9,20a10.026,10.026,0,0,1,8.054,1.91l.664-.249A11.03,11.03,0,0,0,139.983,19.085Z" transform="translate(-136.496 -18.67)" fill="#0e0e0e"/>
        <rect id="Rectangle_1487" data-name="Rectangle 1487" width="4.483" height="12.454" transform="translate(2.823 8.635)" fill="#fff"/>
      </g>
      <path id="Path_995" data-name="Path 995" d="M138.291,32.148l-.5-2.989a58.178,58.178,0,0,1-1-6.476V22.6a3.771,3.771,0,0,0-1,2.657V42.194a.479.479,0,0,0,.5.5h5.563q-1-2.242-1.744-4.483A36.569,36.569,0,0,1,138.291,32.148Z" transform="translate(-135.8 -19.279)" fill="#2e3192" opacity="0.2"/>
    </g>
    <g id="Group_543" data-name="Group 543" transform="translate(169.982 171.37)">
      <path id="Path_996" data-name="Path 996" d="M303.661,331.86h-2.325c-4.068-.083-7.971-.166-11.707-.166-28.561-.332-47.491-.5-62.1-20.508-16.605-22.832-29.641-88.009-26.237-107.686l2.491.415c-3.238,18.847,9.88,83.94,25.821,105.859,13.866,19.013,32.214,19.179,60.112,19.511,3.736,0,7.638.083,11.707.166,34.29.747,75.472-15.194,75.887-15.36l1,2.076C377.8,316.251,337.951,331.86,303.661,331.86Z" transform="translate(-200.745 -203.5)" fill="#585858"/>
    </g>
  </g>
</svg>
