<svg xmlns="http://www.w3.org/2000/svg" width="372.311" height="333.303" viewBox="0 0 372.311 333.303">
  <g id="vector-2" transform="translate(-21.394 -42.73)">
    <path id="Path_442" data-name="Path 442" d="M439.219,369.9c-118.978,2.353-206.819,10.431-206.819,20s87.841,17.647,206.819,20Z" transform="translate(-45.514 -70.571)" fill="#bfbfbf" opacity="0.5"/>
    <g id="Group_361" data-name="Group 361" transform="translate(21.394 182.468)">
      <g id="Group_357" data-name="Group 357" transform="translate(19.926 100.469)">
        <g id="Group_356" data-name="Group 356">
          <path id="Path_443" data-name="Path 443" d="M56.761,442.1V364.215h82.351V442.1h9.961V349H46.8v93.1Z" transform="translate(-46.8 -349)" fill="#e6e6e5"/>
          <rect id="Rectangle_1472" data-name="Rectangle 1472" width="97.018" height="11.451" transform="translate(2.588 70.901)" fill="#e6e6e5"/>
        </g>
        <path id="Path_444" data-name="Path 444" d="M142.6,368.4l17.176,17.647V368.4Z" transform="translate(-67.464 -353.185)" fill="#e6e6e5"/>
        <path id="Path_445" data-name="Path 445" d="M76.676,368.4,59.5,386.047V368.4Z" transform="translate(-49.539 -353.185)" fill="#e6e6e5"/>
      </g>
      <g id="Group_360" data-name="Group 360">
        <path id="Path_446" data-name="Path 446" d="M141.369,302.9a8.15,8.15,0,0,1-8.157,8.157H69.057A8.15,8.15,0,0,1,60.9,302.9V250.357a8.15,8.15,0,0,1,8.157-8.157h64.156a8.15,8.15,0,0,1,8.157,8.157Z" transform="translate(-29.916 -225.494)" fill="#292929"/>
        <path id="Path_447" data-name="Path 447" d="M133.418,336.737c0,4.47-3.216,8.157-7.294,8.157H83.616c-4,0-7.216-3.608-7.216-8.157v-6.98c0-4.47,3.216-8.157,7.216-8.157H126.2c4,0,7.294,3.608,7.294,8.157v6.98Z" transform="translate(-33.259 -242.621)" fill="#292929"/>
        <path id="Path_448" data-name="Path 448" d="M138.959,335.055A5.255,5.255,0,0,0,133.7,329.8H70.255A5.255,5.255,0,0,0,65,335.055h0a5.255,5.255,0,0,0,5.255,5.255H133.7a5.255,5.255,0,0,0,5.255-5.255Z" transform="translate(-30.8 -244.39)" fill="#292929"/>
        <path id="Path_449" data-name="Path 449" d="M171.872,297.054a8.15,8.15,0,0,1-8.157,8.157h-7.059a8.15,8.15,0,0,1-8.157-8.157v-33.1a8.15,8.15,0,0,1,8.157-8.157h7.059a8.15,8.15,0,0,1,8.157,8.157Z" transform="translate(-48.811 -228.428)" fill="#292929"/>
        <path id="Path_450" data-name="Path 450" d="M69.372,295.776a8.15,8.15,0,0,1-8.157,8.157H54.157A8.15,8.15,0,0,1,46,295.776V262.757a8.15,8.15,0,0,1,8.157-8.157h7.059a8.15,8.15,0,0,1,8.157,8.157Z" transform="translate(-26.702 -228.169)" fill="#292929"/>
        <path id="Path_451" data-name="Path 451" d="M56.066,290.262a8.15,8.15,0,0,1-8.157,8.157H37.557a8.15,8.15,0,0,1-8.157-8.157v-8.706a8.15,8.15,0,0,1,8.157-8.157H47.988a8.15,8.15,0,0,1,8.157,8.157v8.706Z" transform="translate(-23.121 -232.224)" fill="#292929"/>
        <g id="Group_9215" data-name="Group 9215">
          <path id="Path_452" data-name="Path 452" d="M150.931,310.286a3.23,3.23,0,0,1-3.216,3.216h0a3.23,3.23,0,0,1-3.216-3.216v-28.47a3.23,3.23,0,0,1,3.216-3.216h0a3.23,3.23,0,0,1,3.216,3.216Z" transform="translate(-47.948 -233.346)" fill="#585858" opacity="0.2"/>
          <path id="Path_453" data-name="Path 453" d="M133.331,310.286a3.23,3.23,0,0,1-3.216,3.216h0a3.23,3.23,0,0,1-3.216-3.216v-28.47a3.23,3.23,0,0,1,3.216-3.216h0a3.23,3.23,0,0,1,3.216,3.216Z" transform="translate(-44.152 -233.346)" fill="#585858" opacity="0.2"/>
          <path id="Path_454" data-name="Path 454" d="M115.831,310.286a3.23,3.23,0,0,1-3.216,3.216h0a3.23,3.23,0,0,1-3.216-3.216v-28.47a3.23,3.23,0,0,1,3.216-3.216h0a3.23,3.23,0,0,1,3.216,3.216Z" transform="translate(-40.377 -233.346)" fill="#585858" opacity="0.2"/>
          <path id="Path_455" data-name="Path 455" d="M98.231,310.286a3.23,3.23,0,0,1-3.216,3.216h0a3.23,3.23,0,0,1-3.216-3.216v-28.47a3.23,3.23,0,0,1,3.216-3.216h0a3.23,3.23,0,0,1,3.216,3.216Z" transform="translate(-36.581 -233.346)" fill="#585858" opacity="0.2"/>
          <path id="Path_456" data-name="Path 456" d="M80.731,310.286a3.23,3.23,0,0,1-3.216,3.216h0a3.23,3.23,0,0,1-3.216-3.216v-28.47a3.23,3.23,0,0,1,3.216-3.216h0a3.23,3.23,0,0,1,3.216,3.216Z" transform="translate(-32.806 -233.346)" fill="#585858" opacity="0.2"/>
        </g>
        <g id="Group_358" data-name="Group 358" transform="translate(39.298)">
          <path id="Path_457" data-name="Path 457" d="M125.524,247.117a11.991,11.991,0,0,1-7.216-2.274l-.157-.078-.157.078a11.494,11.494,0,0,1-7.216,2.274,11.991,11.991,0,0,1-7.216-2.274l-.157-.078-.157.078a11.494,11.494,0,0,1-7.216,2.274,11.991,11.991,0,0,1-7.216-2.274l-.157-.078-.157.078a11.494,11.494,0,0,1-7.216,2.274c-5.255,0-9.49-2.9-9.49-6.588V227.588c0-3.608,4.235-6.588,9.49-6.588a11.991,11.991,0,0,1,7.216,2.274l.157.078.157-.078A11.494,11.494,0,0,1,96.035,221a11.991,11.991,0,0,1,7.216,2.274l.157.078.157-.078A11.494,11.494,0,0,1,110.78,221,11.991,11.991,0,0,1,118,223.274l.157.078.157-.078A11.494,11.494,0,0,1,125.524,221c5.255,0,9.49,2.9,9.49,6.588v13.019C135.014,244.215,130.779,247.117,125.524,247.117Z" transform="translate(-71.565 -220.922)" fill="#585858"/>
          <path id="Path_458" data-name="Path 458" d="M125.46,221.292c5.1,0,9.255,2.824,9.255,6.353v12.941c0,3.529-4.157,6.353-9.255,6.353a11.347,11.347,0,0,1-7.059-2.274l-.235-.235-.235.235a11.684,11.684,0,0,1-7.059,2.274,11.347,11.347,0,0,1-7.059-2.274l-.235-.235-.235.235a11.684,11.684,0,0,1-7.059,2.274,11.347,11.347,0,0,1-7.059-2.274l-.235-.235-.235.235a11.684,11.684,0,0,1-7.059,2.274c-5.1,0-9.255-2.823-9.255-6.353V227.645c0-3.529,4.157-6.353,9.255-6.353a11.348,11.348,0,0,1,7.059,2.274l.235.235.235-.235a11.684,11.684,0,0,1,7.059-2.274,11.348,11.348,0,0,1,7.059,2.274l.235.235.235-.235a11.684,11.684,0,0,1,7.059-2.274,11.348,11.348,0,0,1,7.059,2.274l.235.235.235-.235a11.348,11.348,0,0,1,7.059-2.274m0-.392a12.166,12.166,0,0,0-7.372,2.353,11.994,11.994,0,0,0-7.372-2.353,12.166,12.166,0,0,0-7.372,2.353A11.994,11.994,0,0,0,95.97,220.9a12.166,12.166,0,0,0-7.372,2.353,11.994,11.994,0,0,0-7.372-2.353c-5.333,0-9.725,3.059-9.725,6.745v12.941c0,3.765,4.314,6.745,9.725,6.745a12.166,12.166,0,0,0,7.372-2.353,11.994,11.994,0,0,0,7.372,2.353,12.166,12.166,0,0,0,7.372-2.353,11.994,11.994,0,0,0,7.372,2.353,12.166,12.166,0,0,0,7.372-2.353,11.994,11.994,0,0,0,7.372,2.353c5.333,0,9.725-3.059,9.725-6.745V227.645c-.078-3.765-4.392-6.745-9.725-6.745Z" transform="translate(-71.5 -220.9)" fill="#bcbec0"/>
        </g>
        <path id="Path_459" data-name="Path 459" d="M129.9,236.9a2.779,2.779,0,0,0-2.745,2.745v.706h-4v-.706a2.745,2.745,0,1,0-5.49,0v.706h-4v-.706a2.745,2.745,0,1,0-5.49,0v.706h-4v-.706a2.745,2.745,0,1,0-5.49,0v.706h-4v-.706a2.745,2.745,0,1,0-5.49,0v.706h-4v-.706a2.745,2.745,0,1,0-5.49,0v2.51a2.745,2.745,0,1,0,5.49,0v-1.1h4v1.1a2.745,2.745,0,1,0,5.49,0v-1.1h4v1.1a2.745,2.745,0,1,0,5.49,0v-1.1h4v1.1a2.745,2.745,0,1,0,5.49,0v-1.1h4v1.1a2.745,2.745,0,1,0,5.49,0v-1.1h4v1.1a2.745,2.745,0,1,0,5.49,0v-2.51A2.728,2.728,0,0,0,129.9,236.9Z" transform="translate(-33.971 -224.351)" fill="#fff" opacity="0.2"/>
        <g id="Group_359" data-name="Group 359" transform="translate(0 35.23)">
          <path id="Path_460" data-name="Path 460" d="M31.07,281.1s2.2,1.49,2.9.863c.706-.549,7.686-8.078,7.765-10.2.078-2.2-4.157-7.216-7.921-5.647C30.129,267.608,31.07,281.1,31.07,281.1Z" transform="translate(-23.458 -265.819)" fill="#585858"/>
          <path id="Path_461" data-name="Path 461" d="M27.673,283.925a9.663,9.663,0,0,0,.549-2.274c0-.392-.941-8.863-3.059-9.255s-4.549,6.51-3.529,9.255S27.673,283.925,27.673,283.925Z" transform="translate(-21.394 -267.234)" fill="#585858"/>
          <path id="Path_462" data-name="Path 462" d="M27.681,288.4s.235,2.2,1.02,2.667.863,10.353-1.569,10.431c-2.353.157-6.353-6.431-5.1-8.706S24.78,288.792,27.681,288.4Z" transform="translate(-21.481 -270.69)" fill="#585858"/>
          <path id="Path_463" data-name="Path 463" d="M32.6,291.478c-.078-.549,1.569-2.2,1.49-3.137-.078-.863,8.078.941,9.725,4.392,1.725,3.451,0,9.412-4.941,8.706C34.011,300.812,33.305,298.145,32.6,291.478Z" transform="translate(-23.811 -270.631)" fill="#585858"/>
        </g>
        <path id="Path_464" data-name="Path 464" d="M164.9,303.3l2.98,3.372s14.51,21.019-1.49,28.941S139.1,328.79,139.1,328.79" transform="translate(-46.784 -238.674)" fill="none" stroke="#292929" stroke-miterlimit="10" stroke-width="3.657"/>
        <path id="Path_465" data-name="Path 465" d="M159.7,301l2.98,3.372s14.51,21.019-1.49,28.941S133.9,326.49,133.9,326.49" transform="translate(-45.662 -238.178)" fill="none" stroke="#292929" stroke-miterlimit="10" stroke-width="3.657"/>
        <path id="Path_466" data-name="Path 466" d="M154,298.1l2.98,3.372s14.509,21.019-1.49,28.941S128.2,323.59,128.2,323.59" transform="translate(-44.432 -237.552)" fill="none" stroke="#292929" stroke-miterlimit="10" stroke-width="3.657"/>
        <path id="Path_467" data-name="Path 467" d="M73.094,332.123l-4.314,1.02S43.369,335.966,44,318.084,62.9,297.3,62.9,297.3" transform="translate(-26.267 -237.38)" fill="none" stroke="#292929" stroke-miterlimit="10" stroke-width="3.657"/>
      </g>
    </g>
    <g id="Group_369" data-name="Group 369" transform="translate(196.374 42.863)">
      <path id="Path_468" data-name="Path 468" d="M425.032,158.321A21.848,21.848,0,0,0,416.8,175.89h-3.843s-2.353-13.255,10.588-21.49Z" transform="translate(-280.798 -66.951)" fill="#0e0e0e"/>
      <path id="Path_469" data-name="Path 469" d="M381.284,82.265l-18.117,87.214-2.667-1.255L378.46,78.5Z" transform="translate(-269.519 -50.579)" fill="#0e0e0e"/>
      <g id="Group_368" data-name="Group 368" transform="translate(0 75.528)">
        <g id="Group_362" data-name="Group 362" transform="translate(0 0)">
          <path id="Path_470" data-name="Path 470" d="M306.107,336.9s-1.725,19.215-5.647,19.059-3.059-4.941-5.333-6.118-8.627-5.412-8.627-5.412L303.284,332.9Z" transform="translate(-253.557 -180.981)" fill="#0e0e0e"/>
          <path id="Path_471" data-name="Path 471" d="M359.1,297.262A44.862,44.862,0,1,0,403.962,252.4,44.853,44.853,0,0,0,359.1,297.262Z" transform="translate(-269.217 -163.617)" fill="#0e0e0e"/>
          <path id="Path_472" data-name="Path 472" d="M297.879,327.757l28.156,6.823,63.528-6.431,27.137.941s8.314-33.411,6.745-39.136c-1.647-5.725-3.137-47.528-37.646-46.587s-59.607-4.157-71.136,3.216c-11.451,7.372-24,46.038-23.764,47.372C291.213,295.287,297.879,327.757,297.879,327.757Z" transform="translate(-254.506 -161.486)"/>
          <path id="Path_473" data-name="Path 473" d="M441.837,139.2c-19.764,11.764-38.744,23.294-45.489,27.294,0,0-51.528,9.019-92.39,19.843-14.588,3.843-25.568,10.274-32.391,19.215-31.058,40.705-28.941,72-24.47,88.939a3.8,3.8,0,0,0,1.255,1.8c-1.647.863-3.137,1.647-3.137,1.647V303.2s35.293,5.412,46.979,4.627l.471-3.059a57.108,57.108,0,0,1,114.115,1.882l35.058-.784V139.2Z" transform="translate(-244.505 -139.2)" fill="#fff"/>
          <path id="Path_474" data-name="Path 474" d="M447,268.574c0,1.569,1.49,2.353,3.059,2.353s7.765-.314,7.765-1.882-7.137-2.745-8.706-2.745S447,267.084,447,268.574Z" transform="translate(-288.177 -166.616)" fill="#2e3192" opacity="0.2"/>
          <path id="Path_475" data-name="Path 475" d="M247.088,323.236c-2.98-11.215-4.941-28.705,3.137-51.136a37.612,37.612,0,0,0,2.588,5.725,29,29,0,0,0,6.2,7.608,39.591,39.591,0,0,0,11.451,6.823,36.418,36.418,0,0,0,9.019,2.353,77.142,77.142,0,0,0,15.921.706,136.237,136.237,0,0,0,16.862-2.353c.235-.078.549-.078.784-.157a57.363,57.363,0,0,0-20.392,40.705l-.471,3.059c-11.686.784-46.979-4.627-46.979-4.627v-5.255s1.49-.784,3.137-1.647A3.319,3.319,0,0,1,247.088,323.236Z" transform="translate(-244.497 -167.867)" fill="#2e3192" opacity="0.2"/>
          <path id="Path_476" data-name="Path 476" d="M486.048,149.4c-21.333,13.725-36.548,25.411-36.548,25.411.941,2.2,20.313,14.745,36.548,18.431Z" transform="translate(-288.717 -141.4)" fill="#2e3192" opacity="0.2"/>
          <path id="Path_477" data-name="Path 477" d="M370.123,192.9S312.477,236.35,264.4,248.35c0,0,6.745-28.47,21.647-35.842C319.379,195.959,370.123,192.9,370.123,192.9Z" transform="translate(-248.79 -150.783)" fill="#0e0e0e"/>
          <path id="Path_478" data-name="Path 478" d="M488.443,158.6C472.6,168.874,460.6,177.109,460.6,177.109s15.686,9.49,27.843,14.039Z" transform="translate(-291.111 -143.385)" fill="#0e0e0e"/>
          <path id="Path_479" data-name="Path 479" d="M494.4,323.88V316.9c-2.51,2.275-5.882,5.569-6.2,7.372.706-.078,5.02-.235,5.725-.314h-.549C493.3,324.037,493.69,323.959,494.4,323.88Z" transform="translate(-297.064 -177.53)" fill="#2e3192" opacity="0.2"/>
          <path id="Path_480" data-name="Path 480" d="M286.146,214.384a135.351,135.351,0,0,1,15.764-6.51l37.725-6.274c1.882,6.431-9.255,13.49-9.255,13.49-19.529,4.549-29.882,16.549-34.509,23.921A186.333,186.333,0,0,1,264.5,250.226C264.421,250.3,271.166,221.835,286.146,214.384Z" transform="translate(-248.812 -152.66)" fill="#585858"/>
          <path id="Path_481" data-name="Path 481" d="M446.6,268.261a1.961,1.961,0,1,0,1.961-1.961A1.942,1.942,0,0,0,446.6,268.261Z" transform="translate(-288.091 -166.616)" fill="#faa228"/>
          <path id="Path_482" data-name="Path 482" d="M287.876,305.091s-5.725,21.647-6.117,26.039-22.352,1.1-23.607,1.1l-3.451-8.784S256.9,304.15,287.876,305.091Z" transform="translate(-246.698 -174.976)" fill="#0e0e0e"/>
          <path id="Path_483" data-name="Path 483" d="M486.609,331.3c-13.882,1.1-22.98,2.118-24.549,2.98-6.431,3.451-9.1,10.9-9.961,13.882l34.509-.784Z" transform="translate(-289.278 -180.636)" fill="#2e3192" opacity="0.2"/>
          <path id="Path_484" data-name="Path 484" d="M324.072,208.9c.157,0,1.725,8.627-2.2,10.823s-18.588.235-20-1.725C300.543,216.037,314.738,210.625,324.072,208.9Z" transform="translate(-256.855 -154.234)" fill="#fff"/>
          <path id="Path_485" data-name="Path 485" d="M281.272,240.217c-1.176,4.784,8.157,5.882,9.8,5.49,1.8-.392,3.608-3.137,4.863-7.921,1.176-4.784.784-9.019-1.02-9.49C293.115,227.9,282.448,235.433,281.272,240.217Z" transform="translate(-252.408 -158.415)" fill="#fff"/>
        </g>
        <g id="Group_367" data-name="Group 367" transform="translate(58.275 123.841)">
          <g id="Group_366" data-name="Group 366">
            <g id="Group_365" data-name="Group 365">
              <path id="Path_486" data-name="Path 486" d="M318.8,341.648A44.548,44.548,0,1,0,363.348,297.1,44.518,44.518,0,0,0,318.8,341.648Z" transform="translate(-318.8 -297.1)" fill="#585858"/>
              <path id="Path_487" data-name="Path 487" d="M322.2,345.758c-.471.157-1.02.235-1.569.392-.078-.863-.157-1.725-.157-2.588a.847.847,0,0,0,.549.235h.863a.863.863,0,1,0,0-1.725h-.863a.891.891,0,0,0-.627.235v-.392c0-.784,0-1.647.078-2.431a.274.274,0,0,1,.157.078c.549.157,1.1.314,1.569.471a.857.857,0,0,0,.471-1.647c-.549-.157-1.1-.314-1.569-.471a.663.663,0,0,0-.549,0c.078-.549.078-1.02.157-1.49a.852.852,0,0,0,1.176,0,.876.876,0,0,0,0-1.255c-.314-.235-.627-.471-.863-.627a38.976,38.976,0,0,1,1.333-5.412,1.045,1.045,0,0,0,.392.471,1.083,1.083,0,0,0,.314.235h0l.078.078.235.235s.078.157.078.078v.078a.861.861,0,0,0,1.49-.863,5.711,5.711,0,0,0-1.412-1.333,1,1,0,0,0-.941,0,51.008,51.008,0,0,1,2.118-5.176,1.708,1.708,0,0,1,.627.392c.314.235.549.471.549.627.078,1.1,1.8,1.1,1.725,0a3.164,3.164,0,0,0-2.118-2.51,40.668,40.668,0,0,1,2.431-3.921.077.077,0,0,1,.078.078,1.84,1.84,0,0,1,.863.863.8.8,0,0,0,1.176.314.885.885,0,0,0,.314-1.176,3.494,3.494,0,0,0-1.412-1.412,37.84,37.84,0,0,1,2.823-3.372c.078.078.157.157.235.157a1.33,1.33,0,0,1,.627.471,1,1,0,0,1,.314.549.919.919,0,0,0,1.1.627.874.874,0,0,0,.627-1.02,3.42,3.42,0,0,0-1.647-1.961c.627-.627,1.333-1.255,1.961-1.882a.8.8,0,0,0,1.02.549.962.962,0,0,0,.627-1.1l-.235-.706c.706-.627,1.49-1.176,2.2-1.725h0c.078.078.157.078.157.157h0c.078.078.235.157.314.235s.235.157.314.314l.078.078v.078a.861.861,0,1,0,1.49-.863,5.809,5.809,0,0,0-.941-1.02c.706-.471,1.412-.863,2.2-1.333.314.314.706.627,1.02.941a.887.887,0,0,0,1.255-1.255l-.627-.627c.941-.471,1.961-.941,2.98-1.412a3.63,3.63,0,0,0,1.02,1.412.954.954,0,0,0,1.255,0,.876.876,0,0,0,0-1.255,3.07,3.07,0,0,1-.627-.784c.706-.235,1.333-.471,2.039-.706a4.976,4.976,0,0,0,.941,1.647c.784.784,1.961-.392,1.255-1.255a2.713,2.713,0,0,1-.549-.941c.863-.235,1.725-.471,2.588-.627a5.712,5.712,0,0,0,.549,1.882.862.862,0,0,0,1.49-.863,3.762,3.762,0,0,1-.392-1.333c.863-.157,1.725-.235,2.667-.392v.235a8.571,8.571,0,0,0,.392,1.333,1.573,1.573,0,0,0,1.725.706.918.918,0,0,0,.627-1.02.85.85,0,0,0-.863-.627c-.078-.235-.078-.471-.157-.706,1.02-.078,1.961-.078,2.98-.078h.706a7.022,7.022,0,0,0,.157,1.8.885.885,0,0,0,1.725-.392,6.747,6.747,0,0,1-.078-1.255c.706.078,1.49.078,2.2.157h0a4,4,0,0,0,.235,2.353.861.861,0,1,0,1.49-.863.243.243,0,0,1-.078-.157v-.392a1.529,1.529,0,0,1,.078-.627q2.823.471,5.647,1.176c0,.314-.078.627-.078,1.02-.078.471.078.941.627,1.02a.962.962,0,0,0,1.1-.627c.078-.314.078-.627.157-.941.941.314,1.961.706,2.9,1.1-.314.941-.706,1.8.157,2.588.863.706,2.039-.471,1.255-1.176v-.157c.078-.157.078-.314.157-.471a38.785,38.785,0,0,1,5.02,2.745l-.706,1.647a.784.784,0,0,0,.627,1.02c.471.157.863-.157,1.1-.627l.471-1.176q1.529,1.059,2.823,2.118a3.981,3.981,0,0,0-.706,1.412.857.857,0,0,0,1.647.471c.078-.235.235-.471.314-.706a39.159,39.159,0,0,1,3.608,3.608,5.258,5.258,0,0,0-.706,1.1.861.861,0,0,0,1.49.863,2.754,2.754,0,0,1,.392-.627,30.732,30.732,0,0,1,1.961,2.51c-.314.314-.627.549-.863.784a.865.865,0,0,0-.314,1.176.885.885,0,0,0,1.176.314,9.926,9.926,0,0,0,1.02-.863c.314.549.706,1.1,1.02,1.647-.078.078-.157.235-.235.314a.885.885,0,0,0,.314,1.176.712.712,0,0,0,.784,0c.471.863.863,1.725,1.255,2.588a5.446,5.446,0,0,0-1.02.392.894.894,0,0,0,.471,1.725c.392-.157.784-.314,1.255-.471a40.069,40.069,0,0,1,1.725,5.176,14.839,14.839,0,0,1-1.8.392c-1.1.235-.627,1.882.471,1.647.549-.157,1.176-.235,1.725-.392a31.444,31.444,0,0,1,.627,3.921c-.549.235-1.176.471-1.725.706a.861.861,0,0,0,.863,1.49c.314-.157.706-.314,1.02-.471.078,1.176.157,2.274.157,3.451,0,.784,0,1.647-.078,2.431h-.471a.864.864,0,0,0,0,1.725h.314c-.157,1.725-.471,3.451-.784,5.1a12.176,12.176,0,0,0-1.647-.314c-1.1-.157-1.569,1.49-.471,1.647a12.191,12.191,0,0,1,1.647.314,21.633,21.633,0,0,1-.627,2.118c-.863-.078-1.725-.235-2.588-.235a.864.864,0,0,0,0,1.725,17.846,17.846,0,0,1,2.039.157,46.455,46.455,0,0,1-2.9,6.353,4.75,4.75,0,0,0-2.274-.863.864.864,0,0,0,0,1.725,1.964,1.964,0,0,1,1.412.627,51.027,51.027,0,0,1-3.843,5.333,15.71,15.71,0,0,1-1.882-.314.857.857,0,0,0-.471,1.647l.941.235c-.941,1.02-1.882,1.961-2.9,2.9a11.607,11.607,0,0,1-2.274-1.725c-.784-.784-1.961.392-1.255,1.255a10.939,10.939,0,0,0,2.118,1.647,44.915,44.915,0,0,1-4.863,3.451,6.87,6.87,0,0,0-1.49-1.882c-.784-.784-2.039.471-1.255,1.255a7.029,7.029,0,0,1,1.176,1.49,31.3,31.3,0,0,1-4.627,2.2,4.868,4.868,0,0,0-1.1-1.8c-.784-.784-2.039.471-1.255,1.255a3.07,3.07,0,0,1,.784,1.255,37.983,37.983,0,0,1-5.1,1.49c-.235-.471-.471-.941-.706-1.333-.627-.941-2.118-.078-1.49.863a8.554,8.554,0,0,1,.471.863,37.618,37.618,0,0,1-5.882.706,14.441,14.441,0,0,0-.235-2.588c-.235-1.1-1.961-.627-1.647.471a9.923,9.923,0,0,1,.235,2.2h-.392c-1.255,0-2.51-.078-3.765-.157-.157-.863-.314-1.8-.471-2.667-.235-1.1-1.882-.627-1.647.471a18.67,18.67,0,0,1,.392,2.039,41.3,41.3,0,0,1-6.2-1.255c.314-1.02,1.02-1.961,1.255-2.98.235-1.1-1.412-1.569-1.647-.471s-.863,1.961-1.176,2.98a38.662,38.662,0,0,1-5.882-2.431,20.563,20.563,0,0,1,1.725-1.961c.784-.784-.392-1.961-1.255-1.255a19.049,19.049,0,0,0-2.039,2.353,40.67,40.67,0,0,1-3.921-2.431c.078-.078.235-.157.314-.235.941-.627.078-2.118-.863-1.49a6.537,6.537,0,0,1-.941.627c-.941-.706-1.8-1.412-2.667-2.2a4.5,4.5,0,0,0,1.49-1.725.885.885,0,0,0-.314-1.176.8.8,0,0,0-1.176.314,3.77,3.77,0,0,1-1.255,1.49,36.794,36.794,0,0,1-3.686-4.078c1.1-.784,2.2-1.333,2.745-2.667.392-1.02-1.255-1.49-1.647-.471a2.478,2.478,0,0,1-1.1,1.1c-.314.235-.627.392-.941.627-.863-1.255-1.725-2.51-2.51-3.765a.559.559,0,0,0,.471-.235c.549-.627,1.1-1.255,1.647-1.8a.954.954,0,0,0,0-1.255.876.876,0,0,0-1.255,0c-.549.627-1.1,1.176-1.647,1.8l-.078.078a49.911,49.911,0,0,1-2.2-4.627c.784-.235,1.569-.392,2.274-.627a.856.856,0,0,0-.471-1.647c-.784.235-1.647.392-2.431.627a35.935,35.935,0,0,1-1.176-3.843.822.822,0,0,0,.941.078c.627-.314,1.333-.471,1.961-.784a.861.861,0,0,0-.863-1.49c-.627.314-1.333.471-1.961.784-.157.078-.235.235-.314.314-.235-1.1-.471-2.274-.627-3.451h.078c.549-.157,1.176-.314,1.725-.471C323.694,347.091,323.3,345.366,322.2,345.758Z" transform="translate(-319.145 -297.445)" fill="#0e0e0e"/>
              <path id="Path_488" data-name="Path 488" d="M335.6,345.272A31.372,31.372,0,1,0,366.972,313.9,31.363,31.363,0,0,0,335.6,345.272Z" transform="translate(-322.424 -300.724)" fill="#bcbec0"/>
              <path id="Path_489" data-name="Path 489" d="M397.093,327.154s-.627-.863-1.412-.392c-.706.471-3.137,5.725-2.51,6.823.627,1.176,2.588,1.882,2.9,1.02S397.329,328.565,397.093,327.154Z" transform="translate(-334.82 -303.468)" fill="#fff"/>
              <path id="Path_490" data-name="Path 490" d="M392.1,324s1.02.314.863,1.176c-.235.863-4.314,4.863-5.647,4.706-1.255-.157-2.667-1.882-1.882-2.431C386.144,326.9,390.693,324.235,392.1,324Z" transform="translate(-333.125 -302.902)" fill="#fff"/>
              <path id="Path_491" data-name="Path 491" d="M355.889,324.9s-1.02.392-.706,1.255,4.863,4.392,6.118,4.078,2.431-2.118,1.647-2.588C362.085,327.018,357.3,324.9,355.889,324.9Z" transform="translate(-326.635 -303.096)" fill="#fff"/>
              <path id="Path_492" data-name="Path 492" d="M351.9,328.023s.549-.941,1.333-.549,3.765,5.333,3.294,6.51-2.431,2.118-2.824,1.333C353.389,334.454,351.821,329.356,351.9,328.023Z" transform="translate(-325.939 -303.631)" fill="#fff"/>
              <path id="Path_493" data-name="Path 493" d="M342.4,359.178s-.078,1.1.784,1.176,6.039-2.353,6.353-3.608-.784-3.137-1.569-2.667C347.184,354.629,343.105,357.923,342.4,359.178Z" transform="translate(-323.89 -309.375)" fill="#fff"/>
              <path id="Path_494" data-name="Path 494" d="M343.344,365.259s-.549-.941.157-1.412c.706-.549,6.431-.941,7.294.078.863.941.784,3.137-.078,3.059C349.775,366.906,344.6,365.965,343.344,365.259Z" transform="translate(-324.05 -311.378)" fill="#fff"/>
              <path id="Path_495" data-name="Path 495" d="M372.478,387.436s1.1.235,1.255-.627c.235-.863-1.569-6.353-2.823-6.745-1.255-.471-3.216.392-2.823,1.255C368.557,382.181,371.38,386.652,372.478,387.436Z" transform="translate(-329.42 -314.967)" fill="#fff"/>
              <path id="Path_496" data-name="Path 496" d="M378.553,386.913s-.941.471-1.412-.314-.157-6.51.941-7.216c1.1-.784,3.216-.392,3.059.471C380.985,380.8,379.416,385.815,378.553,386.913Z" transform="translate(-331.339 -314.757)" fill="#fff"/>
              <path id="Path_497" data-name="Path 497" d="M405.191,364.12s.549-.941-.235-1.412c-.706-.471-6.51-.549-7.294.471s-.627,3.137.314,3.059S404.093,364.9,405.191,364.12Z" transform="translate(-335.702 -311.18)" fill="#fff"/>
              <path id="Path_498" data-name="Path 498" d="M406.67,358.091s.157,1.1-.706,1.255-6.2-1.961-6.588-3.216.627-3.137,1.412-2.745C401.651,353.856,405.964,356.915,406.67,358.091Z" transform="translate(-336.162 -309.229)" fill="#fff"/>
              <g id="Group_363" data-name="Group 363" transform="translate(14.98 14.98)">
                <path id="Path_499" data-name="Path 499" d="M367.468,316.514a29.333,29.333,0,1,1-29.333,29.333,29.338,29.338,0,0,1,29.333-29.333m0-.314a29.568,29.568,0,1,0,29.568,29.568A29.589,29.589,0,0,0,367.468,316.2Z" transform="translate(-337.9 -316.2)" fill="#10133a"/>
              </g>
              <path id="Path_500" data-name="Path 500" d="M357,349.888A14.588,14.588,0,1,0,371.588,335.3,14.56,14.56,0,0,0,357,349.888Z" transform="translate(-327.04 -305.34)" fill="#fff"/>
              <path id="Path_501" data-name="Path 501" d="M359,350.319A13.019,13.019,0,1,0,372.019,337.3,12.987,12.987,0,0,0,359,350.319Z" transform="translate(-327.471 -305.771)" fill="#bcbec0"/>
              <path id="Path_502" data-name="Path 502" d="M369.994,339.927c.392-.549,4.314-.627,4.314-.627s3.922.078,4.314.627-4.314,3.294-4.314,3.294S369.6,340.476,369.994,339.927Z" transform="translate(-329.837 -306.203)"/>
              <path id="Path_503" data-name="Path 503" d="M361.277,352.591c-.392-.471.706-4.392.706-4.392s1.333-3.765,1.961-4c.627-.157,1.882,5.176,1.882,5.176S361.669,353.062,361.277,352.591Z" transform="translate(-327.944 -307.259)"/>
              <path id="Path_504" data-name="Path 504" d="M388.749,352.591c.392-.471-.706-4.392-.706-4.392s-1.333-3.765-1.961-4c-.627-.157-1.882,5.176-1.882,5.176S388.357,353.062,388.749,352.591Z" transform="translate(-332.907 -307.259)"/>
              <path id="Path_505" data-name="Path 505" d="M369.209,365.548c-.627.157-3.686-2.431-3.686-2.431s-2.9-2.745-2.823-3.372,5.49.392,5.49.392S369.837,365.391,369.209,365.548Z" transform="translate(-328.269 -310.568)"/>
              <path id="Path_506" data-name="Path 506" d="M380.161,365.548c.627.157,3.686-2.431,3.686-2.431s2.9-2.745,2.824-3.372-5.49.392-5.49.392S379.533,365.391,380.161,365.548Z" transform="translate(-332.005 -310.568)"/>
              <g id="Group_364" data-name="Group 364" transform="translate(40.94 41.019)">
                <path id="Path_507" data-name="Path 507" d="M374.529,349.949a2.98,2.98,0,1,1-2.98,2.98,2.979,2.979,0,0,1,2.98-2.98m0-.549a3.529,3.529,0,1,0,3.529,3.529,3.515,3.515,0,0,0-3.529-3.529Z" transform="translate(-371 -349.4)" fill="#fff"/>
              </g>
              <path id="Path_508" data-name="Path 508" d="M361.385,319.869c.863-1.333,10.823-1.569,10.823-1.569s9.882.314,10.823,1.569c.863,1.333-10.823,8.235-10.823,8.235S360.444,321.2,361.385,319.869Z" transform="translate(-327.974 -301.673)" fill="#0e0e0e"/>
              <path id="Path_509" data-name="Path 509" d="M339.638,351.659c-1.02-1.255,1.725-10.9,1.725-10.9s3.294-9.49,4.784-9.961c1.569-.471,4.706,12.941,4.706,12.941S340.579,352.914,339.638,351.659Z" transform="translate(-323.246 -304.366)" fill="#0e0e0e"/>
              <path id="Path_510" data-name="Path 510" d="M408.515,351.659c1.02-1.255-1.725-10.9-1.725-10.9s-3.294-9.49-4.784-9.961c-1.569-.471-4.706,12.941-4.706,12.941S407.5,352.914,408.515,351.659Z" transform="translate(-335.733 -304.366)" fill="#0e0e0e"/>
              <path id="Path_511" data-name="Path 511" d="M359.469,384.068c-1.569.392-9.333-6.039-9.333-6.039s-7.372-6.823-7.137-8.47c.157-1.569,13.725.941,13.725.941S361.037,383.676,359.469,384.068Z" transform="translate(-324.018 -312.618)" fill="#0e0e0e"/>
              <path id="Path_512" data-name="Path 512" d="M386.906,384.068c1.569.392,9.333-6.039,9.333-6.039s7.372-6.823,7.137-8.47c-.157-1.569-13.725.941-13.725.941S385.337,383.676,386.906,384.068Z" transform="translate(-333.416 -312.618)" fill="#0e0e0e"/>
            </g>
          </g>
          <path id="Path_513" data-name="Path 513" d="M404,328.415c-3.843,1.02-7.686,2.118-11.529,3.216-7.765,2.2-15.608,3.922-23.372,5.961-16.47,4.314-32.784,9.176-49.019,14.353A44.537,44.537,0,0,1,405.8,328.023C405.173,328.18,404.624,328.258,404,328.415Z" transform="translate(-318.822 -297.122)" fill="#0e0e0e" opacity="0.2"/>
        </g>
      </g>
      <path id="Path_514" data-name="Path 514" d="M354.5,42.9c16.47,16.392,40.156,47.528,64.156,105.331h4.863S395.911,78.742,361.245,42.9H354.5Z" transform="translate(-268.225 -42.9)" fill="#fff"/>
      <path id="Path_515" data-name="Path 515" d="M429.1,162.5" transform="translate(-284.316 -68.698)" fill="#192652"/>
    </g>
    <g id="Group_397" data-name="Group 397" transform="translate(147.513 42.73)">
      <g id="Group_393" data-name="Group 393">
        <g id="Group_392" data-name="Group 392">
          <g id="Group_370" data-name="Group 370" transform="translate(0 106.484)">
            <path id="Path_516" data-name="Path 516" d="M214.4,397.171s-1.333.706-1.333,1.1c0,.471-.706,6.431-.392,7.451s18.588,3.059,18.588,3.059,9.255-.471,10.2-1.647.549-2.118,0-2.2c-.549-.157-21.8-8.235-21.8-8.235Z" transform="translate(-188.756 -225.566)" fill="#0e0e0e"/>
            <path id="Path_517" data-name="Path 517" d="M187.092,402.861a9.157,9.157,0,0,1,2.98-.863,12.324,12.324,0,0,1,3.059,1.255s-3.608-2.118,2.588-.078c0,0,17.176,11.059,16.941,11.686s-4.078,2.588-14.666.549c0,0-9.412-3.372-11.059-4.941C186.622,410.234,185.68,403.724,187.092,402.861Z" transform="translate(-183.092 -226.708)" fill="#0e0e0e"/>
            <path id="Path_518" data-name="Path 518" d="M188.352,392s-.235,9.176-.157,9.333c.392,1.412,4.392,1.49,5.569.392l2.274-8.863Z" transform="translate(-183.489 -224.552)" fill="#f79e8c"/>
            <path id="Path_519" data-name="Path 519" d="M214.372,387.6s-.157,9.1-.078,9.333c.392,1.412,4.235,1.647,5.333.627l1.725-9.176Z" transform="translate(-189.117 -223.603)" fill="#f79e8c"/>
            <path id="Path_520" data-name="Path 520" d="M238.639,178.5s-2.9,66.116-6.118,97.1c0,0-16.627-2.745-18.353-9.8-1.647-7.137,1.49-83.606,1.49-83.606Z" transform="translate(-188.992 -178.5)"/>
            <path id="Path_521" data-name="Path 521" d="M205.886,182c.235,3.372,24.549-1.49,24.784,1.882.863,12.862-19.686,48.783-19.686,49.254-8,55.45-10.823,109.723-13.725,121.409-1.255,4.863-13.333.706-13.333.706-1.8-62.979-1.725-168-1.725-168C188.474,183.1,197.415,181.921,205.886,182Z" transform="translate(-182.199 -179.254)" fill="#161616"/>
            <path id="Path_522" data-name="Path 522" d="M218.543,285.067s-4.392-.784-5.02,1.647c-.627,2.353-2.823,72.155-2.823,88.939,0,0,11.294,1.882,13.333-1.176,3.137-4.706,7.843-75.763,7.843-75.763Z" transform="translate(-188.347 -201.461)"/>
          </g>
          <g id="Group_391" data-name="Group 391" transform="translate(0.001)">
            <g id="Group_387" data-name="Group 387" transform="translate(0 6.947)">
              <g id="Group_376" data-name="Group 376" transform="translate(47.907 36.586)">
                <g id="Group_375" data-name="Group 375">
                  <g id="Group_374" data-name="Group 374" transform="translate(0 44.049)">
                    <g id="Group_373" data-name="Group 373">
                      <path id="Path_523" data-name="Path 523" d="M264.237,154.4c-4.863,1.725-21.49,9.49-20.941,13.411,12.941,11.059,32.784,12.078,54.038,11.686,0,0,3.451-11.215-2.039-11.608C269.021,166.164,264.472,154.635,264.237,154.4Z" transform="translate(-243.283 -154.4)" fill="#51a8e3"/>
                    </g>
                  </g>
                  <path id="Path_524" data-name="Path 524" d="M262.5,102.443c3.059-5.333,11.294-4.078,11.294-4.078,7.137,10.98,6.2,13.961,6.039,21.411h0c-2.274,14.9-7.216,19.686-15.608,30.2-5.882,4.549-7.137,10.9-12,10.431-3.765-12.313,4.314-20.313,6.118-29.411a15.486,15.486,0,0,1-2.039-1.647C254.267,121.58,257.561,110.992,262.5,102.443Z" transform="translate(-244.999 -98.236)" fill="#51a8e3"/>
                </g>
              </g>
              <g id="Group_381" data-name="Group 381">
                <path id="Path_525" data-name="Path 525" d="M250.434,91.7s-15.686.941-23.764,5.255c0,0-28.548,11.608-44.47,70.744,0,0,28.47,2.98,48.47-3.294,0,0,27.058-29.1,30.117-41.725C260.787,122.68,268.238,95.151,250.434,91.7Z" transform="translate(-182.2 -60.24)" fill="#161616"/>
                <g id="Group_377" data-name="Group 377" transform="translate(58.587)">
                  <path id="Path_526" data-name="Path 526" d="M275.1,99.038s3.451,10.745-1.333,26.98c0,0-9.412,1.255-11.843-2.9,0,0,8.157-20.156-5.02-30.274a46.034,46.034,0,0,1,10.9-.863c4.941.471,7.294,7.059,7.294,7.059" transform="translate(-256.9 -60.284)" fill="#70bdf1"/>
                  <path id="Path_527" data-name="Path 527" d="M283.378,88.9a12.211,12.211,0,0,0-9.255,7.765s-7.451-1.569-10.823-7.686c0,0,3.686-2.823,7.372-13.49C272.319,70.78,283.378,88.9,283.378,88.9Z" transform="translate(-258.28 -56.574)" fill="#e8924a"/>
                  <path id="Path_528" data-name="Path 528" d="M265.176,56.617s12.392-8.941,23.215-2.98c0,0,2.9,2.667,4.157,10.745.078.392.078.784.157,1.176,1.255,8.235-.392,20.078-6.2,22.117,0,0-13.411-.235-18.823-11.059C262.823,66.813,261.96,60.3,265.176,56.617Z" transform="translate(-258.274 -51.587)" fill="#f1b581"/>
                  <path id="Path_529" data-name="Path 529" d="M291.048,57.5s-22.9,4.235-19.921,6.823,25.49-3.529,18.9-1.333Z" transform="translate(-259.911 -52.863)" fill="#2e3192"/>
                </g>
              </g>
              <g id="Group_386" data-name="Group 386" transform="translate(31.517 35.656)">
                <g id="Group_385" data-name="Group 385" transform="translate(1.894 47.282)">
                  <g id="Group_384" data-name="Group 384">
                    <path id="Path_530" data-name="Path 530" d="M247.78,158.719c-5.176.078-22.274-3.451-22.98.471.863,9.019,5.176,36.156,42.587,49.96,0,0,8.235-8.706,4-12.235C249.27,178.876,247.937,159.033,247.78,158.719Z" transform="translate(-224.8 -157.336)" fill="#70bdf1"/>
                  </g>
                </g>
                <path id="Path_531" data-name="Path 531" d="M232.436,103.834c8.941-13.333,19.451-2.9,19.451-2.9,6.118,9.1-5.569,22.509-4.549,47.215-6.2,14.9-10.9,3.686-12.078,4.549-1.8.471-4.863-.235-9.725.471C219.417,144.618,222.475,118.579,232.436,103.834Z" transform="translate(-222.385 -97.05)" fill="#70bdf1"/>
              </g>
            </g>
            <path id="Path_533" data-name="Path 533" d="M290.6,58.706s5.647-4.078,2.2-11.921c-3.372-7.765-8.078-2.118-8.549-1.412-.392.706-.392.157-.392.157s-16,.392-23.215,7.921,1.725,24.078,3.608,25.254c5.333,3.137,1.569-9.882,6.745-13.961,5.1-4.078,7.686,5.02,15.372-1.569A24.134,24.134,0,0,0,290.6,58.706Z" transform="translate(-198.522 -42.73)" fill="#0e0e0e"/>
            <path id="Path_534" data-name="Path 534" d="M271.258,85.38c-1.176,1.02-3.843-.078-5.961-2.51s-2.823-5.255-1.569-6.274c1.176-1.02,3.843.078,5.961,2.51S272.513,84.36,271.258,85.38Z" transform="translate(-199.652 -49.953)" fill="#f1b581"/>
            <g id="Group_388" data-name="Group 388" transform="translate(95.765 96.523)">
              <path id="Path_535" data-name="Path 535" d="M311.631,172.153s2.431-3.216,2.745-4.549a1.534,1.534,0,0,0-.549-1.8l-6.353,4.078-2.274,3.059,5.725,1.02Z" transform="translate(-304.496 -165.8)" fill="#f1b581"/>
              <path id="Path_536" data-name="Path 536" d="M308.144,172l-2.98,1.8s-1.569,5.569-.471,8.157c1.176,2.588,13.725,3.294,14.353,3.294.706,0,6.588-1.255,6.588-1.255l-.863-2.431-4.627-4.549s-6.2-1.647-6.274-2.039-4.314-2.353-4.314-2.353Z" transform="translate(-304.303 -167.137)" fill="#f1b581"/>
            </g>
            <g id="Group_389" data-name="Group 389" transform="translate(74.845 130.091)">
              <path id="Path_537" data-name="Path 537" d="M289.88,214.425s3.843,1.176,5.255.941c1.412-.157,1.49-1.1,1.49-1.1l-6.039-4.549L286.9,208.7l1.1,5.725Z" transform="translate(-279.629 -208.622)" fill="#f1b581"/>
              <path id="Path_538" data-name="Path 538" d="M288.116,210.8l-2.745-2.2s-5.1.941-6.431,3.451c-3.137,5.961.314,12.941.549,13.568s3.451,5.725,3.451,5.725L284.9,229.7l2.667-5.961s-.549-6.431-.314-6.588c.314-.157.706-4.863.706-4.863Z" transform="translate(-277.629 -208.6)" fill="#f1b581"/>
            </g>
          </g>
        </g>
        <path id="Path_539" data-name="Path 539" d="M211.79,208.3s-12.078,17.019-17.49,22.039l4.157,2.274s14.98-19.921,15.137-24.313Z" transform="translate(-184.809 -78.444)" fill="#70bdf1"/>
        <path id="Path_540" data-name="Path 540" d="M237.1,185.382a110.8,110.8,0,0,1-23.764-1.882L212,189.853s19.451-.941,23.843-2.274Z" transform="translate(-188.627 -73.095)" fill="#70bdf1"/>
      </g>
      <g id="Group_396" data-name="Group 396" transform="translate(81.489 89.857)">
        <g id="Group_394" data-name="Group 394">
          <path id="Path_541" data-name="Path 541" d="M291.041,196.678l-.549-.784,1.569-1.02c.078,0,.157-.078.235-.078a3.482,3.482,0,0,0,.863-.627l.078-.078h0l.157-.157a3.026,3.026,0,0,0,.863-1.725,1.912,1.912,0,0,0,0-.941,3.437,3.437,0,0,0-.549-1.49,3.692,3.692,0,0,0-1.176-1.02,1.922,1.922,0,0,0-.941-.314,3.785,3.785,0,0,0-1.882.157c-.078,0-.157.078-.235.078h-.078l-.078.078a5.851,5.851,0,0,0-.941.549c-.078.078-.157.078-.157.157l-1.569,1.02-.549-.784c3.765-4.941,6.745-5.255,9.49-1.255C298.492,192.443,297,195.11,291.041,196.678Z" transform="translate(-286.1 -163.424)" fill="#b5bcdf"/>
          <path id="Path_542" data-name="Path 542" d="M334.949,157.3l.549.784-1.569,1.02c-.078,0-.157.078-.235.078a3.483,3.483,0,0,0-.863.627l-.078.078h0l-.157.157a3.026,3.026,0,0,0-.863,1.725,1.912,1.912,0,0,0,0,.941,3.437,3.437,0,0,0,.549,1.49,3.693,3.693,0,0,0,1.176,1.02,1.922,1.922,0,0,0,.941.314,3.067,3.067,0,0,0,1.882-.157c.078,0,.157-.078.235-.078h.078l.078-.078a5.852,5.852,0,0,0,.941-.549c.078-.078.157-.078.157-.157l1.569-1.02.549.784c-3.765,4.941-6.745,5.255-9.49,1.255C327.5,161.535,328.91,158.869,334.949,157.3Z" transform="translate(-295.342 -157.3)" fill="#b5bcdf"/>
          <path id="Path_543" data-name="Path 543" d="M325.432,168.028a.511.511,0,0,0,.157-.706l-1.725-2.588a.511.511,0,0,0-.706-.157l-26.823,17.96a.511.511,0,0,0-.157.706l1.725,2.588a.511.511,0,0,0,.706.157Z" transform="translate(-288.256 -158.852)" fill="#b5bcdf"/>
        </g>
        <path id="Path_544" data-name="Path 544" d="M295.039,185.418l9.1-6.118,4.706,1.882-11.451,7.686a6.536,6.536,0,0,1,.314,1.176c-1.02-.471-2.039-1.02-3.059-1.49,0-.078-.078-.157-.157-.235a3.692,3.692,0,0,0-1.176-1.02,1.922,1.922,0,0,0-.941-.314,3.369,3.369,0,0,0-1.255,0L289,186.045C291.274,183.927,293.235,183.849,295.039,185.418Z" transform="translate(-286.725 -162.045)" fill="#b5bcdf"/>
        <path id="Path_545" data-name="Path 545" d="M323.841,168.771c1.255.471,2.51.941,3.686,1.412l-8,5.333c-1.569-.706-3.059-1.333-4.627-1.961l7.843-5.255C323.057,168.457,323.449,168.614,323.841,168.771Z" transform="translate(-292.312 -159.673)" fill="#b5bcdf"/>
        <path id="Path_546" data-name="Path 546" d="M295.129,198.163a16.371,16.371,0,0,1-2.98,1.02l-.549-.784,1.569-1.02c.078,0,.078-.078.157-.078C293.953,197.614,294.58,197.927,295.129,198.163Z" transform="translate(-287.286 -165.928)" fill="#b5bcdf"/>
        <g id="Group_395" data-name="Group 395">
          <path id="Path_547" data-name="Path 547" d="M291.041,196.678l-.549-.784,1.569-1.02c.078,0,.157-.078.235-.078a3.482,3.482,0,0,0,.863-.627l.078-.078h0l.157-.157a3.026,3.026,0,0,0,.863-1.725,1.912,1.912,0,0,0,0-.941,3.437,3.437,0,0,0-.549-1.49,3.692,3.692,0,0,0-1.176-1.02,1.922,1.922,0,0,0-.941-.314,3.785,3.785,0,0,0-1.882.157c-.078,0-.157.078-.235.078h-.078l-.078.078a5.851,5.851,0,0,0-.941.549c-.078.078-.157.078-.157.157l-1.569,1.02-.549-.784c3.765-4.941,6.745-5.255,9.49-1.255C298.492,192.443,297,195.11,291.041,196.678Z" transform="translate(-286.1 -163.424)" fill="#b5bcdf"/>
          <path id="Path_548" data-name="Path 548" d="M334.949,157.3l.549.784-1.569,1.02c-.078,0-.157.078-.235.078a3.483,3.483,0,0,0-.863.627l-.078.078h0l-.157.157a3.026,3.026,0,0,0-.863,1.725,1.912,1.912,0,0,0,0,.941,3.437,3.437,0,0,0,.549,1.49,3.693,3.693,0,0,0,1.176,1.02,1.922,1.922,0,0,0,.941.314,3.067,3.067,0,0,0,1.882-.157c.078,0,.157-.078.235-.078h.078l.078-.078a5.852,5.852,0,0,0,.941-.549c.078-.078.157-.078.157-.157l1.569-1.02.549.784c-3.765,4.941-6.745,5.255-9.49,1.255C327.5,161.535,328.91,158.869,334.949,157.3Z" transform="translate(-295.342 -157.3)" fill="#b5bcdf"/>
          <path id="Path_549" data-name="Path 549" d="M325.432,168.028a.511.511,0,0,0,.157-.706l-1.725-2.588a.511.511,0,0,0-.706-.157l-26.823,17.96a.511.511,0,0,0-.157.706l1.725,2.588a.511.511,0,0,0,.706.157Z" transform="translate(-288.256 -158.852)" fill="#b5bcdf"/>
        </g>
        <path id="Path_550" data-name="Path 550" d="M295.039,185.418l9.1-6.118,4.706,1.882-11.451,7.686a6.536,6.536,0,0,1,.314,1.176c-1.02-.471-2.039-1.02-3.059-1.49,0-.078-.078-.157-.157-.235a3.692,3.692,0,0,0-1.176-1.02,1.922,1.922,0,0,0-.941-.314,3.369,3.369,0,0,0-1.255,0L289,186.045C291.274,183.927,293.235,183.849,295.039,185.418Z" transform="translate(-286.725 -162.045)" fill="#2e3192" opacity="0.2"/>
        <path id="Path_551" data-name="Path 551" d="M323.841,168.771c1.255.471,2.51.941,3.686,1.412l-8,5.333c-1.569-.706-3.059-1.333-4.627-1.961l7.843-5.255C323.057,168.457,323.449,168.614,323.841,168.771Z" transform="translate(-292.312 -159.673)" fill="#2e3192" opacity="0.2"/>
        <path id="Path_552" data-name="Path 552" d="M295.129,198.163a16.371,16.371,0,0,1-2.98,1.02l-.549-.784,1.569-1.02c.078,0,.078-.078.157-.078C293.953,197.614,294.58,197.927,295.129,198.163Z" transform="translate(-287.286 -165.928)" fill="#2e3192" opacity="0.2"/>
      </g>
    </g>
  </g>
</svg>
